<svg width="50" height="50" viewBox="0 0 50 50" fill="none" xmlns="http://www.w3.org/2000/svg">
<circle cx="25" cy="25" r="25" fill="white"/>
<g clip-path="url(#clip0_190_3162)">
<path d="M25 10C16.7158 10 10 16.7158 10 25C10 32.0344 14.8432 37.9372 21.3766 39.5584V29.584H18.2836V25H21.3766V23.0248C21.3766 17.9194 23.6872 15.553 28.6996 15.553C29.65 15.553 31.2898 15.7396 31.9606 15.9256V20.0806C31.6066 20.0434 30.9916 20.0248 30.2278 20.0248C27.7684 20.0248 26.818 20.9566 26.818 23.3788V25H31.7176L30.8758 29.584H26.818V39.8902C34.2454 38.9932 40.0006 32.6692 40.0006 25C40 16.7158 33.2842 10 25 10Z" fill="#233B77"/>
</g>
<defs>
<clipPath id="clip0_190_3162">
<rect width="30" height="30" fill="white" transform="translate(10 10)"/>
</clipPath>
</defs>
</svg>
