<svg width="50" height="50" viewBox="0 0 50 50" fill="none" xmlns="http://www.w3.org/2000/svg">
<circle cx="25" cy="25" r="25" fill="white"/>
<g clip-path="url(#clip0_190_3158)">
<path d="M25 12.7012C29.0078 12.7012 29.4824 12.7187 31.0586 12.7891C32.5234 12.8535 33.3145 13.0996 33.8418 13.3047C34.5391 13.5742 35.043 13.9023 35.5645 14.4238C36.0918 14.9512 36.4141 15.4492 36.6836 16.1465C36.8887 16.6738 37.1348 17.4707 37.1992 18.9297C37.2695 20.5117 37.2871 20.9863 37.2871 24.9883C37.2871 28.9961 37.2695 29.4707 37.1992 31.0469C37.1348 32.5117 36.8887 33.3027 36.6836 33.8301C36.4141 34.5273 36.0859 35.0313 35.5645 35.5527C35.0371 36.0801 34.5391 36.4023 33.8418 36.6719C33.3145 36.877 32.5176 37.123 31.0586 37.1875C29.4766 37.2578 29.002 37.2754 25 37.2754C20.9922 37.2754 20.5176 37.2578 18.9414 37.1875C17.4766 37.123 16.6855 36.877 16.1582 36.6719C15.4609 36.4023 14.957 36.0742 14.4355 35.5527C13.9082 35.0254 13.5859 34.5273 13.3164 33.8301C13.1113 33.3027 12.8652 32.5059 12.8008 31.0469C12.7305 29.4648 12.7129 28.9902 12.7129 24.9883C12.7129 20.9805 12.7305 20.5059 12.8008 18.9297C12.8652 17.4648 13.1113 16.6738 13.3164 16.1465C13.5859 15.4492 13.9141 14.9453 14.4355 14.4238C14.9629 13.8965 15.4609 13.5742 16.1582 13.3047C16.6855 13.0996 17.4824 12.8535 18.9414 12.7891C20.5176 12.7187 20.9922 12.7012 25 12.7012ZM25 10C20.9277 10 20.418 10.0176 18.8184 10.0879C17.2246 10.1582 16.1289 10.416 15.1797 10.7852C14.1895 11.1719 13.3516 11.6816 12.5195 12.5195C11.6816 13.3516 11.1719 14.1895 10.7852 15.1738C10.416 16.1289 10.1582 17.2187 10.0879 18.8125C10.0176 20.418 10 20.9277 10 25C10 29.0723 10.0176 29.582 10.0879 31.1816C10.1582 32.7754 10.416 33.8711 10.7852 34.8203C11.1719 35.8105 11.6816 36.6484 12.5195 37.4805C13.3516 38.3125 14.1895 38.8281 15.1738 39.209C16.1289 39.5781 17.2188 39.8359 18.8125 39.9062C20.4121 39.9766 20.9219 39.9941 24.9941 39.9941C29.0664 39.9941 29.5762 39.9766 31.1758 39.9062C32.7695 39.8359 33.8652 39.5781 34.8145 39.209C35.7988 38.8281 36.6367 38.3125 37.4688 37.4805C38.3008 36.6484 38.8164 35.8105 39.1973 34.8262C39.5664 33.8711 39.8242 32.7813 39.8945 31.1875C39.9648 29.5879 39.9824 29.0781 39.9824 25.0059C39.9824 20.9336 39.9648 20.4238 39.8945 18.8242C39.8242 17.2305 39.5664 16.1348 39.1973 15.1855C38.8281 14.1895 38.3184 13.3516 37.4805 12.5195C36.6484 11.6875 35.8105 11.1719 34.8262 10.791C33.8711 10.4219 32.7813 10.1641 31.1875 10.0938C29.582 10.0176 29.0723 10 25 10Z" fill="#233B77"/>
<path d="M25.002 17.2949C20.748 17.2949 17.2969 20.7461 17.2969 25C17.2969 29.2539 20.748 32.7051 25.002 32.7051C29.2559 32.7051 32.707 29.2539 32.707 25C32.707 20.7461 29.2559 17.2949 25.002 17.2949ZM25.002 29.998C22.2422 29.998 20.0039 27.7598 20.0039 25C20.0039 22.2402 22.2422 20.002 25.002 20.002C27.7617 20.002 30 22.2402 30 25C30 27.7598 27.7617 29.998 25.002 29.998Z" fill="#233B77"/>
<path d="M34.8086 16.9902C34.8086 17.9863 34 18.7891 33.0098 18.7891C32.0137 18.7891 31.2109 17.9805 31.2109 16.9902C31.2109 15.9941 32.0195 15.1914 33.0098 15.1914C34 15.1914 34.8086 16 34.8086 16.9902Z" fill="#233B77"/>
</g>
<defs>
<clipPath id="clip0_190_3158">
<rect width="30" height="30" fill="white" transform="translate(10 10)"/>
</clipPath>
</defs>
</svg>
