<svg width="50" height="50" viewBox="0 0 50 50" fill="none" xmlns="http://www.w3.org/2000/svg">
<circle cx="25" cy="25" r="25" fill="white"/>
<g clip-path="url(#clip0_190_3168)">
<path d="M37.7793 10H12.2148C10.9902 10 10 10.9668 10 12.1621V37.832C10 39.0273 10.9902 40 12.2148 40H37.7793C39.0039 40 40 39.0273 40 37.8379V12.1621C40 10.9668 39.0039 10 37.7793 10ZM18.9004 35.5645H14.4473V21.2441H18.9004V35.5645ZM16.6738 19.293C15.2441 19.293 14.0898 18.1387 14.0898 16.7148C14.0898 15.291 15.2441 14.1367 16.6738 14.1367C18.0977 14.1367 19.252 15.291 19.252 16.7148C19.252 18.1328 18.0977 19.293 16.6738 19.293ZM35.5645 35.5645H31.1172V28.6035C31.1172 26.9453 31.0879 24.8066 28.8027 24.8066C26.4883 24.8066 26.1367 26.6172 26.1367 28.4863V35.5645H21.6953V21.2441H25.9609V23.2012H26.0195C26.6113 22.0762 28.0645 20.8867 30.2266 20.8867C34.7324 20.8867 35.5645 23.8516 35.5645 27.707V35.5645Z" fill="#233B77"/>
</g>
<defs>
<clipPath id="clip0_190_3168">
<rect width="30" height="30" fill="white" transform="translate(10 10)"/>
</clipPath>
</defs>
</svg>
