<svg width="36" height="36" viewBox="0 0 36 36" fill="none" xmlns="http://www.w3.org/2000/svg">
<path d="M27.2195 8.82786C26.6508 8.25911 25.732 8.25911 25.1633 8.82786L18.032 15.9445L10.9008 8.81328C10.332 8.24453 9.41328 8.24453 8.84453 8.81328C8.27578 9.38203 8.27578 10.3008 8.84453 10.8695L15.9758 18.0008L8.84453 25.132C8.27578 25.7008 8.27578 26.6195 8.84453 27.1883C9.41328 27.757 10.332 27.757 10.9008 27.1883L18.032 20.057L25.1633 27.1883C25.732 27.757 26.6508 27.757 27.2195 27.1883C27.7883 26.6195 27.7883 25.7008 27.2195 25.132L20.0883 18.0008L27.2195 10.8695C27.7737 10.3154 27.7737 9.38203 27.2195 8.82786Z" fill="#fff"/>
</svg>
