<svg width="15" height="21" viewBox="0 0 15 21" fill="none" xmlns="http://www.w3.org/2000/svg">
<path d="M7.4987 9.97884C6.80803 9.97884 6.14565 9.70447 5.65727 9.2161C5.1689 8.72772 4.89453 8.06534 4.89453 7.37467C4.89453 6.68401 5.1689 6.02163 5.65727 5.53325C6.14565 5.04487 6.80803 4.77051 7.4987 4.77051C8.18937 4.77051 8.85175 5.04487 9.34012 5.53325C9.8285 6.02163 10.1029 6.68401 10.1029 7.37467C10.1029 7.71666 10.0355 8.05529 9.90463 8.37125C9.77376 8.6872 9.58194 8.97428 9.34012 9.2161C9.0983 9.45792 8.81122 9.64974 8.49527 9.78061C8.17932 9.91148 7.84068 9.97884 7.4987 9.97884ZM7.4987 0.0830078C5.56483 0.0830078 3.71016 0.851235 2.34271 2.21869C0.975258 3.58614 0.207031 5.4408 0.207031 7.37467C0.207031 12.8434 7.4987 20.9163 7.4987 20.9163C7.4987 20.9163 14.7904 12.8434 14.7904 7.37467C14.7904 5.4408 14.0221 3.58614 12.6547 2.21869C11.2872 0.851235 9.43257 0.0830078 7.4987 0.0830078Z" fill="#323232"/>
</svg>
