<svg width="21" height="17" viewBox="0 0 21 17" fill="none" xmlns="http://www.w3.org/2000/svg">
<path d="M20.9154 4.96699V13.4482C20.9154 14.313 20.5846 15.1449 19.9907 15.7735C19.3968 16.402 18.585 16.7795 17.7216 16.8285L17.5299 16.8337H3.46745C2.60272 16.8337 1.77075 16.5029 1.14221 15.909C0.513663 15.3151 0.136197 14.5032 0.0872397 13.6399L0.0820312 13.4482V4.96699L10.1362 10.2337C10.248 10.2922 10.3724 10.3228 10.4987 10.3228C10.625 10.3228 10.7493 10.2922 10.8612 10.2337L20.9154 4.96699ZM3.46745 0.166992H17.5299C18.3691 0.166891 19.1784 0.478446 19.8008 1.04123C20.4233 1.60401 20.8145 2.37791 20.8987 3.21283L10.4987 8.66074L0.098698 3.21283C0.179451 2.41107 0.543542 1.66441 1.12552 1.10706C1.7075 0.54971 2.4692 0.218229 3.2737 0.172201L3.46745 0.166992Z" fill="#323232"/>
</svg>
