<svg width="19" height="19" viewBox="0 0 19 19" fill="none" xmlns="http://www.w3.org/2000/svg">
<path d="M17.7813 18.875C15.6111 18.875 13.467 18.4021 11.349 17.4562C9.2309 16.5104 7.30382 15.1691 5.56771 13.4323C3.8316 11.6955 2.49062 9.7684 1.54479 7.65104C0.598958 5.53368 0.125694 3.38958 0.125 1.21875C0.125 0.90625 0.229167 0.645833 0.4375 0.4375C0.645833 0.229167 0.90625 0.125 1.21875 0.125H5.4375C5.68056 0.125 5.89757 0.207639 6.08854 0.372917C6.27951 0.538194 6.39236 0.733333 6.42708 0.958333L7.10417 4.60417C7.13889 4.88194 7.13021 5.11632 7.07812 5.30729C7.02604 5.49826 6.93055 5.66319 6.79167 5.80208L4.26562 8.35417C4.61285 8.99653 5.025 9.61701 5.50208 10.2156C5.97917 10.8142 6.50451 11.3917 7.07812 11.9479C7.61632 12.4861 8.18056 12.9854 8.77083 13.4458C9.36111 13.9062 9.98611 14.3271 10.6458 14.7083L13.0937 12.2604C13.25 12.1042 13.4542 11.9872 13.7062 11.9094C13.9583 11.8316 14.2056 11.8097 14.4479 11.8437L18.0417 12.5729C18.2847 12.6424 18.4844 12.7684 18.6406 12.951C18.7969 13.1337 18.875 13.3375 18.875 13.5625V17.7813C18.875 18.0938 18.7708 18.3542 18.5625 18.5625C18.3542 18.7708 18.0938 18.875 17.7813 18.875Z" fill="#323232"/>
</svg>
