<svg width="114" height="114" viewBox="0 0 114 114" fill="none" xmlns="http://www.w3.org/2000/svg">
<rect x="56.9414" width="80.5265" height="80.5265" rx="14.7443" transform="rotate(45 56.9414 0)" fill="#233B77"/>
<path fill-rule="evenodd" clip-rule="evenodd" d="M52.4972 36.2412C48.7756 36.2412 45.8605 37.2694 43.833 39.2969C41.8055 41.3244 40.7773 44.2394 40.7773 47.961V71.4007H55.4271V47.961H46.6373C46.6373 45.85 47.0879 44.3292 47.9765 43.4404C48.8653 42.5518 50.3861 42.1011 52.4972 42.1011" fill="white"/>
<path fill-rule="evenodd" clip-rule="evenodd" d="M73.0089 36.2412C69.2873 36.2412 66.3723 37.2694 64.3447 39.2969C62.3172 41.3244 61.2891 44.2394 61.2891 47.961V71.4007H75.9388V47.961H67.149C67.149 45.85 67.5996 44.3292 68.4882 43.4404C69.377 42.5518 70.8979 42.1011 73.0089 42.1011" fill="white"/>
</svg>
