<svg width="29" height="33" viewBox="0 0 29 33" fill="none" xmlns="http://www.w3.org/2000/svg">
<path fill-rule="evenodd" clip-rule="evenodd" d="M12.7835 0.416504C10.8068 0.416672 8.85888 0.889535 7.10216 1.79564C5.34544 2.70175 3.83088 4.01482 2.68484 5.62531C1.5388 7.2358 0.794507 9.09701 0.514067 11.0537C0.233627 13.0103 0.425169 15.0056 1.07271 16.8732C1.72025 18.7407 2.80502 20.4264 4.23651 21.7894C5.66799 23.1525 7.40469 24.1535 9.3017 24.7088C11.1987 25.2642 13.201 25.3579 15.1416 24.982C17.0822 24.6061 18.9047 23.7717 20.4572 22.5482L25.783 27.874C26.0581 28.1397 26.4265 28.2866 26.8088 28.2833C27.1912 28.28 27.557 28.1266 27.8274 27.8562C28.0977 27.5859 28.2511 27.2201 28.2544 26.8377C28.2578 26.4553 28.1108 26.087 27.8451 25.8119L22.5193 20.4861C23.9601 18.6582 24.8572 16.4617 25.108 14.1478C25.3587 11.8339 24.9529 9.49612 23.9371 7.40206C22.9213 5.308 21.3364 3.54223 19.3639 2.30684C17.3914 1.07145 15.1109 0.416348 12.7835 0.416504ZM3.30428 12.8123C3.30428 10.2983 4.30298 7.88724 6.08067 6.10955C7.85836 4.33187 10.2694 3.33317 12.7835 3.33317C15.2975 3.33317 17.7085 4.33187 19.4862 6.10955C21.2639 7.88724 22.2626 10.2983 22.2626 12.8123C22.2626 15.3264 21.2639 17.7374 19.4862 19.5151C17.7085 21.2928 15.2975 22.2915 12.7835 22.2915C10.2694 22.2915 7.85836 21.2928 6.08067 19.5151C4.30298 17.7374 3.30428 15.3264 3.30428 12.8123Z" fill="#233B77"/>
</svg>
