<svg width="1920" height="1080" viewBox="0 0 1920 1080" fill="none" xmlns="http://www.w3.org/2000/svg">
<g clip-path="url(#clip0_190_1774)">
<path d="M-25.2704 57.4693C-44.451 -51.3096 28.1827 -155.041 136.962 -174.222L1693.88 -448.749C1802.66 -467.929 1906.39 -395.296 1925.57 -286.517L2073.61 553.043C2092.79 661.821 2020.16 765.553 1911.38 784.734L275.673 1073.15C210.406 1084.66 148.167 1041.08 136.658 975.813L-25.2704 57.4693Z" fill="#EDFAFF"/>
<path d="M1271.66 -125.965C1264.12 -164.79 1289.47 -202.383 1328.3 -209.93L1968.31 -334.335C2007.14 -341.882 2044.73 -316.526 2052.28 -277.7L2120.05 70.9589C2127.59 109.785 2102.24 147.377 2063.41 154.924L1402.18 283.454C1375.08 288.723 1348.83 271.02 1343.56 243.913L1271.66 -125.965Z" fill="#233B77"/>
</g>
<defs>
<clipPath id="clip0_190_1774">
<rect width="1920" height="1080" fill="white"/>
</clipPath>
</defs>
</svg>
