<svg width="1920" height="1080" viewBox="0 0 1920 1080" fill="none" xmlns="http://www.w3.org/2000/svg">
<g clip-path="url(#clip0_249_1275)">
<mask id="mask0_249_1275" style="mask-type:alpha" maskUnits="userSpaceOnUse" x="0" y="0" width="1920" height="1080">
<rect width="1920" height="1080" fill="#D9D9D9"/>
</mask>
<g mask="url(#mask0_249_1275)">
<path d="M266.688 -1122.03C299.503 -1227.5 411.606 -1286.4 517.076 -1253.58L2026.63 -783.908C2132.1 -751.093 2191 -638.991 2158.19 -533.521L1881.15 356.888C1861.46 420.17 1794.2 455.509 1730.92 435.819L68.5839 -81.3889C5.302 -101.078 -30.037 -168.339 -10.3478 -231.621L266.688 -1122.03Z" fill="#EDFAFF"/>
<path d="M1271.66 -125.965C1264.12 -164.79 1289.47 -202.383 1328.3 -209.93L1968.31 -334.335C2007.14 -341.882 2044.73 -316.526 2052.28 -277.7L2120.05 70.9589C2127.59 109.785 2102.24 147.377 2063.41 154.924L1402.18 283.454C1375.08 288.723 1348.83 271.02 1343.56 243.913L1271.66 -125.965Z" fill="#233B77"/>
</g>
</g>
<defs>
<clipPath id="clip0_249_1275">
<rect width="1920" height="1080" fill="white"/>
</clipPath>
</defs>
</svg>
