<svg width="230" height="67" viewBox="0 0 230 67" fill="none" xmlns="http://www.w3.org/2000/svg">
<path d="M38.448 67L14.064 37.144V67H0.624001V-0.00800133H14.064V30.04L38.448 -0.00800133H54.672L27.024 33.208L55.44 67H38.448ZM113.144 20.728C113.144 24.312 112.28 27.672 110.552 30.808C108.888 33.944 106.232 36.472 102.584 38.392C99.0003 40.312 94.4563 41.272 88.9523 41.272H77.7203V67H64.2803V-0.00800133H88.9523C94.1363 -0.00800133 98.5523 0.887999 102.2 2.68C105.848 4.472 108.568 6.936 110.36 10.072C112.216 13.208 113.144 16.76 113.144 20.728ZM88.3763 30.424C92.0883 30.424 94.8403 29.592 96.6323 27.928C98.4243 26.2 99.3203 23.8 99.3203 20.728C99.3203 14.2 95.6723 10.936 88.3763 10.936H77.7203V30.424H88.3763ZM171.551 20.728C171.551 24.312 170.687 27.672 168.958 30.808C167.295 33.944 164.639 36.472 160.991 38.392C157.407 40.312 152.863 41.272 147.359 41.272H136.127V67H122.687V-0.00800133H147.359C152.543 -0.00800133 156.959 0.887999 160.607 2.68C164.255 4.472 166.975 6.936 168.767 10.072C170.623 13.208 171.551 16.76 171.551 20.728ZM146.783 30.424C150.495 30.424 153.247 29.592 155.039 27.928C156.831 26.2 157.727 23.8 157.727 20.728C157.727 14.2 154.079 10.936 146.783 10.936H136.127V30.424H146.783ZM229.957 20.728C229.957 24.312 229.093 27.672 227.365 30.808C225.701 33.944 223.045 36.472 219.397 38.392C215.813 40.312 211.269 41.272 205.765 41.272H194.533V67H181.093V-0.00800133H205.765C210.949 -0.00800133 215.365 0.887999 219.013 2.68C222.661 4.472 225.381 6.936 227.173 10.072C229.029 13.208 229.957 16.76 229.957 20.728ZM205.189 30.424C208.901 30.424 211.653 29.592 213.445 27.928C215.237 26.2 216.133 23.8 216.133 20.728C216.133 14.2 212.485 10.936 205.189 10.936H194.533V30.424H205.189Z" fill="#A7488A"/>
</svg>
