<svg width="250" height="250" viewBox="0 0 250 250" fill="none" xmlns="http://www.w3.org/2000/svg">
<path d="M110.216 206.709C107.119 206.317 101.233 203.865 97.1361 201.26C93.0395 198.654 88.7958 196.523 87.7056 196.523C85.3862 196.523 85.0553 194.477 85.6136 183.592C85.8402 179.172 85.0792 172.015 83.9225 167.687C81.8626 159.98 81.6338 159.814 72.8239 159.636C67.8765 159.536 63.3656 158.988 62.7998 158.418C62.2339 157.848 61.8862 154.294 62.027 150.52C62.2626 144.207 61.8359 143.658 56.6937 143.658C52.1769 143.658 51.2879 142.951 52.0613 139.971C53.1298 135.855 46.3436 129.952 40.5423 129.952C38.5488 129.952 36.2028 127.735 35.0974 124.806C33.3413 120.153 32.4148 119.76 25.428 120.704C18.6071 121.626 17.7008 121.279 17.7008 117.753C17.7008 115.556 19.8873 111.717 22.5596 109.222C25.5628 106.418 27.3947 102.594 27.3565 99.2081C27.3004 94.2355 27.0566 94.0463 24.7129 97.1567C23.2929 99.0412 20.2069 100.583 17.8551 100.583C14.1039 100.583 13.6532 99.6841 14.1824 93.2571C14.6359 87.7491 15.7502 85.7493 18.6726 85.1988C20.8104 84.796 23.1685 83.4918 23.9127 82.3004C24.7947 80.8884 25.7128 81.3081 26.55 83.5059C28.0269 87.3834 35.2525 87.9917 38.6907 84.5279C39.9734 83.2357 41.0229 80.1829 41.0229 77.744C41.0229 72.541 47.3107 68.5168 52.7319 70.2502C55.9209 71.2699 56.8953 70.0482 58.8921 62.5269C61.1642 53.9685 61.5656 53.5923 68.4243 53.5923C74.4828 53.5923 75.7764 52.8223 76.8313 48.588C77.9552 44.0766 78.8852 43.6427 86.2736 44.1826C95.1296 44.8297 95.1436 44.8638 92.362 59.0039C91.6602 62.5714 92.1279 67.8829 93.4207 71.0272C95.3914 75.8202 95.1352 77.8477 91.7018 84.6276C87.2943 93.3313 86.5414 99.6512 89.6794 101.605C90.7862 102.294 96.4049 100.89 102.165 98.4846L112.639 94.1113L122.188 100.284C129.406 104.951 133.947 106.457 140.797 106.457C153.524 106.457 169.227 115.199 169.266 122.307C169.308 129.983 175.266 133.945 193.022 138.104C212.738 142.724 222.105 148.478 220.486 154.977C219.774 157.837 220.622 160.88 222.811 163.316C224.707 165.427 225.467 167.173 224.499 167.197C223.532 167.221 224.634 168.763 226.949 170.623C229.264 172.484 232.465 177.228 234.063 181.166C236.833 187.994 236.781 188.376 232.941 189.387C230.726 189.971 227.364 189.612 225.469 188.59C220.113 185.702 216.691 186.349 210.743 191.374C206.538 194.925 204.213 195.626 200.835 194.359C197.059 192.942 196.498 191.494 196.948 184.334C197.435 176.597 197.089 175.919 192.375 175.368C184.686 174.47 180.596 179.787 181.212 189.877C181.867 200.609 180.785 201.614 175.117 195.536C171.943 192.132 168.497 190.649 163.764 190.649C160.026 190.649 155.495 189.306 153.694 187.665C148.964 183.352 143.68 186.028 144.409 192.368C144.865 196.33 146.22 197.643 150.345 198.121C153.285 198.462 155.69 199.495 155.69 200.417C155.69 202.305 145.095 205.833 139.17 205.918C137.032 205.948 130.91 206.299 125.565 206.698C120.221 207.096 113.314 207.101 110.216 206.709Z" fill="#233B77"/>
</svg>
