<svg width="250" height="250" viewBox="0 0 250 250" fill="none" xmlns="http://www.w3.org/2000/svg">
<g clip-path="url(#clip0_359_1061)">
<mask id="mask0_359_1061" style="mask-type:alpha" maskUnits="userSpaceOnUse" x="18" y="4" width="195" height="196">
<path d="M36.6086 116.157C35.3201 115.609 33.8551 115.578 32.4658 115.459L29.494 100.087L47.636 89.5506L72.8808 66.6596L109.329 56.1223L141.667 29.5979L158.381 4.89014L176.185 4.89013L188.539 29.5979L176.185 49.9453C178.607 59.2711 183.961 79.0857 185.995 83.7367C188.539 89.5505 204.163 112.631 207.07 121.34C209.977 130.049 210.703 132.355 212.157 145.833C213.61 159.31 209.613 175.923 201.983 178.12C194.353 180.317 178.729 180.317 170.008 180.317C161.288 180.317 140.94 178.357 136.58 178.357L113.326 178.357L100.608 178.357L95.165 178.12C93.7209 178.671 92.7159 180.225 91.8788 181.354C92.7481 182.43 91.8777 183.314 90.7785 183.679C89.8103 184.598 88.9107 185.102 87.6565 185.603C86.3729 186.888 88.4951 188.518 87.9915 190.003C87.058 191.12 84.7722 191.183 83.7336 190.094C82.703 188.208 81.1134 190.525 79.7358 190.703C78.7162 191.702 78.4891 193.232 77.7547 194.486C76.2786 195.077 74.8191 195.834 73.8126 197.184C74.6314 198.048 73.7485 199.011 72.8808 199.318C71.5601 200.843 69.5816 198.846 69.4419 197.339C68.3241 196.161 68.6573 198.71 68.0569 199.187C67.4643 198.731 67.032 197.61 66.2361 198.671C65.8219 196.984 64.1083 196.144 62.9621 194.882C62.0329 193.399 63.9223 192.168 64.2785 190.807C63.836 191.06 63.4246 191.358 63.0095 191.652C62.1905 192.178 61.1883 192.34 60.2587 192.596C59.1753 192.637 57.5693 192.247 57.1316 193.609C57.1203 194.704 55.8697 195.123 54.9884 195.339C54.1247 194.934 52.7715 197.047 52.8001 195.626C52.2589 194.814 52.9015 193.499 51.6539 193.33C50.4909 193.032 49.3529 193.733 48.2618 194.057C47.3414 194.625 45.5147 194.836 45.6526 193.286C45.7653 192.335 45.2082 191.226 44.196 191.091C43.2729 191.5 42.1023 192.057 41.716 190.695C42.2911 189.786 42.9547 188.87 42.6989 187.68C42.9545 186.609 41.3203 185.848 41.4107 185.192C42.3875 184.269 43.8962 183.835 44.4417 182.531C45.3695 181.383 44.2401 179.986 42.9205 180.317C42.4798 179.163 40.877 179.324 40.3705 178.357C39.3871 177.222 40.8506 176.887 41.7244 176.521C42.8599 176.071 44.0493 177.2 45.2275 177.308C46.6022 177.546 47.9309 176.9 49.205 176.468C50.3118 176.179 51.3307 175.55 51.766 174.442C51.6472 173.204 52.9004 173.263 53.8329 173.226C53.6269 173.034 53.4177 172.846 53.2047 172.662C52.2498 172.307 52.3755 170.995 51.5585 170.581C50.5091 170.205 49.4702 169.791 48.4016 169.471C47.459 169.175 46.2205 169.267 45.7651 168.188C45.3974 167.216 43.989 167.241 43.7632 166.188C43.3457 165.005 42.7153 166.443 42.4823 166.877C41.0616 166.751 42.8197 165.076 41.7294 164.417C41.0786 163.734 39.942 164.417 39.543 165.085C39.2638 165.944 38.58 166.763 37.6006 166.737C36.7429 166.553 35.446 168.012 35.2627 166.674C35.3329 165.331 37.4061 164.8 36.929 163.369C36.8409 163.223 36.6363 163.018 36.5156 163.378C34.8488 164.859 34.4717 162.231 33.0402 161.977C31.3117 161.054 34.3409 160.414 33.497 159.31C32.7751 158.263 31.2626 158.642 30.1773 158.285C28.7867 158.371 28.0837 157.067 26.9185 156.617C25.4658 156.17 23.9366 155.301 22.3938 155.914C21.0308 155.516 19.6769 154.478 18.4141 153.67C17.0287 152.352 19.9554 152.371 20.7549 152.783C21.1826 153.891 22.8365 154.514 23.8475 153.732C24.2756 152.518 25.1037 153.066 25.9606 153.257C27.0826 152.733 27.6406 153.899 28.5648 153.795C29.5394 153.782 31.7224 153.426 30.356 152.164C29.3479 150.96 28.2537 152.875 27.4088 151.984C27.053 150.774 25.1991 152.121 25.7281 150.63C25.6066 149.761 25.2554 148.861 26.0268 147.977C25.6173 146.48 24.0365 147.297 23.1771 146.685C21.3365 145.625 23.5278 144.775 23.9356 143.706C23.0556 142.58 24.7032 142.586 25.5083 142.073C25.5412 143.559 26.3129 144.93 26.9466 146.239C27.3399 148.077 28.835 145.566 29.4906 146.851C29.9063 148.367 31.3696 148.622 32.7506 148.702C34.5561 149.362 33.3887 147.011 34.6318 146.81C35.9157 147.094 37.0113 146.633 37.8563 145.596C38.4142 145.65 41.4112 144.959 40.1134 145.833C41.0159 146.753 40.58 148.319 40.7889 149.527C41.662 149.664 43.4006 151.04 43.6542 149.52C43.5226 147.756 45.0431 147.027 46.3944 146.425C47.5305 145.614 48.5378 144.055 50.0864 145.134C50.3924 143.83 50.8377 142.46 50.3178 141.143C50.2549 139.468 48.7905 139.688 47.636 139.269C48.3515 138.537 49.6651 138.553 50.5861 138.004C51.0476 138.729 52.0441 138.729 52.8755 138.44C53.9486 137.98 53.5272 139.01 52.8175 139.203C51.2318 140.097 53.2641 140.424 54.1314 140.292C55.1963 141.5 56.21 139.975 57.1422 139.292C58.3793 138.604 58.8488 137.217 59.9974 136.488C60.5027 135.426 60.1133 134.074 60.1987 132.864C59.6179 131.371 59.8805 129.941 60.8654 128.671C60.0107 128.73 59.8109 129.68 59.2025 130.049C58.4171 129.418 57.56 130.164 56.8088 129.928C56.5127 128.685 55.2736 128.544 54.5025 129.512C53.6249 130.275 52.51 132.598 54.5241 132.58C54.1494 134.195 52.3328 133.802 51.4159 132.91C51.6902 134.129 50.386 134.633 49.4133 134.731C49.1295 133.976 50.6689 132.924 50.5342 131.821C50.3096 130.085 48.2343 131.74 49.0438 132.761C49.1772 133.904 47.9837 134.795 47.0042 135.058C45.8373 135.442 45.3739 136.985 44.0055 136.997C42.6563 137.542 41.6751 138.7 40.2738 139.15C39.7753 138.687 41.1636 137.406 40.7089 136.557C39.8722 135.402 39.2409 137.987 38.5208 138.222C36.4391 137.852 38.6007 136.335 39.1766 135.539C39.1546 134.076 40.4443 133.249 41.4329 132.374C42.8788 131.59 40.8275 130.1 40.0942 131.265C39.1349 131.106 37.7844 132.323 39.111 132.902C39.3174 133.836 38.4525 135.072 37.8068 135.815C36.6026 136.902 37.3842 134.567 36.4064 135.006C35.142 135.62 36.211 134.524 36.6454 134.161C36.5452 133.099 37.5255 131.867 37.1003 130.878C36.0577 129.288 38.4257 129.775 39.2697 129.465C40.7702 128.953 39.6478 126.399 38.5154 127.597C37.664 128.272 36.4108 128.599 35.3608 128.928C34.7797 128.12 36.362 127.077 35.565 126.038C35.6464 124.475 35.3054 122.808 35.9484 121.34C36.7733 120.206 35.9013 119.13 34.739 118.977C35.4542 118.166 36.8111 117.501 36.6086 116.157Z" fill="#233B77"/>
</mask>
<g mask="url(#mask0_359_1061)">
<path d="M-55.2741 304.524C-58.4688 303.567 -63.6346 299.522 -66.7538 295.535C-69.8729 291.547 -78.3702 285.049 -85.6365 281.094C-92.9029 277.139 -99.5558 271.674 -100.421 268.948C-101.411 265.828 -104.525 263.993 -108.829 263.993C-114.51 263.993 -115.118 263.335 -112.431 260.098C-108.201 255 -111.445 249.974 -117.688 251.956C-121.46 253.153 -122.296 252.382 -121.311 248.615C-120.569 245.779 -122.351 241.618 -125.546 238.727C-132.018 232.87 -132.532 228.416 -127.243 224.026C-124.663 221.885 -123.909 217.875 -124.918 211.66C-126.266 203.353 -125.794 202.454 -120.041 202.377C-112.965 202.283 -104.308 196.747 -104.308 192.316C-104.308 189.384 -94.4192 185.007 -89.5943 185.803C-88.1229 186.046 -83.9688 183.988 -80.3628 181.23C-74.5783 176.805 -74.2515 175.679 -77.5866 171.66C-80.8918 167.678 -80.727 166.638 -76.2746 163.382C-73.474 161.334 -66.5181 159.659 -60.817 159.659C-50.0832 159.659 -46.1237 158.096 -28.0637 146.731C-19.8202 141.543 -14.408 140.151 -4.49725 140.671C7.23161 141.286 9.18132 140.483 17.5735 131.585C22.6365 126.216 26.7789 120.852 26.7789 119.664C26.7789 116.872 38.6782 112.377 51.8846 110.18C59.2989 108.947 66.2717 104.673 76.2203 95.2639C83.8895 88.0108 92.57 82.0764 95.5104 82.0764C98.4508 82.0764 103.085 79.6135 105.81 76.6033C108.534 73.5931 113.235 71.3187 116.256 71.549C131.151 72.6841 139.689 67.3673 137.348 58.4152C136.553 55.3767 137.706 52.7444 140.261 51.764C142.594 50.869 144.49 47.0671 144.49 43.2854C144.49 39.5145 146.347 35.7167 148.617 34.8457C150.886 33.9747 155.124 28.5951 158.034 22.891C160.944 17.187 163.783 12.52 164.343 12.52C164.902 12.52 165.179 19.8313 164.957 28.7674C164.555 44.9931 164.544 45.0129 157.197 43.5482C147.926 41.6998 147.985 43.5741 157.659 58.2093C161.959 64.715 166.339 73.6494 167.391 78.0635C169.887 88.5305 173.409 92.7774 179.596 92.7774C182.358 92.7774 184.619 94.5832 184.619 96.7903C184.619 98.9973 186.424 100.803 188.631 100.803C193.443 100.803 193.899 106.504 189.444 110.959C186.96 113.443 187.41 115.024 191.45 118.019C195.935 121.344 196.181 122.658 193.222 127.501C191.333 130.594 190.422 134.151 191.198 135.406C193.192 138.631 185.003 157.431 179.229 162.883C175.408 166.491 174.11 166.695 173.021 163.857C172.028 161.269 165.902 160.306 151.052 160.402C132.893 160.519 129.936 159.84 126.03 154.662C123.499 151.306 118.193 148.539 113.65 148.205C106.176 147.655 105.65 148.263 104.893 158.321C104.451 164.206 102.223 170.447 99.9438 172.188C94.688 176.203 97.5405 181.049 105.188 181.097C108.412 181.117 113.795 181.869 117.152 182.768C122.421 184.18 123.078 185.727 121.965 194.102C119.559 212.212 116.272 219.851 110.885 219.856C107.905 219.856 105.342 222.087 104.743 225.195C104.178 228.129 101.453 233.406 98.6878 236.921C95.9226 240.436 93.6601 247.177 93.6601 251.901C93.6601 257.091 91.5434 262.404 88.3096 265.331C85.3668 267.994 82.9591 271.685 82.9591 273.533C82.9591 279.29 66.9316 290.746 58.8785 290.746C53.2169 290.746 47.2063 286.794 35.479 275.363C21.0823 261.33 18.6593 259.98 7.8558 259.98C1.34259 259.98 -5.40807 260.903 -7.14564 262.03C-8.8832 263.158 -10.9767 262.993 -11.7978 261.665C-14.5363 257.234 -32.6517 255.253 -35.1015 259.117C-38.7599 264.887 -37.7476 272.532 -32.8512 276.113C-28.9695 278.951 -28.7666 280.537 -31.5136 286.566C-33.2946 290.474 -34.7518 295.883 -34.7518 298.585C-34.7518 301.418 -37.2997 304.181 -40.7711 305.111C-47.5045 306.916 -47.2563 306.926 -55.2741 304.524Z" fill="#233B77"/>
</g>
</g>
<defs>
<clipPath id="clip0_359_1061">
<rect width="250" height="250" fill="white"/>
</clipPath>
</defs>
</svg>
