<svg width="250" height="250" viewBox="0 0 250 250" fill="none" xmlns="http://www.w3.org/2000/svg">
<path d="M140.141 221.909C139.322 220.585 139.386 217.19 140.282 214.366C144.396 201.412 120.679 194.785 114.976 207.294C111.267 215.431 103.581 216.372 103.581 208.69C103.581 205.365 99.5035 200.704 93.0084 196.606C76.5055 186.193 66.9795 141.258 78.7727 133.534C82.4458 131.128 85.9513 136.406 89.1338 129.835C84.3227 117.998 80.622 112.079 84.3227 103.571C78.3911 93.5341 96.3302 88.1043 105.417 83.9659C110.929 81.4559 124.225 81.8973 143.535 88.4051C164.64 95.5173 170.37 104.541 174.992 113.559C177.819 119.075 191.381 131.575 192.756 132.424C197.379 135.281 199.787 160.168 199.787 175.704C199.787 186.801 187.241 204.427 182.509 207.35C180.496 208.594 180.585 210.315 182.802 212.984C185.372 216.079 184.906 216.827 180.404 216.827C177.33 216.827 173.195 218.358 171.214 220.231C167.057 224.162 142.358 225.496 140.141 221.909Z" fill="#233B77"/>
<path d="M189.9 169.713C187.834 166.419 182.742 156.883 178.585 148.523C174.428 140.163 169.181 131.792 166.926 129.921C164.671 128.051 161.501 122.508 159.882 117.605C157.26 109.664 154.64 107.874 135.901 101.229C105.545 90.4635 97.6145 90.6465 89.7163 102.295C86.0459 107.708 84.1087 113.47 85.1383 115.913C92.9197 134.372 92.9853 135.045 87.9215 144.444C83.5803 152.501 73.6511 158.844 70.426 155.621C69.8329 155.028 67.9402 147.417 66.2198 138.707L63.092 122.87L50.2637 121.396C43.2082 120.585 37.0733 119.36 36.6306 118.672C36.1879 117.985 33.071 113.49 29.7041 108.682C22.0968 97.8191 22.0975 96.9036 29.7129 97.7094C34.6867 98.2358 36.0169 96.8164 36.7613 90.1876C37.266 85.6938 39.4118 81.0368 41.5297 79.8389C43.6476 78.6411 45.3805 75.8111 45.3805 73.5503C45.3805 71.2894 46.6306 70.2118 48.1586 71.1557C49.6865 72.0995 55.2802 71.4389 60.5891 69.6876C71.1133 66.2159 75.3532 58.8769 75.3532 44.132C75.3532 38.7505 77.4544 33.2983 80.6384 30.4181C85.6782 25.8593 86.5935 25.8596 100.347 30.4255C108.28 33.0592 119.083 35.5551 124.353 35.972C130.413 36.4513 135.311 38.7968 137.675 42.3511C139.731 45.4428 143.519 47.9723 146.093 47.9723C148.667 47.9723 152.169 51.0363 153.876 54.7812C157.416 62.5471 159.484 63.0673 166.481 57.9528C171.959 53.9494 183.284 55.0394 186.429 59.8726C187.531 61.5662 188.432 67.1896 188.432 72.3691C188.432 84.4179 197.092 89.657 213.309 87.4192L224.563 85.8664L226.462 98.5236C228.43 111.646 225.158 117.846 214.018 122.095C211.166 123.183 208.983 128.657 207.777 137.746C206.631 146.375 204.346 152.328 201.805 153.302C198.913 154.411 198.171 157.082 199.312 162.273C201.601 172.691 195.028 177.888 189.9 169.713Z" fill="#233B77"/>
</svg>
