<svg width="250" height="250" viewBox="0 0 250 250" fill="none" xmlns="http://www.w3.org/2000/svg">
<path d="M105.871 238.643C105.395 237.867 101.699 236.732 97.6595 236.121C92.2295 235.301 89.0227 233.63 85.362 229.713C79.7828 223.744 71.9174 219.303 66.9252 219.303C63.8935 219.303 63.6724 218.669 64.5595 212.519C65.0977 208.787 64.9351 202.88 64.1983 199.392C63.0587 193.996 61.956 192.703 56.8145 190.731C52.2487 188.98 50.0783 188.849 47.9404 190.194C45.7859 191.55 44.4073 191.438 42.1647 189.726C40.4477 188.416 35.4192 187.457 30.1095 187.427C25.0993 187.399 21 186.958 21 186.447C21 185.234 34.188 171.474 35.3842 171.44C35.889 171.425 36.2455 173.03 36.1763 175.005C36.0595 178.34 36.6158 178.556 43.9533 178.022C53.4235 177.333 56.6324 175.288 61.7093 166.71C64.9228 161.28 65.1652 160.064 63.1866 159.299C61.4081 158.611 62.5659 156.697 67.8422 151.603C73.5664 146.077 74.8649 143.775 74.8649 139.158C74.8649 132.622 71.6873 129.19 67.0196 130.682C65.2351 131.253 63.7751 131.069 63.7751 130.272C63.7751 128.242 71.0684 125.12 75.8106 125.12C79.6342 125.12 79.7588 124.794 79.3007 115.998C78.8386 107.127 78.6083 106.709 70.9043 100.769C64.8027 96.0648 61.9821 94.8506 58.6262 95.4838C52.8218 96.579 52.7122 92.1696 58.4296 87.576C62.4562 84.3408 62.5097 84.0777 60.0948 79.3724C58.7227 76.6987 55.6388 73.2163 53.2417 71.6337C48.9141 68.7766 48.908 68.7472 52.3686 67.4573C54.2855 66.7428 55.8538 65.163 55.8538 63.9466C55.8538 62.2525 57.721 61.9158 63.8345 62.5077C71.5882 63.2584 71.8684 63.1384 73.6862 58.2857C75.8835 52.4201 77.9283 52.6382 89.4585 59.968C94.3441 63.0738 98.0105 64.3653 100.071 63.7062C104.435 62.3107 105.838 56.9011 102.732 53.4437C101.347 51.901 100.213 50.1902 100.213 49.6419C100.213 47.4672 115.948 41.7517 127.773 39.6316C134.653 38.398 141.604 36.966 143.219 36.4493C146.801 35.3038 147.016 32.0455 143.693 29.2664C141.512 27.4428 141.733 26.8004 145.619 23.6784C149.643 20.4452 149.845 19.7857 148.032 15.7764L146.054 11.402L153.63 12.5033C163.501 13.9381 180.577 22.257 181.833 26.2424C183.054 30.1188 184.342 30.1137 191.582 26.2036C198.31 22.5699 199.964 20.4077 199.997 15.1988C200.018 11.9754 200.596 11.5792 204.015 12.4438C206.211 12.9992 209.419 12.6927 211.144 11.7625C214.057 10.1918 214.28 10.5913 214.28 17.3757C214.28 22.266 215.367 26.1617 217.57 29.1634C220.66 33.3754 220.713 33.9998 218.443 39.4749C216.442 44.3004 215.228 45.303 211.386 45.303C206.163 45.303 203.932 47.3553 202.38 53.5871C201.572 56.8323 199.73 58.3688 194.735 59.9635C189.368 61.6773 188.008 62.9229 187.356 66.7218C186.417 72.1847 183.888 73.5401 181.054 70.0994C178.489 66.9845 175.276 66.9599 174.101 70.0462C173.599 71.3632 172.122 72.4407 170.818 72.4407C163.938 72.4407 164.022 87.6528 170.912 89.3953C174.487 90.2993 174.611 90.6164 172.37 93.1113C168.74 97.1533 169.172 105.509 173.075 106.757C174.81 107.312 177.057 107.251 178.068 106.621C179.079 105.991 180.71 106.582 181.691 107.935C182.673 109.287 186.279 111.732 189.704 113.367C193.795 115.319 196.249 117.71 196.854 120.331C197.427 122.812 199.063 124.51 201.182 124.819C203.721 125.19 204.713 126.612 205.077 130.404C205.529 135.098 206.168 135.619 213.348 137.145C222.393 139.069 223.512 140.923 223.674 154.253C223.758 161.201 224.555 164.207 226.954 166.624C228.697 168.38 230.066 171.792 229.998 174.207C229.929 176.621 229.483 177.609 229.007 176.402C227.884 173.552 222.582 168.221 220.871 168.221C220.14 168.221 218.754 169.961 217.792 172.089C216.83 174.216 214.399 176.191 212.389 176.479C209.756 176.855 208.488 178.339 207.85 181.789C206.417 189.536 202.999 197.04 201.044 196.73C200.046 196.572 197.223 197.276 194.77 198.295C192.317 199.314 188.195 200.147 185.61 200.147C182.895 200.147 180.526 201.158 179.999 202.542C178.561 206.318 176.258 205.335 176.258 200.945C176.258 197.808 175.453 196.955 172.491 196.955C170.419 196.955 167.837 198.032 166.752 199.349C165.667 200.666 163.038 201.744 160.909 201.744C152.749 201.744 139.836 212.431 139.795 219.217C139.761 224.946 137.894 227.457 135.025 225.629C131.251 223.224 130.281 223.781 127.79 229.789C126.188 233.652 123.681 236.221 120.001 237.771C113.883 240.346 107.17 240.761 105.871 238.643Z" fill="#233B77"/>
</svg>
