<svg width="250" height="250" viewBox="0 0 250 250" fill="none" xmlns="http://www.w3.org/2000/svg">
<path d="M177.785 44.3815L178.706 44.2279L179.773 44.0743L181.213 44L182.653 44.1536L184.018 44.3815L184.935 44.8425L185.777 46.012L187.063 46.8793L187.756 47.2658L189.121 48.361L190.262 49.9965L190.486 51.0917L191.254 52.955L191.478 53.8966L192.076 54.6896L193.142 55.0761L194.876 55.4577L196.017 56.3993L196.536 57.1922L196.61 58.3668L196.984 59.239L197.059 60.4878L196.909 61.7366L197.203 63.4464L197.502 64.7795L197.727 66.5635L198.419 69.2149L199.411 70.548L200.552 71.2616H201.618L202.984 71.4153L203.975 71.4896L205.709 72.1785H207L208.141 72.6393L209.058 73.1002L210.349 74.5027L210.717 75.4493L211.485 77.6446L212.327 78.5912L213.025 80.1473L214.684 81.7034L215.451 82.8036L216.368 83.5965L217.509 84.1367L218.65 84.9247L219.248 85.9455L218.949 87.1944L217.734 87.9081L217.041 88.6266L217.415 90.0291L218.182 90.4107L219.622 90.7972L220.688 90.8716L221.904 90.485L222.896 90.5643L224.411 90.7923L225.696 90.9459L226.613 91.8132L227.979 93.3693L228.278 93.9095L228.502 95.4656L229.025 96.0801L229.792 97.101L230.784 97.6362L232 98.5035L231.701 102.79L230.485 104.654L229.195 106.676L228.053 108.078L226.469 108.717L226.095 107.622L225.946 106.527L225.103 105.58L223.594 105.506L221.785 106.834L219.283 108.395L217.694 109.183L214.893 110.744L212.835 110.893L210.329 112.756L208.814 114.312L207.304 115.413L205.939 115.715L203.437 116.176L201.155 116.637L198.13 117.583L197.064 118.832L196.217 121.642L195.923 123.654L195.33 124.987L193.67 126.315L189.878 128.967L187.995 129.274L186.928 128.967H184.646L180.012 130.374L178.203 131.776L177.361 132.649L175.702 135.146L175.328 137.084L175.403 139.433L176.001 141.936L177.291 144.285L178.283 147.655L178.726 150.004L178.358 152.432L176.225 153.602L172.801 153.527L170.225 152.987L168.641 152.12L165.91 151.025L163.777 150.485L160.902 151.025L157.404 152.278L155.446 152.353L154.16 152.893L152.57 154.142L151.354 154.444L149.296 153.83L147.238 152.888L144.887 151.793L143.147 151.481L142.231 152.501L141.463 154.439L141.02 155.921L140.178 157.859L138.812 158.32L137.078 159.653L134.422 161.59L132.688 162.686L132.389 163.781L132.095 165.263L131.871 167.275L132.24 168.756L130.107 174.223L129.738 175.779L129.439 177.979L129.29 180.477V184.075L130.281 185.938L131.497 187.345L130.899 190.225L130.824 192.162L129.609 193.268L128.094 193.416L125.737 193.114L123.928 193.416L121.87 193.57L119.981 193.724L118.023 193.872L116.364 193.57L114.704 193.268H113.862L112.497 193.724L111.057 194.026L108.555 195.968L106.821 197.45L105.68 199.651L103.722 202.604L102.511 204.012L100.552 206.361L98.3449 207L97.8964 205.83L97.8217 205.216L98.2652 203.427V202.178L98.5642 201.39L98.4894 199.368L98.3399 198.501L98.1157 197.708L97.4231 196.078L95.689 194.67L94.0296 192.807L92.739 191.632L91.7474 190.225L90.98 189.055L90.0631 187.648L89.1462 185.071L88.0799 183.589L87.0882 181.879L85.6482 180.938L83.3659 180.63L82.0006 180.328L81.0837 179.074L79.6436 176.19L78.8762 174.252L77.6653 173.945L76.2252 174.733L75.0093 175.987L73.4198 174.277L72.1292 171.7L70.3153 169.123L69.249 168.182L66 165.6L63.942 165.064L63.1746 165.292L61.8093 165.064L60.2197 166.546L59.3028 167.869L58.9291 168.33L57.6385 169.738L56.2731 171.294L55.8246 171.908L54.7583 173.618L53.1687 174.941L51.2104 175.66L49.6257 175.506H47.9664L46.1576 174.639H44.274L42.9883 173.544L41.623 171.343L40.7809 169.787L38.7229 167.21L37.7313 166.417L35.7729 164.227L34.4076 162.031L33.2714 159.682L33.1219 157.482L32.3546 155.133L31.5872 153.958L30.2268 152.169L29.1604 151.53L27.6456 150.435L26.2802 149.642L24.6209 148.012L23.4798 146.758L22.0446 145.048L20.9783 143.566L20.1361 141.857L19 138.967L19.3688 137.946L20.4351 137.005L21.352 136.39L22.1244 135.855L23.116 135.627L24.1076 135.32L24.7803 135.018L25.6274 134.403L26.6191 133.942L27.3865 133.328L28.6771 131.767L29.3697 129.908L29.7385 128.501L30.4112 126.489L30.6354 125.542L30.8596 124.447L31.1586 122.435V120.874L30.6404 119.471L29.9727 118.678L28.8315 118.832L30.1969 116.716L31.1138 115.849L31.9559 114.6L32.6286 113.118L33.695 111.944L35.0553 110.387L36.047 109.594L37.2628 108.98L38.2545 108.678L39.9138 108.906L40.9054 109.134L41.6728 108.752L42.5947 108.038L42.8887 107.245L43.3322 105.843L43.9252 104.589L44.5231 103.871L44.5979 102.929L44.4484 100.813L43.8554 98.9495L43.5564 97.3934V95.3764L43.9301 93.9739L44.5281 92.8786L46.4864 92.5714L47.5528 93.518L48.395 93.8946L50.2785 95.1484L51.2702 96.095L52.9295 96.9623L54.4394 97.1158L55.5805 96.7293L58.2365 95.0939L58.8294 94.9403L60.2695 93.6864L61.8591 93.8401L63.1447 94.1474L64.8041 94.9353L67.0116 95.4012L68.1527 94.1523L69.4433 92.0312L70.5794 90.0935L72.6374 87.8981L74.0775 86.57L76.2103 83.993L76.0658 82.7441L75.2934 80.5488L74.3018 78.839L73.8583 76.822L73.634 74.245L74.8499 73.3777L76.2103 74.017L76.9826 74.5522L77.6504 75.0925L79.0905 74.6315L79.7632 74.1706L80.68 73.6305L81.9657 73.2489L84.1732 72.4609L85.1648 71.9951L85.2395 70.7512L85.8375 69.4181L86.6796 68.4022L87.5218 67.4556L88.7376 66.6627L90.1777 66.0234L90.9451 65.0818L91.3936 64.6209L91.9118 64.165L92.9035 64.3137L94.194 65.5625L95.4847 66.6577L96.7753 68.0652L97.6174 68.8581L99.2767 69.1604L100.787 68.5211L102.152 68.0652L103.368 66.3554L104.808 66.0532L105.944 64.6457L107.16 63.7784L108.525 63.2383L109.741 63.0896L111.326 63.5455L112.018 63.9271L112.786 65.2552L112.268 66.5041L111.495 67.9066L111.052 68.5211L110.608 69.1604L110.459 69.9533L110.902 71.2021L111.276 72.6047L111.794 73.6999L112.163 74.6464L112.462 75.36L113.528 75.8209L115.038 76.0539H116.254L117.395 75.4145L117.913 74.0864L118.212 72.456L118.362 71.663V70.2358L118.736 68.5261L119.578 66.7419L120.569 65.4138L122.229 64.7745L123.146 64.6209L126.718 63.5257L129.962 62.8864L131.627 62.1678H133.435L136.859 61.7911L139.141 61.6375L140.581 61.4839L142.933 60.691L144.074 59.903L144.368 58.6492L145.036 57.2418L146.401 56.9395L149.825 56.0722L151.713 55.8442L154.514 55.3041L156.572 55.3784L158.455 55.532H160.264H161.405H163.294L165.352 55.0761L167.235 54.1345L168.82 52.8857L170.111 51.6318L171.471 50.5366L173.434 48.6733L174.501 47.4194L175.936 45.7097L176.534 45.3232L177.785 44.3815Z" fill="#233B77"/>
</svg>
