<svg width="250" height="250" viewBox="0 0 250 250" fill="none" xmlns="http://www.w3.org/2000/svg">
<path d="M81.3451 246.888C81.3451 245.805 78.8734 243.796 75.8525 242.423C72.8316 241.051 70.3599 238.607 70.3599 236.993C70.3599 235.379 69.4689 234.058 68.3799 234.058C67.2909 234.058 64.3582 230.608 61.8629 226.39C58.6104 220.893 55.778 218.722 51.8587 218.722C47.2707 218.722 46.1521 217.401 44.9019 210.506C44.0826 205.987 41.5661 200.526 39.3098 198.37C37.0534 196.214 35.2073 193.67 35.2073 192.715C35.2073 191.761 32.7356 189.661 29.7147 188.049C23.9995 184.998 22.1603 176.432 26.6292 173.678C28.0002 172.833 28.5179 169.241 27.832 165.333C24.7598 147.829 23.5158 142.941 21.4862 140.403C19.9366 138.465 22.027 133.501 28.6829 123.314C35.7525 112.493 37.4411 108.335 35.5369 106.436C32.4754 103.383 32.2007 94.5957 35.1108 92.8022C36.266 92.0902 38.8104 93.9414 40.7649 96.9161C45.8591 104.669 54.9117 106.013 65.1587 100.536C71.0774 97.3723 77.6619 96.0292 87.2512 96.0292H100.912L103.2 87.8132C104.458 83.2943 105.494 78.0301 105.5 76.1147C105.513 72.5994 114.002 67.547 119.897 67.547C122.195 67.547 123.089 64.9004 123.089 58.0976C123.089 50.4584 124.351 47.4421 129.68 42.3511C133.305 38.8877 136.271 34.8803 136.271 33.4458C136.271 32.0113 137.754 29.6102 139.567 28.1101C141.379 26.61 142.862 22.1618 142.862 18.2253C142.862 14.2888 144.807 8.74047 147.183 5.89569C152.41 -0.360967 152.473 0.0523463 148.362 13.5679C144.123 27.5012 147.359 42.8389 154.937 44.7358C157.66 45.4172 161.028 48.4714 162.422 51.5229C164.756 56.6314 165.736 56.9547 174.782 55.602C181.17 54.6467 184.606 54.946 184.606 56.458C184.606 57.7368 183.123 58.7833 181.31 58.7833C179.498 58.7833 178.015 59.8738 178.015 61.2066C178.015 62.5395 175.543 65.5688 172.522 67.9384C163.39 75.1019 167.041 92.4429 176.888 88.6747C178.716 87.9753 180.212 88.2757 180.212 89.3425C180.212 90.4093 179.092 91.6544 177.723 92.1094C172.925 93.7042 177.956 102.602 183.655 102.602C187.896 102.602 189 103.737 189 108.098C189 113.108 188.586 113.35 184.319 110.837C180.579 108.634 179.438 108.63 178.643 110.818C178.096 112.324 175.259 113.557 172.339 113.557C167.904 113.557 167.03 114.64 167.03 120.13C167.03 125.68 167.884 126.702 172.522 126.702C175.94 126.702 178.015 127.944 178.015 129.989C178.015 131.796 179.251 133.338 180.761 133.414C182.272 133.491 181.283 134.445 178.564 135.534C175.845 136.624 173.621 139.115 173.621 141.069C173.621 144.999 181.944 152.806 186.254 152.921C190.763 153.04 189.362 157.691 184.429 158.978C181.217 159.815 180.186 161.423 180.963 164.384C181.607 166.841 180.764 169.097 178.943 169.794C177.224 170.452 175.818 172.672 175.818 174.729C175.818 176.967 172.733 179.674 168.128 181.476C159.692 184.777 158.564 188.787 163.925 196.419C166.703 200.374 166.866 202.037 164.73 204.604C163.256 206.375 160.487 207.565 158.577 207.248C156.501 206.904 153.717 209.551 151.657 213.829C149.169 218.994 147.542 220.322 145.815 218.599C141.903 214.698 128.585 216.944 128.561 221.509C128.549 223.644 125.336 228.378 121.42 232.027C117.505 235.676 114.301 239.598 114.301 240.742C114.301 241.886 112.521 242.822 110.346 242.822C108.171 242.822 105.452 243.688 104.304 244.746C101.396 247.427 81.3451 249.297 81.3451 246.888Z" fill="#233B77"/>
</svg>
