<svg width="250" height="250" viewBox="0 0 250 250" fill="none" xmlns="http://www.w3.org/2000/svg">
<path d="M141.059 198.636L141.496 188.18L146.714 180.841L145.642 174.52L142.534 167.181L141.461 156.638L136.324 150.41L143.607 138.878L148.743 131.534L153.962 122.095L150.86 117.966V109.546L151.845 103.312L156.026 104.242L164.346 113.768L174.73 116.885L186.076 109.54L200.612 107.447H208.944H217.182L220.29 93.7865V85.366L230.674 81.2371L239 79.1378V70.723L237.402 61.942L235.111 62.6631L232.441 63.5936L230.033 63.7738L226.12 63.5936L224.086 63.9541L218.955 62.2153L217.013 60.651L216.669 59.4588L216.407 56.9758L215.072 54.9695L212.576 53.3179L210.46 51.8525L208.168 50.7476L207.474 50.0265L205.62 47.6597L204.372 44.9032L203.037 44.153L200.921 44.5136L199.673 43.8797L198.344 41.6059L196.571 39.3321L195.149 38.6983L193.376 39.245L192.391 40.1696L190.968 41.1L190.362 40.1696L188.764 40.6174L187.697 39.809L186.449 39.1751L184.939 38.3669L183.173 37.8318L180.677 38.0121L179.167 37.6458L177.832 38.8437L177.138 41.6874L176.613 44.0542L176.526 46.421L175.191 45.3161L173.686 42.9435L171.278 40.7628L170.754 39.652L168.258 38.0935L165.675 37.0758H163.815L160.189 36.7153H157.781L155.839 36L155.495 36.9246L153.898 39.4136L152.825 42.4376L152.475 45.0195L153.175 47.2933L154.597 48.311L156.539 49.8694L158.224 51.6082L158.918 53.1667L158.83 55.8359L158.918 57.2141L157.32 60.9592L156.335 61.4942L155.087 64.2507L154.912 67.0071L154.825 69.3739V71.7407L155.169 72.6654L154.65 73.6889L152.621 73.7761L149.082 74.881L147.752 75.6021L146.33 76.3523L144.207 76.7128L142.091 76.3523L140.761 75.8114L138.464 74.439L136.523 73.5958H134.756L133.333 74.1309L131.736 73.5028L131.036 73.055L129.788 71.4035L127.293 67.9317L125.433 65.5591L124.652 64.8438L121.725 62.0874L118.798 59.7264L115.346 57.8946L112.507 56.2489L110.39 55.1381L106.764 53.1318L104.093 50.9453L101.802 49.6601L101.714 51.8466L101.452 54.7834L101.37 55.5335L100.123 60.651L100.385 62.8375L101.545 63.768L102.618 65.7743L101.37 67.3328L99.7728 68.711L99.6912 70.0834L98.2685 72.5723L95.6856 73.2934L93.0152 73.9273L92.1173 73.654L90.6947 74.4042L88.7531 75.6951L86.8115 77.7014L84.695 80.9987L83.9954 82.0163L83.2141 83.6679L81.704 84.7728L80.3746 83.3887L78.6896 81.9233L77.092 82.0978L75.8443 83.3829L74.4216 85.5695L72.7366 88.3259L71.314 90.1577L70.2412 92.7339L68.5561 96.479L68.2122 98.9679L67.8623 101.637L67.4308 105.016L67.1685 107.388L66.5621 110.145L66.2997 112.151L64.8771 113.977L62.5857 116.553L60.819 119.135L58.1487 122.613L55.8573 124.974L50.7206 125.695L47.1873 125.154L47.2747 137.971H38.9487L28.5646 140.158L26.5355 147.496L12 159.028L29.6374 162.145L45.1582 169.478L59.6937 173.7L70.0837 171.607L79.3951 162.168L88.7939 159.057L95.0034 164.181V173.706L97.0325 182.039V190.361L100.14 197.7L101.994 214L106 212.982L108.204 212.709L111.48 212.081L113.888 212.168L116.098 212.348H118.215H119.55H121.754L124.162 211.814L126.366 210.703L128.307 209.243L129.73 207.772L131.328 206.487L133.619 204.3L134.867 202.835L136.552 200.828L137.251 200.375L138.849 199.177L139.922 199.002L141.059 198.636Z" fill="#233B77"/>
</svg>
