<svg width="250" height="250" viewBox="0 0 250 250" fill="none" xmlns="http://www.w3.org/2000/svg">
<path d="M98.4637 203.402L113.173 193.262L119.628 200.406L128.701 202.264L145.911 196.854L161.446 193.254L171.502 181.381L174.12 188.651L176.038 204.978L185.111 209.55L194.183 198.681V185.114L190.465 174.253L196.919 171.548L195.001 165.972L188.664 157.817L189.6 147.795L198.68 140.643L200.481 131.515V116.929L197.737 103.354L193.201 96.2026L200.481 92.4856L206 67.0308L195.944 65.2977L190.425 56.1697L181.353 60.6161L169.505 56.1697L155.267 45.0656L152.994 44.8225L150.258 43.5756L149.551 42.4464L146.807 40.3447L144.661 38L142.978 38.8469L141.65 41.3093L140.706 43.2854L139.267 45.1362L136.995 45.9909L134.841 46.2262L130.659 46.4693L127.058 45.9909L123.229 45.7478L118.339 45.5047L116.067 45.0264L111.177 47.2456L109.494 50.1942L108.559 53.1427L107.969 57.8322L104.722 57.346L101.121 55.7306L99.0848 54.4759L98.8489 52.6173L98.1492 49.9119L98.2672 46.728L99.8317 41.7955L99.242 40.0624L97.6775 39.4586L92.1584 39.0979L89.3045 41.0819L87.5041 44.5559L87.1503 46.9006L86.9145 48.516L83.8247 48.1553L80.2239 48.767L77.4879 49.4884L72.0868 49.8492L68.6039 50.2099H65.3569L61.7561 50.453L58.9022 52.6722L53.7762 55.8639L49.5858 59.3378L45.5132 62.5374L43.7128 65.4859L39.5224 69.4461L37.6041 72.92L36.9044 74.6609L37.2581 77.3664L37.6119 79.5856L38.5554 81.5696L38.6733 83.4282L36.4012 93.0345L33.1542 97.8495L31 100.79L32.3287 102.045L32.4466 104.029L32.5724 108.718L32.9262 112.192L33.3901 115.674L35.0725 117.164L36.755 118.897L38.6733 119.909L41.2913 121.885L41.4093 123.14L42.2269 125.845L42.9345 129.029L44.1452 131.005L46.2994 132.989L47.9819 134.722L49.2005 135.208L51.9365 137.553L53.9649 139.89L55.1756 141.145L58.4226 145.348L60.223 148.289L61.3158 152.006L60.6161 156.452L59.0516 159.393L57.1332 163.235L55.1049 165.337L52.361 168.693L49.625 171.767L46.1422 175.61L44.2317 178.19L43.021 181.907L43.1389 184.855L43.7286 188.204L45.2931 190.549L46.7397 192.525L48.658 193.779L50.4584 195.748L53.1944 200.194L53.784 202.9L54.8376 206.083L57.5735 211.016L60.9463 213H63.9181L67.401 210.051L69.5473 207.824L70.7659 206.452L75.3023 205.48L78.6672 204.75L82.5039 205.762L85.4757 205.887H88.4475L90.4759 204.39L92.7481 202.9L94.4305 202.656L96.3488 202.413L98.4637 203.402Z" fill="#233B77"/>
</svg>
