<svg width="250" height="250" viewBox="0 0 250 250" fill="none" xmlns="http://www.w3.org/2000/svg">
<path d="M74.3474 180.662L72.6223 175.696L66.924 168.433L67.7653 159.507L75.9311 153.137L77.5501 145.007V132.016L75.0897 119.927L71.0104 113.557L77.5501 110.246L82.5061 87.5892L73.4637 86.0456L68.5006 77.9159L60.3419 81.876L49.6874 77.9159L36.8767 68.0261L37.5059 67.3766L37.407 64.967L36 62.9835L36.1061 60.1478L37.7251 55.5382L38.0432 53.9947L39.132 50.6841L40.956 47.8415L42.9993 48.7424L44.3002 51.2638H47.4321L48.9451 49.392L47.7503 46.2979L46.0323 44.1048L43.3528 42.7779L42.5114 40.5848L42.1933 37.0577L42.3064 33.9567L43.2538 31.6588L45.9262 30.8975L48.8461 30.681L51.766 29.9267L53.9082 30.248L56.2625 32.015H58.5178L58.836 30.248L58.942 29.1305L59.048 26.0364L60.561 22.9424L60.8791 20.5328L61.5084 17.5435L63.1274 16L64.5343 17.8718L64.8525 22.3697L67.2138 23.8085L70.975 24.2415L72.594 25.359L72.9122 28.1946L72.283 29.7381L71.5477 31.9312L71.6538 33.9078L71.3356 35.8913L72.4244 38.8806L72.8486 39.8514L77.8117 35.7866L80.0599 33.0487L80.4841 28.8721V26.246L81.0144 23.8364L81.8557 21.6363L82.3789 20.1976L83.0151 18.3258L83.4394 16.9988L86.4653 17.8648L87.5611 17.5366L88.2964 18.2909L90.4456 20.2744H91.287L92.0223 20.4909L93.4292 22.251L93.2171 24.451L96.243 25.1006H97.0914H99.4457L102.012 25.3171L104.48 26.1761L105.78 25.2053L107.505 25.3171L109.337 25.8548L111.274 26.3996L113.317 26.6162L116.555 26.3996L117.644 25.0656L119.369 25.3939L122.918 27.0492L125.838 26.0434L126.156 27.6917L127.775 26.4695L128.404 26.0434L129.493 26.693L131.536 27.559L133.155 26.693L134.35 25.4707H136.068L137.475 25.6872L138.882 24.1367L141.024 24.3532L143.06 22.3767L146.192 24.032L149.211 24.2485L152.555 24.7863L155.228 23.2357L158.777 22.3697L162.432 20.6096L164.369 19.2756L166.624 19.1709L168.236 17.2991L169.332 17.1873L170.739 19.6039L173.411 21.6852L177.908 24.4231L180.474 26.7209L183.924 29.1305L187.163 30.8905L190.294 32.4341L192.861 33.9846L195.533 35.9612L197.364 36.1777L199.719 35.9612L200.921 35.4164L203.063 35.0951L205.735 37.0786L209.716 40.6057L212.282 42.3658L213.017 44.4541L214 46.7589L213.477 49.1685L212.176 51.3616L210.981 53.0168H208.521L206.485 53.7711L204.654 55.3216L205.177 57.7312L205.707 61.2583V63.6749L202.575 65.3302L200.532 64.2127L198.701 62.3409L195.922 61.9078L192.684 61.7961L191.489 57.2982L190.401 53.5616L188.463 50.0345L187.163 49.1685L183.924 51.4733L179.173 56.1877L178.537 58.1643L179.626 62.3409L181.033 66.6222L181.132 69.8281L183.175 73.7812L183.917 76.8752L181.132 80.6188L177.265 81.9458L177.795 86.5555L177.265 92.4921L176.282 96.3405L175.858 99.5393L173.928 100.294L173.185 100.831L172.238 101.481L170.831 102.92L167.593 104.358L164.461 105.902L162.637 108.752L162.743 113.354L163.061 117.426L163.584 119.514L165.097 119.619L167.558 118.858L168.858 118.537L170.796 118.858L173.574 120.408L173.468 123.146L176.388 124.152L179.308 125.269L181.033 127.358L183.599 129.984L185.317 132.966L184.228 138.03L180.99 140.118L180.248 140.439L179.4 144.616L181.337 150.874L181.443 153.5L182.39 156.482L183.239 160.443V162.426L184.08 165.953L185.169 167.93L186.151 171.24L186.47 173.433L187.459 175.633L189.071 177.61L190.796 180.131L192.104 182.22L193.299 184.629L193.928 185.383L195.017 186.927L195.54 188.261L195.859 189.267V191.034L195.01 193.227L192.974 193.667L190.408 194.309L187.622 194.959L183.755 196.614L181.924 198.053L179.987 199.024L178.375 201.322L178.792 203.948L181.259 205.387L183.408 207.258L183.939 209.884L183.408 212.978L180.382 213.991L178.028 215.423L176.515 217.183L174.055 218.196L169.763 217.183L167.614 216.973L166.631 219.963L164.164 219.641L162.552 219.746L161.145 220.752L157.695 223.378L155.871 225.788L155.553 228.637L153.198 229.392L151.686 231.047L149.119 232.374L148.271 235L143.873 234.783L141.83 233.561L138.387 233.345L135.707 234.679L131.522 225.648H119.242L111.076 229.706L100.421 228.058L97.961 221.576L96.342 216.757L83.2202 212.797L71.8234 204.667V192.577L68.4864 182.904L74.3474 180.662Z" fill="#233B77"/>
</svg>
