<svg width="250" height="250" viewBox="0 0 250 250" fill="none" xmlns="http://www.w3.org/2000/svg">
<path fill-rule="evenodd" clip-rule="evenodd" d="M96.6279 35.0029C96.5804 34.9982 96.5302 34.9991 96.4767 35.0064C96.1071 35.0453 95.5237 36.875 95.2514 37.2643C94.8234 37.9067 95.3096 37.5758 95.6792 37.9067C96.9631 38.8605 94.4538 38.919 93.9675 38.919C94.0647 38.919 93.6365 40.6318 93.5393 40.7876C93.3253 41.2353 92.8974 41.7025 92.4695 41.8193C92.0804 41.9166 91.5941 41.6054 91.4385 42.131C91.3412 42.5203 91.7109 42.6761 91.8081 43.007C92.0416 43.6494 91.3801 44.3306 91.0688 44.8756C90.8549 45.2455 90.5826 45.732 90.2714 46.063C90.0379 46.3744 89.61 46.8612 89.2404 46.9196C88.8124 46.9196 88.5014 46.5495 88.0151 46.4911C87.5871 46.4327 87.3146 46.4914 87.0422 46.764C86.6143 47.0754 86.5169 47.3478 85.9139 47.4452C85.1747 47.6204 84.4162 47.5618 83.6576 47.6202C83.4047 48.0485 83.5603 48.691 83.0157 49.1193C82.5293 49.4891 81.9458 49.1778 81.4595 48.9636C80.9926 48.7495 80.4481 48.574 79.8645 48.4183C79.4366 48.3209 79.3779 48.3212 79.0472 47.9319C78.736 47.6205 78.522 47.1919 78.0356 47.1335C77.666 47.1335 77.3939 47.4062 77.0632 47.4452C76.1101 47.6593 75.293 47.0752 74.3787 47.2309C73.7368 47.4061 73.0365 47.6204 72.5696 48.0876C72.3946 48.2628 72.3558 48.535 72.1418 48.6908C71.8111 48.9049 71.5388 48.7882 71.2276 48.905C70.7365 49.0454 70.387 49.6269 69.8526 49.6262C69.8653 49.6507 69.8765 49.6759 69.8851 49.7031C69.9824 50.034 69.2825 49.8199 69.2436 49.8199C68.9129 49.7031 68.4262 49.8784 68.0566 49.9173C67.6287 49.9173 67.2981 50.2482 66.8701 50.3066C66.5589 50.3066 66.2282 50.949 66.0726 50.8322C65.5863 50.6765 65.2749 50.7931 64.8275 51.0073C64.4579 51.163 64.2442 50.579 64.0886 50.3649C63.5439 50.7931 64.2443 51.7473 64.4583 52.0782C64.6722 52.3507 64.9443 52.7204 64.9443 53.0319C65.0026 53.3044 64.8861 53.6354 65.0028 53.9079C65.1585 54.2194 65.3139 54.3362 65.5862 54.5503C65.7418 54.7061 65.4307 54.9786 65.4307 55.1927C65.489 55.8351 65.8587 55.8348 66.17 56.3215C66.384 56.6913 66.3448 57.178 66.5005 57.6063C66.6561 58.1902 66.559 58.8912 66.8313 59.4752C67.0453 59.9035 67.2981 60.3316 67.512 60.8182C67.6871 61.2075 67.6289 61.6357 67.8429 62.0056C68.0569 62.3754 68.1151 62.8621 68.2707 63.2904C68.3291 63.4461 68.543 63.5629 68.543 63.2904C68.4847 63.0763 68.4263 62.979 68.4263 62.7454C68.4263 62.3756 68.757 62.6481 68.8153 62.8622C68.9126 63.1348 68.8544 63.4462 68.7571 63.7771C68.6988 64.0497 68.4846 64.4778 68.5818 64.7308C68.6402 64.9644 68.9125 64.906 68.9709 65.1201C69.1848 65.7041 69.3991 66.2492 69.7687 66.7748C70.1383 67.3199 70.0407 68.1179 70.527 68.6046C71.0134 69.0328 71.4416 69.0912 71.3249 69.7919C71.2277 70.2202 71.5971 70.5319 71.7528 70.8629C71.9084 71.1743 72.6086 71.9917 72.8225 71.1742C72.8809 70.96 72.7838 70.7071 72.8811 70.493C73.0367 70.2788 73.3091 70.2202 73.523 70.045C73.951 69.792 74.437 69.6171 74.9233 69.3056C74.9816 69.3056 75.2345 68.9745 74.9233 68.9745C74.651 68.9745 74.4957 69.2472 74.165 69.1888C74.0677 69.033 76.149 67.8454 76.2658 68.6046C76.3241 68.9355 75.5652 69.4026 75.4485 69.6751C75.2345 70.2202 75.6628 70.5902 75.9935 70.9211C76.4798 71.3883 76.2074 71.8167 75.8767 72.3033C75.5071 72.9067 74.9819 72.8483 74.4373 73.2182C73.8926 73.588 73.5812 74.133 72.8225 73.7631C72.3557 73.4906 72.2391 73.0041 71.5972 73.2182C71.5389 73.5491 71.8109 73.8606 71.8109 74.2499C71.8109 74.5613 71.8111 74.8921 71.7528 75.2036C71.7528 75.5345 71.6942 75.9045 71.8109 76.1771C71.9082 76.3912 72.1224 76.4493 72.2392 76.6634C72.3559 76.9165 72.1806 77.2476 72.2973 77.5201C72.3557 77.7342 72.5113 77.89 72.5696 78.1625C72.7252 78.6491 73.1531 79.0773 73.3671 79.6029C73.4255 79.817 73.6398 80.0312 73.6398 80.2453C73.6398 80.5178 73.4257 80.7318 73.4257 81.0628C73.4646 81.4326 74.0677 82.0168 74.4373 82.0168C75.1376 82.0168 74.9818 82.4449 75.1374 82.9899C75.1958 83.3209 75.293 83.6908 75.4097 84.0022C75.507 84.5473 75.6238 84.8785 75.8767 85.3456C76.1101 85.7739 76.0516 86.2019 76.2072 86.5912C76.7518 88.0901 77.0049 89.5891 77.4329 91.088C77.6469 91.9056 77.822 92.7038 77.9193 93.5019C77.9193 94.2027 78.1331 94.9034 78.0942 95.6042C78.0942 96.1881 78.133 96.7914 78.775 96.9472C79.4169 97.0445 79.5337 96.402 79.9033 96.0905C80.3312 96.3046 81.8873 96.7913 82.1596 96.0905C82.2763 95.818 80.6035 95.2732 80.3311 95.2342C79.9615 95.1174 79.4752 94.6892 79.9615 94.3194C80.3311 93.9884 80.0785 93.5601 80.3897 93.1902C80.9344 92.5478 80.9343 91.6916 81.5762 91.0492C81.4595 91.4774 81.4593 92.0029 81.2454 92.3922C81.0897 92.762 80.8761 93.0344 80.7594 93.4627C80.6621 93.8326 80.4481 94.2024 80.5065 94.6307C80.5454 94.9616 81.0897 95.4871 81.4009 95.5455C81.7899 95.6039 82.1599 95.1756 82.5878 95.1756C83.0741 95.1172 83.4436 95.1758 83.9299 95.3899C84.4162 95.6624 84.6884 96.0325 85.272 95.9741C85.6416 95.9741 85.9723 95.9737 86.2836 95.818C87.3145 95.3314 86.556 94.6307 86.8867 93.8326C87.2563 92.762 88.2287 92.8203 89.0263 93.3459C89.7265 93.8909 91.0105 93.56 91.594 94.2607C91.7691 94.4165 92.0222 94.9619 91.6526 95.0592C91.283 95.176 90.7965 95.0199 90.4269 94.9031C90.0378 94.7474 89.6099 94.5919 89.143 94.6893C88.6956 94.845 88.4818 95.3317 88.1706 95.721C87.4703 96.4607 86.7115 97.3169 86.2836 98.2902C85.8556 99.2051 86.342 100.217 85.8557 101.132C85.6028 101.677 84.8441 103.059 84.0854 102.904C83.6575 102.845 83.288 102.631 83.0157 102.32C82.8017 102.047 82.5292 101.892 82.1596 101.989C81.79 102.145 82.0624 102.476 82.2764 102.631C82.7043 102.904 82.9573 103.118 83.2879 103.488C83.5603 103.819 83.9298 103.974 84.2022 104.305C84.5134 104.558 84.4163 105.045 84.7859 105.318C84.9999 105.473 85.6029 105.59 85.3305 105.162C85.1555 104.89 85.0583 104.734 85.1556 104.403C85.5446 104.403 86.1282 104.344 86.4589 104.247C86.8285 104.13 86.9839 103.877 87.4119 104.033C87.8399 104.247 88.326 104.13 88.754 104.403C89.143 104.559 89.5127 104.52 89.8823 104.52C90.641 104.52 91.3413 104.734 91.9249 105.22C91.9833 105.22 92.5668 105.746 92.5668 105.376C92.5668 105.006 92.8392 104.889 92.9365 104.617C93.3255 104.558 93.7534 104.558 94.123 104.558C94.3954 104.617 94.3951 104.889 94.4535 105.045C94.5508 105.376 94.6674 106.232 94.9787 106.446C95.3483 106.661 96.1654 107.206 96.107 107.673C96.0487 108.335 96.1655 109.075 96.3211 109.717C96.5351 110.69 98.3635 109.133 98.9471 109.62C99.375 109.989 99.8031 109.873 100.348 109.873C100.834 109.873 100.931 110.32 101.301 110.359C101.087 109.561 99.492 109.834 99.6476 108.919C100.29 108.802 100.873 109.347 101.359 109.775C101.787 110.106 102.215 110.749 102.487 111.177C102.76 111.702 102.915 112.462 103.499 112.676C103.985 112.89 104.413 113.162 104.958 113.162C105.386 113.104 105.756 113.162 106.145 113.162C106.514 113.162 106.358 112.987 106.456 112.773C106.67 112.189 106.825 112.306 106.242 111.858C105.969 111.702 105.931 111.43 106.028 111.177C106.086 111.06 106.397 110.69 106.456 110.904C106.611 111.216 106.826 111.761 107.156 111.333C107.253 111.216 107.798 110.749 107.798 111.002C107.798 111.119 107.253 111.917 107.856 111.761C108.168 111.644 108.557 111.216 108.596 110.904C108.654 110.573 108.712 109.989 108.926 109.775C109.685 108.86 110.696 108.549 111.766 108.277C112.136 108.16 112.681 108.101 112.739 107.634C112.739 107.245 112.622 106.778 112.68 106.33C112.68 106.933 113.225 107.517 112.836 108.16C112.525 108.802 111.241 108.763 110.638 109.075C109.685 109.503 109.724 110.048 109.296 110.963C108.926 111.644 108.381 112.52 108.556 113.318C108.809 113.377 109.023 113.746 109.296 113.805C109.568 113.863 109.724 114.019 109.996 114.077C110.852 114.174 111.708 114.233 112.525 114.447C112.953 114.544 113.653 114.72 113.964 115.148C114.013 115.214 114.037 115.279 114.052 115.345C114.079 115.415 114.102 115.498 114.12 115.615C114.12 115.714 114.092 115.875 114.082 116.025C114.106 116.119 114.15 116.216 114.237 116.316C114.328 116.407 114.413 116.512 114.493 116.625C114.517 116.646 114.542 116.672 114.567 116.705C115.005 117.144 115.035 117.704 115.011 118.285C115.058 118.623 115.2 118.915 115.151 119.275C115.151 119.645 115.034 120.034 115.034 120.404C115.034 120.45 115.143 121.225 115.025 121.364C115.028 121.42 115.032 121.478 115.034 121.533C115.579 121.572 116.065 121.747 116.551 121.786C117.135 121.786 117.719 121.747 118.322 121.786C119.333 121.903 120.033 122.876 120.559 123.732C120.831 124.219 120.948 124.472 121.531 124.589C121.862 124.648 121.959 124.589 122.173 124.745C122.329 124.803 122.543 125.076 122.718 125.173C123.632 125.932 124.313 126.244 124.372 127.489C124.43 128.015 124.274 128.657 124.372 129.202C124.488 129.631 124.702 130.117 124.858 130.604C125.169 131.616 125.227 132.862 125.344 133.933C125.441 134.672 125.772 135.101 126.511 135.276C127.542 135.49 128.126 135.217 129.04 134.848C129.41 134.672 130.013 134.4 130.382 134.4C131.394 134.4 131.355 135.431 131.938 135.957C132.366 136.288 132.736 135.957 133.164 135.957C133.65 135.918 133.981 136.074 134.351 136.171C135.148 136.405 135.79 136.833 136.607 137.086C136.607 137.69 136.549 138.819 136.821 139.286C136.977 139.617 137.191 139.714 137.307 140.045C137.405 140.532 137.093 141.018 137.56 141.232C137.891 141.33 138.533 141.057 138.864 140.902C139.447 140.688 139.603 141.116 140.031 141.602C140.206 141.875 140.517 142.4 140.789 142.517C141.314 142.731 141.8 142.459 142.345 142.673C142.656 142.186 142.832 141.661 143.084 141.174C143.474 140.629 144.115 140.103 144.388 139.5C143.843 139.033 142.929 138.39 142.871 137.631C142.832 137.047 143.26 136.347 143.084 135.743C142.618 135.743 141.529 134.731 141.315 134.303C141.101 133.933 141.276 133.874 141.49 133.504C141.703 133.173 141.801 132.842 141.976 132.589C142.559 131.402 143.046 130.215 143.571 129.047C143.785 128.56 144.485 127.859 144.427 127.275C144.388 127.003 144.057 126.789 143.999 126.458C143.96 126.205 143.96 125.815 143.999 125.543C144.057 125.076 144.427 124.316 144.213 123.771C143.999 123.304 143.298 122.973 143.084 122.448C142.987 122.175 143.143 121.786 143.084 121.572C142.87 120.832 142.19 121.046 141.587 121.046C141.529 120.715 141.645 120.462 141.742 120.19C141.645 120.131 141.528 119.976 141.49 119.917C141.801 119.917 142.443 120.19 142.229 119.547C141.801 119.547 141.275 119.586 140.886 119.489C140.847 118.944 140.945 118.302 140.848 117.718C140.361 117.815 139.719 117.562 139.33 117.289C138.961 116.919 139.077 116.861 138.591 117.133C138.319 117.231 138.319 117.562 137.949 117.503C137.735 117.445 138.475 116.257 138.475 116.102C138.319 115.615 137.618 115.732 137.774 114.934C137.988 113.591 139.447 113.532 140.459 112.987C140.886 112.773 141.314 112.501 141.859 112.345C142.287 112.189 142.773 112.131 143.143 111.761C143.571 112.131 143.96 112.403 144.427 112.715C144.972 113.046 145.186 113.416 145.458 112.676C145.944 111.547 146.1 110.087 147.267 109.561C147.87 109.289 148.512 108.86 149.154 108.86C149.484 108.802 149.698 108.919 150.01 108.919C150.496 108.919 150.496 108.861 150.865 108.53C151.352 108.101 151.721 107.634 152.363 107.459C153.92 107.089 155.378 107.303 156.935 107.089C157.849 106.972 158.763 106.505 159.347 105.863C160.047 105.162 160.572 104.189 161.331 103.605C161.603 103.332 161.817 103.39 162.128 103.274C162.731 103.001 163.315 102.573 163.743 102.145C164.054 101.872 164.327 101.716 164.657 101.502C165.396 101.074 166 100.704 166.7 100.276C167.439 99.8867 168.139 99.4582 168.839 99.03C169.968 98.3876 171.193 97.8622 172.438 97.4339C172.438 97.3171 172.438 97.2588 172.477 97.1614C172.594 96.558 172.905 95.4871 173.391 95.1756C173.78 94.9031 174.422 94.7866 174.792 94.5724C175.317 94.3194 175.862 94.0469 176.348 93.7744C176.834 93.5019 177.418 93.4044 177.69 92.8009C177.904 92.2753 177.749 91.7886 178.118 91.263C178.916 90.134 178.605 89.4723 178.118 88.3628C177.904 87.7593 177.748 87.2725 177.535 86.7469C177.262 86.1629 176.834 85.8321 176.29 85.287C175.804 84.8588 175.064 84.1191 175.064 83.4767C174.305 83.3599 173.878 83.6323 173.294 83.2624C172.691 82.8342 172.594 82.7759 171.894 82.7175C171.407 82.7175 170.979 82.6203 171.407 82.1337C171.621 81.8028 171.893 81.8026 172.049 81.5301C172.263 81.316 172.438 80.8877 172.438 80.6346C172.477 80.2453 172.224 80.1868 172.438 79.7586C172.652 79.4471 173.022 79.1161 173.294 78.8631C173.722 78.318 174.247 77.8315 174.461 77.1308C174.636 76.6052 174.52 75.9627 174.52 75.3592C174.578 74.7169 174.792 74.2303 174.947 73.6463C175.22 72.8482 175.22 72.5174 174.578 71.9334C174.033 71.3883 173.936 70.6876 173.022 70.9017C172.691 70.9601 172.535 71.1742 172.224 71.1742C171.251 71.1742 171.563 70.3176 171.738 69.7725C171.894 69.4027 171.893 68.9744 171.952 68.6046C172.049 67.7481 172.263 66.9305 172.477 66.1324C172.594 65.8015 172.905 65.276 172.866 64.9451C172.808 64.3027 172.438 64.4779 171.952 64.3027C171.251 64.0886 171.68 64.0884 171.466 63.446C171.252 62.9594 170.765 63.1347 170.337 63.0179C170.454 62.5312 170.668 61.8888 169.851 62.0056C169.579 62.0445 168.684 62.6481 168.626 62.8622C168.139 62.9596 167.984 62.1614 167.342 62.3755C166.739 62.5312 166.7 63.1347 166.039 63.2904C165.825 63.8744 166.952 64.2052 166.914 65.0033C165.669 65.2174 163.159 67.0474 163.159 64.692C163.159 64.2443 163.529 63.9327 163.471 63.5629C163.471 63.0762 163.043 63.0181 162.615 62.9597C162.187 62.9207 161.856 62.9595 161.486 62.8622C161.117 62.7065 160.747 62.3171 160.3 62.2587C160.261 61.7331 160.261 61.5192 160.047 61.1493C160.358 60.6043 161.273 60.3318 161.117 59.5921C160.747 59.4169 160.358 59.4167 159.989 59.3778C159.444 59.3194 159.191 59.047 158.705 59.3196C158.063 59.6894 157.576 60.39 156.935 60.8182C156.545 61.0908 156.662 60.8766 156.545 61.4606C156.448 62.0057 156.079 62.5897 156.02 63.1347C155.904 63.7771 156.118 64.4196 155.592 64.7894C155.262 65.0036 155.009 64.8477 154.736 64.9451C154.347 65.0619 154.309 65.1593 154.134 65.4318C153.453 66.4635 153.336 65.4902 152.48 65.4318C151.897 65.3734 151.293 65.7042 150.71 65.86C150.068 66.0351 149.523 66.0351 148.881 65.86C148.667 65.7626 148.356 65.5486 148.084 65.4318C146.897 65.1593 146.839 66.0353 145.886 66.4635C145.341 66.7166 144.699 66.6775 144.115 67.0473C143.512 67.4172 143.084 67.5342 142.443 67.7483C141.801 67.904 141.276 68.2347 140.673 68.4878C139.603 68.9744 138.377 69.6754 137.191 69.8312C136.004 70.0063 134.895 70.4347 133.709 70.5904C132.639 70.7461 131.608 70.7461 130.538 70.8629C129.157 71.0186 129.409 72.673 128.612 73.3738C128.184 73.8021 127.6 74.0163 126.9 73.8606C126.511 73.8022 126.414 73.4907 126.083 73.335C125.869 73.1598 125.441 73.0623 125.188 73.0039C124.585 72.8482 123.885 72.9455 123.243 72.8871C122.232 72.7897 121.473 72.0307 120.89 71.291C120.131 70.4345 119.606 69.9478 118.419 69.6169C117.446 69.4028 117.446 68.488 116.921 67.7483C116.59 67.3201 116.124 66.9307 116.124 66.3467C116.124 65.8016 116.435 65.3345 116.766 64.9063C117.232 64.0887 117.719 63.3489 117.408 62.4729C117.018 61.5191 116.649 60.6626 116.707 59.6309C116.804 58.0347 116.337 55.3485 114.237 55.4458C113.595 55.4458 113.381 55.5041 112.836 55.2315C113.108 54.959 113.537 55.0757 113.751 54.7448C114.023 54.4917 114.178 54.0636 114.237 53.6743C114.295 53.246 114.353 52.9736 114.451 52.6037C114.606 52.0198 114.451 51.9027 114.023 51.5328C113.478 51.1046 113.05 50.404 112.953 49.6448C112.894 49.4307 113.011 49.2166 112.953 49.0025C112.739 48.2043 112.525 47.4061 112.038 46.7054C111.552 46.063 110.969 46.1018 110.21 46.1018C109.568 46.1018 108.926 46.2186 108.284 46.1018C107.856 46.1018 107.798 46.1018 107.487 45.8487C107.214 45.5762 106.942 45.0897 106.514 45.1481C105.814 45.2454 105.755 46.2772 104.9 46.2772C104.316 46.2772 103.771 45.849 103.246 45.6348C102.974 45.518 102.857 45.5764 102.546 45.518C102.118 45.4207 101.573 45.2067 101.087 45.0899C100.717 44.9925 99.9198 44.8755 99.7058 44.5057C99.5891 44.2916 99.5501 43.3768 99.589 43.1627C99.6474 42.676 100.192 42.3059 100.192 41.8193C100.192 41.5468 99.978 41.4886 100.017 41.2355C100.134 40.8462 100.503 40.9628 100.659 40.7876C101.262 40.262 100.62 40.0479 100.134 39.6196C99.7057 39.2887 99.1611 39.0164 99.3167 38.374C98.9472 38.2767 98.636 37.9456 98.247 37.7899C98.2081 36.9918 98.6358 36.2911 98.4607 35.4345C98.1494 35.4345 97.7802 35.4737 97.4495 35.3763C97.1601 35.3252 96.96 35.0353 96.6279 35.0029ZM62.7291 48.3292C62.4301 48.3346 62.1091 48.4331 61.8319 48.4769C61.5992 48.5259 61.3062 48.5266 61 48.5189C61.3252 48.8422 61.6085 49.1658 61.9487 49.4892C61.9876 49.606 62.4739 50.2484 62.5906 49.8785C62.8046 48.7495 63.2327 49.8783 63.8163 49.8199C64.2443 49.7031 64.6136 50.0923 64.9443 49.9755C65.2506 49.8775 65.3001 49.5861 65.3353 49.2916C65.199 49.4419 65.0672 49.5976 64.9443 49.7617C64.458 49.275 63.7576 48.4769 63.0184 48.3601C62.926 48.3357 62.8288 48.3273 62.7291 48.3292ZM69.088 48.4757C69.1249 48.578 69.1563 48.6879 69.185 48.8076C69.2104 48.9938 69.325 49.1167 69.4549 49.2274C69.3406 48.9891 69.2088 48.7004 69.088 48.4757Z" fill="#233B77"/>
<path fill-rule="evenodd" clip-rule="evenodd" d="M172.438 97.3753C171.193 97.8035 169.968 98.2902 168.839 98.9326C168.139 99.3608 167.439 99.7891 166.7 100.217C166 100.587 165.396 101.016 164.715 101.444C164.326 101.658 164.054 101.833 163.743 102.086C163.315 102.476 162.731 102.962 162.128 103.176C161.817 103.332 161.603 103.215 161.331 103.488C160.572 104.072 160.047 105.103 159.405 105.746C158.705 106.447 157.849 106.933 156.935 107.031C155.378 107.186 153.92 107.031 152.363 107.401C151.721 107.576 151.352 108.062 150.865 108.432C150.496 108.744 150.496 108.802 150.01 108.86C149.698 108.86 149.465 108.744 149.154 108.744C148.57 108.802 147.87 109.23 147.267 109.503C146.1 110.048 145.944 111.488 145.458 112.617C145.186 113.318 144.972 112.987 144.427 112.617C143.941 112.345 143.571 112.033 143.143 111.702C142.773 112.072 142.287 112.072 141.859 112.247C141.314 112.403 140.886 112.676 140.459 112.929C139.447 113.416 137.988 113.532 137.774 114.817C137.677 115.615 138.319 115.576 138.475 116.044C138.475 116.16 137.735 117.387 137.949 117.387C138.319 117.445 138.319 117.172 138.591 117.017C139.077 116.803 138.961 116.861 139.389 117.172C139.719 117.445 140.361 117.717 140.848 117.659C140.945 118.204 140.847 118.847 140.886 119.431C141.314 119.489 141.801 119.43 142.229 119.489C142.443 120.131 141.801 119.859 141.49 119.859C141.587 119.859 141.645 120.015 141.742 120.073C141.645 120.404 141.529 120.676 141.587 120.988C142.19 120.988 142.87 120.774 143.084 121.475C143.201 121.747 142.987 122.117 143.084 122.331C143.298 122.876 143.999 123.187 144.213 123.732C144.427 124.258 144.057 124.959 143.999 125.504C143.999 125.718 143.94 126.146 143.999 126.36C144.057 126.73 144.388 126.886 144.427 127.217C144.485 127.801 143.785 128.443 143.571 128.988C143.046 130.176 142.559 131.305 141.956 132.473C141.8 132.803 141.703 133.115 141.528 133.388C141.275 133.816 141.101 133.816 141.315 134.244C141.529 134.672 142.618 135.704 143.084 135.704C143.26 136.229 142.832 136.93 142.871 137.573C142.929 138.274 143.843 138.916 144.388 139.461C144.115 139.986 143.474 140.59 143.143 141.057C142.832 141.544 142.656 142.147 142.345 142.575C141.859 142.4 141.314 142.673 140.789 142.459C140.517 142.303 140.186 141.758 140.031 141.544C139.661 141.018 139.447 140.629 138.864 140.843C138.533 140.96 137.891 141.271 137.56 141.116C137.093 140.96 137.405 140.473 137.307 139.987C137.191 139.617 136.977 139.5 136.821 139.247C136.549 138.702 136.607 137.573 136.607 137.047C135.79 136.775 135.148 136.288 134.351 136.074C133.981 135.957 133.65 135.86 133.164 135.86C132.736 135.918 132.366 136.23 131.938 135.86C131.355 135.373 131.394 134.361 130.382 134.361C130.013 134.361 129.41 134.614 129.04 134.789C128.126 135.159 127.542 135.373 126.511 135.159C125.772 135.003 125.441 134.614 125.344 133.874C125.227 132.803 125.169 131.558 124.858 130.487C124.702 130 124.488 129.572 124.372 129.085C124.274 128.56 124.43 127.976 124.372 127.431C124.313 126.205 123.613 125.815 122.718 125.115C122.543 124.959 122.329 124.745 122.232 124.647C121.959 124.472 121.862 124.531 121.531 124.472C120.948 124.375 120.831 124.102 120.559 123.616C120.033 122.818 119.333 121.786 118.322 121.688C117.719 121.63 117.135 121.747 116.551 121.688C116.065 121.688 115.579 121.475 115.034 121.475C115.033 121.437 115.03 121.398 115.028 121.36C114.997 121.401 114.95 121.399 114.879 121.319C114.606 120.949 114.665 120.287 114.509 119.917C114.237 119.333 113.964 118.691 113.809 118.087C113.595 117.445 113.536 116.744 113.167 116.219C112.311 114.973 110.268 115.674 109.023 115.304C108.596 115.148 108.226 114.72 107.74 114.817C106.786 114.934 106.086 115.362 105.055 115.148C104.471 114.973 103.888 115.031 103.343 114.876C102.974 114.759 101.962 114.019 101.845 114.72C101.203 114.544 101.203 115.09 101.048 115.576C100.834 116.102 100.445 115.888 100.017 115.946C99.6473 116.005 99.0637 116.53 98.733 116.433C98.3634 116.277 98.0913 116.277 97.8773 115.887C97.5077 115.401 97.2935 115.304 96.6516 115.304C96.4376 115.304 96.2239 115.362 96.0488 115.459C95.8932 115.518 95.8348 115.79 95.6792 115.849C95.4652 115.946 95.1343 115.576 94.9787 115.518C94.8231 115.46 94.6093 115.459 94.3953 115.459C93.909 115.518 93.5784 115.576 93.3255 116.004C93.0532 115.732 92.8391 115.79 92.8391 115.362C92.8975 115.031 93.3644 114.661 92.9365 114.389C92.4696 114.019 91.808 113.688 91.3411 114.291C90.9132 114.72 90.7381 115.089 90.0378 114.973C89.8239 114.934 89.3571 115.148 89.2404 114.817C89.1431 114.603 89.1819 114.33 89.143 114.077C88.9679 113.474 87.9565 113.104 87.6842 113.863C87.5286 114.33 87.7428 115.459 87.1008 115.634C86.4589 115.79 85.8168 115.576 85.6028 114.973C85.3888 114.389 84.9415 114.175 84.2995 114.175C84.0856 113.474 83.4437 113.376 82.7434 113.26C82.3154 113.26 81.3621 112.89 81.2454 113.532C81.0897 114.233 82.1016 114.545 82.3155 115.148C82.4906 115.674 82.9183 115.635 82.646 116.219C82.3737 116.919 83.4438 116.803 83.8717 116.744C84.6304 116.744 84.9027 116.705 85.4279 117.289C85.603 117.445 85.9725 117.445 85.9725 117.659C85.9725 117.873 85.9139 118.146 85.9139 118.36C85.8166 118.905 85.6027 119.703 86.0307 120.131C86.4002 120.501 86.9257 119.703 87.3731 120.287C87.5287 120.462 87.5868 120.988 87.8397 120.949C88.0537 120.89 88.3263 120.832 88.5402 120.832C88.7542 120.891 88.8125 121.202 88.9681 121.319C89.1432 121.533 89.4544 121.747 89.7268 121.844C90.2131 122.058 90.6408 121.416 90.9521 121.844C91.4384 122.389 91.6525 123.032 92.1972 123.518C92.5668 123.83 93.5783 123.83 94.0063 123.616C94.2786 123.46 94.2202 123.149 94.3953 122.934C94.6093 122.72 95.0372 122.817 95.3095 122.759C95.7764 122.662 96.6519 122.604 96.8075 122.02C97.3328 121.961 98.1495 121.805 98.5774 122.175C99.0638 122.545 99.4917 123.09 99.7446 123.616C100.348 124.589 100.776 125.66 101.301 126.691C101.845 127.704 102.176 128.677 102.546 129.747C102.857 130.604 103.246 131.344 103.616 132.22C103.771 132.531 103.888 133.018 103.946 133.388C103.946 133.719 104.199 134.088 104.374 134.458C104.686 135.217 104.899 136.074 105.172 136.93C105.327 137.573 105.658 138.332 105.872 139.033C106.086 139.617 106.183 140.201 106.358 140.746C106.456 141.174 106.359 141.602 106.572 141.933C106.786 142.303 106.942 142.731 107.156 143.101C107.526 143.744 107.487 144.658 107.487 145.417C107.487 145.962 107.798 146.333 108.167 146.644C108.498 147.033 108.498 147.189 108.44 147.676C108.44 148.26 108.868 148.688 108.926 149.272C108.926 149.486 109.082 149.719 109.198 149.934C109.296 150.089 109.257 150.362 109.257 150.576C109.257 150.946 109.296 151.433 109.471 151.803C109.626 152.289 109.724 152.873 109.899 153.418C109.996 153.905 110.21 154.372 110.21 154.858C110.21 155.287 110.152 155.715 110.366 156.104C110.541 156.416 110.58 156.688 110.696 157.019C111.338 158.674 111.708 160.387 112.097 162.1L112.136 162.217V162.275C112.35 162.859 112.564 163.502 112.68 164.105C112.739 164.533 112.895 165 112.895 165.429C112.895 165.818 112.739 166.519 113.011 166.772C113.595 167.375 113.381 165.818 113.381 165.643C113.323 165.331 113.692 164.962 113.809 164.631C114.12 164.845 114.081 165.273 114.237 165.643C114.334 165.915 114.782 166.188 114.665 166.558C114.606 166.772 114.392 166.986 114.295 167.258C114.237 167.531 114.295 167.862 114.295 168.115C114.295 168.504 114.665 169.088 113.906 168.543C113.537 168.29 113.108 167.531 112.778 168.076C112.525 168.543 112.252 169.186 111.766 169.458C111.552 169.575 111.61 169.575 111.397 169.633C111.183 169.633 110.852 169.789 110.696 169.789C110.638 169.945 111.124 170.276 111.241 170.373C111.552 170.645 111.494 170.957 111.552 171.288C111.669 172.047 111.766 172.903 110.969 173.001C110.91 173.176 110.852 174.072 110.541 173.857C110.152 173.643 110.152 173.488 109.724 173.488C109.257 173.488 109.354 173.857 109.14 174.13C109.024 174.247 108.654 174.344 108.498 174.461C108.226 174.675 107.915 174.772 107.525 174.714C107.428 174.714 107 174.772 106.942 174.889C106.728 175.317 107.312 175.103 107.487 175.045C107.856 174.947 107.739 175.045 107.915 175.2C107.915 175.259 107.954 175.259 107.954 175.2C108.168 175.376 108.654 175.259 108.654 175.532C108.595 175.96 108.596 176.446 108.498 176.816C108.343 177.4 108.226 176.933 108.012 177.244C107.856 177.459 107.739 178.043 107.525 178.159C107.156 178.218 107.039 178.374 106.728 178.529C106.572 178.588 106.572 178.743 106.456 178.919C106.358 179.074 106.144 178.918 105.931 178.957C105.872 179.016 105.6 179.172 105.716 179.288C105.755 179.386 106.028 179.347 106.145 179.347C106.397 179.347 106.728 179.6 106.884 179.814C106.884 179.872 107.584 179.23 107.74 179.172C108.168 179.133 108.557 179.172 108.868 179.386C109.024 179.561 109.627 179.814 109.627 179.989C109.627 180.515 109.568 180.69 110.054 180.904C110.327 181.06 110.638 181.001 110.911 181.157C111.066 181.274 111.124 181.488 111.338 181.586C111.552 181.702 112.252 181.546 112.564 181.546C112.894 181.546 113.478 181.43 113.809 181.586C113.964 181.702 114.178 182.189 113.867 182.189C113.809 182.403 114.334 182.462 114.509 182.5H114.548C114.665 182.5 114.723 182.5 114.82 182.559H114.879C115.151 182.617 115.462 182.676 115.637 182.929C115.793 183.143 115.793 183.201 116.104 183.201C116.435 183.143 116.493 183.201 116.493 183.571C116.435 183.785 116.707 183.902 116.707 183.63C116.804 183.63 117.291 183.999 117.291 184.116C117.291 184.233 117.135 184.33 117.135 184.486C117.135 184.758 117.291 184.973 117.291 185.245C117.291 185.459 117.505 185.674 117.505 185.829C117.505 185.946 117.777 186.004 117.835 186.004C118.088 186.16 118.205 186.043 118.419 185.887C118.575 185.829 118.847 185.732 118.964 185.556C119.061 185.459 118.905 185.187 118.905 185.031C119.177 185.031 119.275 185.303 119.547 185.245C119.703 185.187 119.819 185.031 120.033 184.973C120.189 184.914 120.072 185.304 120.131 185.343C120.189 185.518 119.917 185.459 119.859 185.518C119.489 185.673 119.217 185.518 119.333 186.004C119.431 186.316 119.644 186.9 119.819 187.114C120.131 187.386 120.306 187.931 120.461 188.243C120.675 188.671 121.162 189.099 121.103 189.644C121.045 190.287 120.462 189.645 120.131 189.976C119.917 190.19 119.975 190.228 120.189 190.345C120.306 190.403 120.345 190.657 120.189 190.715C120.131 190.715 119.858 190.501 119.917 190.715C119.917 190.929 120.247 190.871 120.345 190.871C120.617 190.871 120.559 191.416 120.675 191.63C120.773 191.786 121.259 192.642 121.531 192.486C121.901 192.214 121.745 191.785 122.29 191.902C122.543 191.961 122.543 192.175 122.659 192.331C122.757 192.428 123.185 192.272 123.301 192.272C123.827 192.272 123.613 193.245 124.216 193.07C124.488 193.031 125.227 193.071 125.383 193.343C125.499 193.518 125.344 193.732 125.441 193.946C125.5 193.946 125.655 194.16 125.655 194.199C125.714 194.199 125.869 193.674 125.928 193.616C126.2 193.343 126.083 192.642 126.472 192.486C127.211 192.117 126.686 193.032 126.686 193.246C126.686 193.616 126.842 193.771 127.153 193.946C127.542 194.199 128.029 194.472 127.756 195.017C127.484 195.543 127.698 195.601 128.126 195.601C129.196 195.601 128.554 196.516 127.912 196.574C127.698 197.275 128.923 196.574 128.981 196.574C129.371 196.516 129.954 197.1 129.954 197.489C129.954 197.801 129.74 198.501 130.168 198.716C130.382 198.832 130.966 198.599 131.18 198.56C131.724 198.56 132.308 198.502 132.736 198.774C133.28 199.047 133.436 198.832 133.864 198.56C133.923 198.56 134.448 198.171 134.448 198.443C134.448 198.599 134.409 198.774 134.292 198.832C134.02 198.988 133.806 199.202 133.553 199.3C133.553 199.3 133.436 199.358 133.494 199.358C132.891 199.514 132.094 199.475 131.452 199.416C130.907 199.299 131.083 199.845 130.596 199.845C130.324 199.845 129.526 199.689 129.585 200.117C129.585 200.545 130.44 200.429 130.693 200.585C131.024 200.76 131.51 200.974 131.51 201.46C131.51 202.044 131.666 201.986 131.997 202.473C132.211 202.745 132.25 203.173 132.464 203.485C132.58 203.66 132.308 204.458 132.464 204.575C132.58 204.185 132.95 203.874 133.125 203.543C133.806 203.601 132.677 204.614 132.638 204.614C132.794 204.575 133.65 204.244 133.378 204.789C133.339 204.886 132.853 204.886 132.678 204.945C132.522 205.1 132.308 205.256 132.249 205.529C132.21 205.646 132.249 206.015 132.094 206.015C131.938 206.074 131.822 206.113 131.783 206.288C131.666 206.561 131.783 206.775 131.608 206.989C131.569 207.203 131.452 207.359 131.452 207.631C131.452 208.157 132.036 208.546 132.036 209.071C132.036 209.402 131.938 209.772 131.822 210.103C131.724 210.259 131.569 210.317 131.452 210.473C131.394 210.57 131.608 210.746 131.569 210.901C131.51 211.174 131.452 211.33 131.452 211.602C131.394 212.128 131.394 212.673 131.88 212.984L132.094 213.043C132.425 213.159 132.678 213.198 133.067 213.315C133.592 213.471 134.136 213.198 134.448 213.685C134.623 213.86 134.72 214.074 134.934 214.016C135.206 214.016 135.362 214.113 135.479 214.327C135.576 214.503 135.537 214.658 135.751 214.658C135.907 214.6 136.179 214.386 136.12 214.23C136.762 214.113 137.56 214.386 138.105 213.958C138.533 213.646 138.863 214.113 138.961 214.503C139.116 215.028 139.291 215.573 139.661 215.943C139.684 215.963 139.709 215.981 139.733 216C140.369 215.786 140.946 215.435 141.431 214.814C142.228 213.802 142.773 213.101 144.057 213.101C144.33 213.043 144.427 213.257 144.699 213.16C144.972 213.043 145.03 212.673 145.341 212.614C145.983 212.517 146.314 213.159 146.897 212.731C147.267 212.4 147.228 211.661 147.753 211.485C148.57 211.271 150.126 211.388 150.865 211.699C151.449 211.913 151.624 212.458 152.422 212.614C152.966 212.731 153.064 212.731 153.433 213.101C153.881 213.529 153.88 213.958 154.62 213.802C155.32 213.685 155.904 213.043 156.02 212.4C155.437 211.914 155.262 211.271 154.892 210.687C154.522 210.045 154.134 209.5 153.92 208.799C153.764 208.059 153.55 207.787 153.822 207.086C154.133 206.327 154.25 206.015 154.309 205.159C154.892 205.217 154.834 204.828 155.203 204.614C155.534 204.458 155.69 204.575 156.079 204.614C156.39 204.614 156.759 204.517 157.09 204.614C157.732 204.731 157.304 204.672 157.635 205.042C158.102 205.646 158.277 205.743 158.919 206.015C159.619 206.288 160.047 206.443 159.989 207.3C160.203 207.358 160.961 207.514 161.058 207.728C161.272 208.215 160.786 208.371 160.689 208.799C160.514 209.286 160.572 209.286 160.903 209.714C161.117 209.986 161.428 210.142 161.759 210.356C161.915 210.473 162.343 210.998 162.556 211.057C163.101 211.174 163.529 209.558 164.015 209.13C164.268 208.799 164.716 208.76 164.871 208.273C165.027 208.001 165.027 207.242 165.027 206.93C165.727 206.872 166.097 206.775 166.7 206.561C167.225 206.327 167.925 206.327 168.256 205.743C168.567 205.217 168.197 204.517 168.567 203.972C168.839 203.543 169.696 202.959 170.182 203.017C170.337 203.66 171.038 204.186 171.621 204.4C172.594 204.828 172.38 204.088 172.535 203.271C172.652 203.056 172.691 202.473 172.905 202.317C173.177 201.986 173.547 202.317 173.819 202.044C174.033 201.83 174.033 201.285 174.208 201.071C174.422 200.798 174.889 200.759 174.889 200.273C174.85 198.988 171.952 198.501 172.691 196.944C172.963 196.36 173.294 196.457 173.819 196.399C174.52 196.302 175.92 196.185 175.531 195.231C175.375 194.9 175.22 195.114 175.317 194.686C175.492 194.161 176.29 193.46 176.659 193.031C176.99 192.701 177.36 192.389 177.69 192.058C178.216 191.63 178.76 191.474 178.643 190.618C178.605 189.859 178.488 189.528 179.13 188.944C179.733 188.36 180.2 188.087 181.017 188.029C181.055 187.542 181.055 186.958 181.017 186.472C179.772 186.374 179.733 185.031 179.772 184.058C179.772 183.474 179.772 183.143 179.188 182.87C178.702 182.656 178.216 182.831 178.118 182.131C177.904 181.099 178.216 180.087 177.846 179.172C177.632 178.685 177.749 178.315 177.69 177.789C177.574 177.089 177.262 177.303 176.62 177.186C176.562 176.661 176.873 175.746 177.418 175.473C178.118 175.103 178.332 175.473 178.546 174.558C178.643 174.072 178.702 173.643 178.858 173.157C178.916 172.845 179.344 172.144 179.285 171.813C179.188 171.444 178.604 171.015 178.546 170.49C178.488 170.003 178.916 169.672 178.974 169.186C179.072 168.543 178.916 168.271 178.702 167.803C178.488 167.2 178.643 166.947 179.188 166.675C179.986 166.285 180.531 166.402 181.172 165.701C181.717 165.059 182.145 164.3 182.67 163.657C183.584 162.645 184.071 161.419 184.771 160.231C185.043 159.686 185.51 158.986 185.082 158.518C184.868 158.187 184.499 158.09 184.226 157.817C184.012 157.486 184.012 157.214 183.954 156.844C183.915 156.202 184.012 155.657 183.643 155.131C183.429 154.858 183.098 154.586 183.001 154.275C182.884 154.061 182.943 153.632 183.001 153.36C183.001 153.087 183.098 152.873 183.059 152.601C182.728 152.562 182.515 152.776 182.242 152.717C182.184 152.114 182.184 151.9 181.931 151.433C181.658 150.888 181.017 150.459 180.531 150.031C180.161 149.758 180.103 149.817 179.616 149.7C179.033 149.545 178.488 149.058 177.904 148.902C177.301 148.746 176.718 148.688 176.134 148.416C175.804 148.318 175.706 148.201 175.317 148.201C174.889 148.201 174.675 148.143 174.364 148.046C173.664 147.773 173.333 147.131 172.905 146.547C172.75 146.274 172.049 144.989 172.321 144.775C172.38 144.717 173.08 144.658 173.119 144.6C173.391 144.561 173.664 144.503 173.936 144.386C174.52 144.133 174.889 143.432 175.161 142.828C175.531 142.147 175.862 141.544 176.134 140.804C176.407 139.889 176.62 139.772 177.535 139.831C177.748 139.831 177.749 139.675 177.963 139.714C178.002 139.772 178.177 139.948 178.216 139.948C178.43 140.103 178.76 140.317 178.974 140.201C179.344 140.045 179.402 139.558 179.83 139.461C180.316 139.344 180.414 139.675 180.686 139.247C180.9 138.858 180.9 137.573 181.717 138.06C181.873 138.176 182.028 138.604 182.184 138.76C182.398 138.974 182.612 139.072 182.942 139.188C183.487 139.344 184.129 139.402 184.654 139.461C184.868 139.5 185.199 139.617 185.413 139.617C185.899 139.558 185.685 139.403 186.055 139.13C186.541 138.819 187.125 139.5 187.669 139.286C188.136 139.072 188.739 138.059 188.895 137.631C189.264 136.93 188.584 136.444 188.039 136.074C187.456 135.587 186.969 135.003 186.424 134.361C185.996 133.816 185.724 133.329 185.627 132.687C185.51 131.675 185.471 130.273 185.627 129.261C185.724 128.716 186.113 128.287 186.211 127.762C186.366 127.158 186.113 126.944 185.782 126.458C185.296 125.718 184.771 125.017 185.199 124.102C185.51 123.46 185.996 123.304 186.424 122.759C185.899 122.175 185.296 122.175 184.654 121.903C184.07 121.689 183.915 120.929 183.215 120.559C182.086 119.917 181.055 119.586 179.733 119.586C178.857 119.586 178.488 119.372 177.904 118.73C177.359 118.087 177.301 117.776 177.418 116.958C177.477 116.374 177.574 115.79 177.632 115.187C177.69 113.902 176.873 113.318 176.134 112.403C175.706 111.916 175.803 112.033 176.192 111.547C176.62 111.002 176.932 110.301 177.301 109.717C177.632 109.23 177.787 108.588 177.787 108.004C177.846 107.187 177.69 106.875 177.301 106.291C176.99 105.746 176.776 105.104 176.445 104.52C176.134 103.916 175.706 103.39 175.376 102.748C174.792 101.658 174.092 100.432 173.547 99.2443C173.177 98.4461 172.438 98.2318 172.438 97.3753ZM111.773 114.263C111.719 114.264 111.662 114.266 111.607 114.268C111.917 114.314 112.224 114.368 112.525 114.447C112.585 114.461 112.659 114.481 112.728 114.498C112.571 114.393 112.399 114.3 112.136 114.272C112.019 114.262 111.898 114.261 111.773 114.263ZM113.886 115.054C113.914 115.084 113.94 115.115 113.964 115.148C114.172 115.43 114.007 115.712 114.081 116.021C114.085 115.858 114.12 115.675 114.12 115.576C114.075 115.251 114.002 115.125 113.886 115.054ZM114.369 116.463C114.731 116.894 114.995 117.513 114.995 118.087C114.995 118.148 115 118.207 115.008 118.265C115.038 117.694 115.03 117.098 114.606 116.588C114.517 116.523 114.44 116.493 114.369 116.463Z" fill="#233B77"/>
<path d="M112.525 114.447C111.708 114.233 110.852 114.174 109.996 114.077C109.724 114.019 109.568 113.863 109.296 113.805C109.023 113.746 108.809 113.377 108.556 113.318C108.381 112.52 108.926 111.644 109.296 110.963C109.724 110.048 109.685 109.503 110.638 109.075C111.241 108.763 112.525 108.802 112.836 108.16C113.225 107.517 112.68 106.933 112.68 106.33C112.622 106.778 112.739 107.245 112.739 107.634C112.681 108.101 112.136 108.16 111.766 108.277C110.696 108.549 109.685 108.86 108.926 109.775C108.712 109.989 108.654 110.573 108.596 110.904C108.557 111.216 108.168 111.644 107.856 111.761C107.253 111.917 107.798 111.119 107.798 111.002C107.798 110.749 107.253 111.216 107.156 111.333C106.826 111.761 106.611 111.216 106.456 110.904C106.397 110.69 106.086 111.06 106.028 111.177C105.931 111.43 105.969 111.702 106.242 111.858C106.825 112.306 106.67 112.189 106.456 112.773C106.358 112.987 106.514 113.162 106.145 113.162C105.756 113.162 105.386 113.104 104.958 113.162C104.413 113.162 103.985 112.89 103.499 112.676C102.915 112.462 102.76 111.702 102.487 111.177C102.215 110.749 101.787 110.106 101.359 109.775C100.873 109.347 100.29 108.802 99.6476 108.919C99.492 109.834 101.087 109.561 101.301 110.359C100.931 110.32 100.834 109.873 100.348 109.873C99.8031 109.873 99.375 109.989 98.9471 109.62C98.3635 109.133 96.5351 110.69 96.3211 109.717C96.1655 109.075 96.0487 108.335 96.107 107.673C96.1654 107.206 95.3483 106.661 94.9787 106.446C94.6674 106.232 94.5507 105.376 94.4535 105.045C94.3951 104.889 94.3954 104.617 94.123 104.558C93.7534 104.558 93.3255 104.558 92.9365 104.617C92.8392 104.889 92.5668 105.006 92.5668 105.376C92.5668 105.746 91.9833 105.22 91.9249 105.22C91.3413 104.734 90.641 104.52 89.8823 104.52C89.5127 104.52 89.143 104.559 88.754 104.403C88.326 104.13 87.8399 104.247 87.4119 104.033C86.9839 103.877 86.8285 104.13 86.4589 104.247C86.1282 104.344 85.5446 104.403 85.1556 104.403C85.0583 104.734 85.1555 104.89 85.3305 105.162C85.6029 105.59 84.9999 105.473 84.7859 105.318C84.4163 105.045 84.5134 104.558 84.2022 104.305C83.9298 103.974 83.5603 103.819 83.2879 103.488C82.9573 103.118 82.7043 102.904 82.2764 102.631C82.0624 102.476 81.79 102.145 82.1596 101.989C82.5292 101.892 82.8017 102.047 83.0157 102.32C83.288 102.631 83.6575 102.845 84.0854 102.904C84.8441 103.059 85.6028 101.677 85.8557 101.132C86.342 100.217 85.8556 99.2051 86.2836 98.2902C86.7115 97.3169 87.4703 96.4607 88.1706 95.721C88.4818 95.3317 88.6956 94.845 89.143 94.6893C89.6099 94.5919 90.0378 94.7474 90.4269 94.9031C90.7965 95.0199 91.283 95.176 91.6526 95.0592C92.0222 94.9619 91.7691 94.4165 91.594 94.2607C91.0105 93.56 89.7265 93.8909 89.0263 93.3459C88.2287 92.8203 87.2563 92.762 86.8867 93.8326C86.556 94.6307 87.3145 95.3314 86.2836 95.818C85.9723 95.9737 85.6416 95.9741 85.272 95.9741C84.6884 96.0325 84.4162 95.6624 83.9299 95.3899C83.4436 95.1758 83.0741 95.1172 82.5878 95.1756C82.1599 95.1756 81.7899 95.6039 81.4009 95.5455C81.0897 95.4871 80.5454 94.9616 80.5065 94.6307C80.4481 94.2024 80.6621 93.8326 80.7594 93.4627C80.8761 93.0344 81.0897 92.762 81.2454 92.3922C81.4593 92.0029 81.4595 91.4774 81.5762 91.0492C80.9343 91.6916 80.9344 92.5478 80.3897 93.1902C80.0785 93.5601 80.3311 93.9884 79.9615 94.3194C79.4752 94.6892 79.9615 95.1174 80.3311 95.2342C80.6035 95.2732 82.2763 95.818 82.1596 96.0905C81.8873 96.7913 80.3312 96.3046 79.9033 96.0905C79.5337 96.402 79.4169 97.0445 78.7749 96.9472C78.133 96.7914 78.0942 96.1881 78.0942 95.6042C78.1331 94.9034 77.9193 94.2027 77.9193 93.5019C77.822 92.7038 77.6469 91.9056 77.4329 91.088C77.0049 89.5891 76.7518 88.0901 76.2072 86.5912C76.0516 86.2019 76.1101 85.7739 75.8767 85.3456C75.6238 84.8785 75.507 84.5473 75.4097 84.0022C75.293 83.6908 75.1958 83.3209 75.1374 82.9899C74.9818 82.4449 75.1376 82.0168 74.4373 82.0168C74.0677 82.0168 73.4646 81.4326 73.4257 81.0628C73.4257 80.7318 73.6398 80.5178 73.6398 80.2453C73.6398 80.0312 73.4255 79.817 73.3671 79.6029C73.1531 79.0773 72.7252 78.6491 72.5696 78.1625C72.5113 77.89 72.3557 77.7342 72.2973 77.5201C72.1806 77.2476 72.3559 76.9165 72.2392 76.6634C72.1224 76.4493 71.9082 76.3912 71.8109 76.1771C71.6942 75.9045 71.7528 75.5345 71.7528 75.2036C71.8111 74.8921 71.8109 74.5613 71.8109 74.2499C71.8109 73.8606 71.5389 73.5491 71.5972 73.2182C72.2391 73.0041 72.3557 73.4906 72.8225 73.7631C73.5812 74.133 73.8926 73.588 74.4373 73.2182C74.9819 72.8483 75.5071 72.9067 75.8767 72.3033C76.2074 71.8167 76.4798 71.3883 75.9935 70.9211C75.6628 70.5902 75.2345 70.2202 75.4485 69.6751C75.5652 69.4026 76.3241 68.9355 76.2658 68.6046C76.149 67.8454 74.0677 69.033 74.165 69.1888C74.4957 69.2472 74.651 68.9745 74.9233 68.9745C75.2345 68.9745 74.9816 69.3056 74.9233 69.3056C74.437 69.6171 73.951 69.792 73.523 70.045C73.3091 70.2202 73.0367 70.2788 72.8811 70.493C72.7838 70.7071 72.8809 70.96 72.8225 71.1742C72.6086 71.9917 71.9084 71.1743 71.7528 70.8629C71.5971 70.5319 71.2277 70.2202 71.3249 69.7919C71.4416 69.0912 71.0134 69.0328 70.527 68.6046C70.0407 68.1179 70.1383 67.3199 69.7687 66.7748C69.3991 66.2492 69.1848 65.7041 68.9709 65.1201C68.9125 64.906 68.6402 64.9644 68.5818 64.7308C68.4846 64.4778 68.6988 64.0496 68.7571 63.7771C68.8544 63.4462 68.9126 63.1348 68.8153 62.8622C68.757 62.6481 68.4263 62.3756 68.4263 62.7454C68.4263 62.979 68.4847 63.0763 68.543 63.2904C68.543 63.5629 68.3291 63.4461 68.2707 63.2904C68.1151 62.8621 68.0569 62.3754 67.8429 62.0056C67.6289 61.6357 67.6871 61.2075 67.512 60.8182C67.2981 60.3316 67.0453 59.9035 66.8313 59.4752C66.559 58.8912 66.6561 58.1902 66.5005 57.6063C66.3448 57.178 66.384 56.6913 66.17 56.3215C65.8587 55.8348 65.489 55.8351 65.4307 55.1927C65.4307 54.9786 65.7418 54.7061 65.5862 54.5503C65.3139 54.3362 65.1585 54.2194 65.0028 53.9079C64.8861 53.6354 65.0026 53.3044 64.9443 53.0319C64.9443 52.7204 64.6722 52.3507 64.4583 52.0782C64.2443 51.7473 63.5439 50.7931 64.0886 50.3649C64.2442 50.579 64.4579 51.163 64.8275 51.0073C65.2749 50.7931 65.5863 50.6765 66.0726 50.8322C66.2282 50.949 66.5589 50.3066 66.8701 50.3066C67.2981 50.2482 67.6287 49.9173 68.0566 49.9173C68.4262 49.8784 68.9129 49.7031 69.2436 49.8199C69.2825 49.8199 69.9824 50.034 69.8851 49.7031C69.8765 49.6759 69.8653 49.6507 69.8526 49.6262C70.387 49.6269 70.7365 49.0454 71.2276 48.905C71.5388 48.7882 71.8111 48.9049 72.1418 48.6908C72.3558 48.535 72.3946 48.2628 72.5696 48.0876C73.0365 47.6204 73.7368 47.4061 74.3787 47.2309C75.293 47.0752 76.1101 47.6593 77.0632 47.4452C77.3939 47.4062 77.6661 47.1335 78.0356 47.1335C78.522 47.1919 78.736 47.6205 79.0472 47.9319C79.3779 48.3212 79.4366 48.3209 79.8645 48.4183C80.4481 48.574 80.9926 48.7495 81.4595 48.9636C81.9458 49.1778 82.5293 49.4891 83.0157 49.1193C83.5603 48.691 83.4047 48.0485 83.6576 47.6202C84.4162 47.5618 85.1747 47.6204 85.9139 47.4452C86.5169 47.3479 86.6143 47.0754 87.0422 46.764C87.3146 46.4914 87.5871 46.4327 88.0151 46.4911C88.5014 46.5495 88.8124 46.9196 89.2404 46.9196C89.61 46.8612 90.0379 46.3744 90.2714 46.063C90.5826 45.732 90.8549 45.2455 91.0688 44.8756C91.3801 44.3306 92.0416 43.6494 91.8081 43.007C91.7109 42.6761 91.3412 42.5203 91.4385 42.131C91.5941 41.6054 92.0804 41.9166 92.4695 41.8193C92.8974 41.7025 93.3253 41.2353 93.5393 40.7876C93.6365 40.6318 94.0647 38.919 93.9675 38.919C94.4538 38.919 96.9631 38.8605 95.6792 37.9067C95.3096 37.5758 94.8234 37.9067 95.2514 37.2643C95.5237 36.875 96.1071 35.0453 96.4767 35.0064C96.5302 34.9991 96.5804 34.9982 96.6279 35.0029C96.96 35.0353 97.1601 35.3252 97.4495 35.3763C97.7802 35.4737 98.1494 35.4345 98.4607 35.4345C98.6358 36.2911 98.2081 36.9918 98.247 37.7899C98.636 37.9456 98.9472 38.2767 99.3167 38.374C99.1611 39.0164 99.7057 39.2887 100.134 39.6196C100.62 40.0479 101.262 40.262 100.659 40.7876C100.503 40.9628 100.134 40.8462 100.017 41.2355C99.978 41.4886 100.192 41.5468 100.192 41.8193C100.192 42.3059 99.6474 42.676 99.589 43.1627C99.5501 43.3768 99.5891 44.2916 99.7058 44.5057C99.9198 44.8755 100.717 44.9925 101.087 45.0899C101.573 45.2067 102.118 45.4207 102.546 45.518C102.857 45.5764 102.974 45.518 103.246 45.6348C103.771 45.849 104.316 46.2772 104.9 46.2772C105.755 46.2772 105.814 45.2454 106.514 45.1481C106.942 45.0897 107.214 45.5762 107.487 45.8487C107.798 46.1018 107.856 46.1018 108.284 46.1018C108.926 46.2186 109.568 46.1018 110.21 46.1018C110.969 46.1018 111.552 46.063 112.038 46.7054C112.525 47.4061 112.739 48.2043 112.953 49.0025C113.011 49.2166 112.894 49.4307 112.953 49.6448C113.05 50.404 113.478 51.1046 114.023 51.5328C114.451 51.9027 114.606 52.0198 114.451 52.6037C114.353 52.9736 114.295 53.246 114.237 53.6743C114.178 54.0636 114.023 54.4917 113.751 54.7448C113.537 55.0757 113.108 54.959 112.836 55.2315C113.381 55.5041 113.595 55.4458 114.237 55.4458C116.337 55.3485 116.804 58.0347 116.707 59.6309C116.649 60.6626 117.018 61.5191 117.408 62.4729C117.719 63.3489 117.232 64.0887 116.766 64.9063C116.435 65.3345 116.124 65.8016 116.124 66.3467C116.124 66.9307 116.59 67.3201 116.921 67.7483C117.446 68.488 117.446 69.4028 118.419 69.6169C119.606 69.9478 120.131 70.4345 120.89 71.291C121.473 72.0307 122.232 72.7898 123.243 72.8871C123.885 72.9455 124.585 72.8482 125.188 73.0039C125.441 73.0623 125.869 73.1598 126.083 73.335C126.414 73.4907 126.511 73.8022 126.9 73.8606C127.6 74.0163 128.184 73.8021 128.612 73.3738C129.409 72.6731 129.157 71.0186 130.538 70.8629C131.608 70.7461 132.639 70.7461 133.709 70.5904C134.895 70.4347 136.004 70.0063 137.191 69.8312C138.377 69.6754 139.603 68.9744 140.673 68.4878C141.276 68.2347 141.801 67.904 142.443 67.7483C143.084 67.5342 143.512 67.4172 144.115 67.0473C144.699 66.6775 145.341 66.7166 145.886 66.4635C146.839 66.0353 146.897 65.1593 148.084 65.4318C148.356 65.5486 148.667 65.7626 148.881 65.86C149.523 66.0351 150.068 66.0351 150.71 65.86C151.293 65.7042 151.897 65.3734 152.48 65.4318C153.336 65.4902 153.453 66.4635 154.134 65.4318C154.309 65.1593 154.347 65.0619 154.736 64.9451C155.009 64.8477 155.262 65.0036 155.592 64.7894C156.118 64.4196 155.904 63.7771 156.02 63.1347C156.079 62.5897 156.448 62.0057 156.545 61.4606C156.662 60.8766 156.545 61.0908 156.935 60.8182C157.576 60.39 158.063 59.6894 158.705 59.3196C159.191 59.047 159.444 59.3194 159.989 59.3778C160.358 59.4167 160.747 59.4169 161.117 59.5921C161.273 60.3318 160.358 60.6043 160.047 61.1493C160.261 61.5192 160.261 61.7331 160.3 62.2587C160.747 62.3171 161.117 62.7065 161.486 62.8622C161.856 62.9595 162.187 62.9207 162.615 62.9597C163.043 63.0181 163.471 63.0762 163.471 63.5629C163.529 63.9327 163.159 64.2443 163.159 64.692C163.159 67.0474 165.669 65.2174 166.914 65.0033C166.952 64.2052 165.825 63.8744 166.039 63.2904C166.7 63.1347 166.739 62.5312 167.342 62.3755C167.984 62.1614 168.139 62.9596 168.626 62.8622C168.684 62.6481 169.579 62.0445 169.851 62.0056C170.668 61.8888 170.454 62.5312 170.337 63.0179C170.765 63.1347 171.252 62.9594 171.466 63.446C171.68 64.0884 171.251 64.0886 171.952 64.3027C172.438 64.4779 172.808 64.3027 172.866 64.9451C172.905 65.276 172.594 65.8015 172.477 66.1324C172.263 66.9305 172.049 67.7481 171.952 68.6046C171.893 68.9744 171.894 69.4027 171.738 69.7725C171.563 70.3176 171.251 71.1742 172.224 71.1742C172.535 71.1742 172.691 70.9601 173.022 70.9017C173.936 70.6876 174.033 71.3883 174.578 71.9334C175.22 72.5174 175.22 72.8482 174.947 73.6463C174.792 74.2303 174.578 74.7169 174.52 75.3592C174.52 75.9627 174.636 76.6052 174.461 77.1308C174.247 77.8315 173.722 78.318 173.294 78.8631C173.022 79.1161 172.652 79.4471 172.438 79.7586C172.224 80.1868 172.477 80.2453 172.438 80.6346C172.438 80.8877 172.263 81.316 172.049 81.5301C171.893 81.8026 171.621 81.8028 171.407 82.1337C170.979 82.6203 171.407 82.7175 171.894 82.7175C172.594 82.7759 172.691 82.8342 173.294 83.2624C173.878 83.6323 174.305 83.3599 175.064 83.4767C175.064 84.1191 175.804 84.8588 176.29 85.287C176.834 85.8321 177.262 86.1629 177.535 86.7469C177.748 87.2725 177.904 87.7593 178.118 88.3628C178.605 89.4723 178.916 90.134 178.118 91.263C177.749 91.7886 177.904 92.2753 177.69 92.8009C177.418 93.4044 176.834 93.5019 176.348 93.7744C175.862 94.0469 175.317 94.3194 174.792 94.5724C174.422 94.7866 173.78 94.9031 173.391 95.1756C172.905 95.4871 172.594 96.558 172.477 97.1614C172.438 97.2588 172.438 97.3171 172.438 97.4339C171.193 97.8622 169.968 98.3876 168.839 99.03C168.139 99.4582 167.439 99.8866 166.7 100.276C166 100.704 165.396 101.074 164.657 101.502C164.327 101.716 164.054 101.872 163.743 102.145C163.315 102.573 162.731 103.001 162.128 103.274C161.817 103.39 161.603 103.332 161.331 103.605C160.572 104.189 160.047 105.162 159.347 105.863C158.763 106.505 157.849 106.972 156.935 107.089C155.378 107.303 153.92 107.089 152.363 107.459C151.721 107.634 151.352 108.101 150.865 108.53C150.496 108.861 150.496 108.919 150.01 108.919C149.698 108.919 149.484 108.802 149.154 108.86C148.512 108.86 147.87 109.289 147.267 109.561C146.1 110.087 145.944 111.547 145.458 112.676C145.186 113.416 144.972 113.046 144.427 112.715C143.96 112.403 143.571 112.131 143.143 111.761C142.773 112.131 142.287 112.189 141.859 112.345C141.314 112.501 140.886 112.773 140.459 112.987C139.447 113.532 137.988 113.591 137.774 114.934C137.618 115.732 138.319 115.615 138.475 116.102C138.475 116.257 137.735 117.445 137.949 117.503C138.319 117.562 138.319 117.231 138.591 117.133C139.077 116.861 138.961 116.919 139.33 117.289C139.719 117.562 140.361 117.815 140.848 117.718C140.945 118.302 140.847 118.944 140.886 119.489C141.275 119.586 141.801 119.547 142.229 119.547C142.443 120.19 141.801 119.917 141.49 119.917C141.528 119.976 141.645 120.131 141.742 120.19C141.645 120.462 141.529 120.715 141.587 121.046C142.19 121.046 142.87 120.832 143.084 121.572C143.143 121.786 142.987 122.175 143.084 122.448C143.298 122.973 143.999 123.304 144.213 123.771C144.427 124.316 144.057 125.076 143.999 125.543C143.96 125.815 143.96 126.205 143.999 126.458C144.057 126.789 144.388 127.003 144.427 127.275C144.485 127.859 143.785 128.56 143.571 129.047C143.046 130.215 142.559 131.402 141.976 132.589C141.801 132.842 141.703 133.173 141.49 133.504C141.276 133.874 141.101 133.933 141.315 134.303C141.529 134.731 142.618 135.743 143.084 135.743C143.26 136.347 142.832 137.047 142.871 137.631C142.929 138.39 143.843 139.033 144.388 139.5C144.115 140.103 143.474 140.629 143.084 141.174C142.832 141.661 142.656 142.186 142.345 142.673C141.801 142.459 141.314 142.731 140.789 142.517C140.517 142.4 140.206 141.875 140.031 141.602C139.603 141.116 139.447 140.688 138.864 140.902C138.533 141.057 137.891 141.33 137.56 141.232C137.093 141.018 137.405 140.532 137.307 140.045C137.191 139.714 136.977 139.617 136.821 139.286C136.549 138.819 136.607 137.69 136.607 137.086C135.79 136.833 135.148 136.405 134.351 136.171C133.981 136.074 133.65 135.918 133.164 135.957C132.736 135.957 132.366 136.288 131.938 135.957C131.355 135.431 131.394 134.4 130.382 134.4C130.013 134.4 129.41 134.672 129.04 134.848C128.126 135.217 127.542 135.49 126.511 135.276C125.772 135.101 125.441 134.672 125.344 133.933C125.227 132.862 125.169 131.616 124.858 130.604C124.702 130.117 124.488 129.631 124.372 129.202C124.274 128.657 124.43 128.015 124.372 127.489C124.313 126.244 123.632 125.932 122.718 125.173C122.543 125.076 122.329 124.803 122.173 124.745C121.959 124.589 121.862 124.648 121.531 124.589C120.948 124.472 120.831 124.219 120.559 123.732C120.033 122.876 119.333 121.903 118.322 121.786C117.719 121.747 117.135 121.786 116.551 121.786C116.065 121.747 115.579 121.572 115.034 121.533C115.032 121.478 115.028 121.42 115.025 121.364C115.143 121.225 115.034 120.45 115.034 120.404C115.034 120.034 115.151 119.645 115.151 119.275C115.2 118.915 115.058 118.623 115.011 118.285C115.035 117.704 115.005 117.144 114.567 116.705C114.542 116.672 114.517 116.646 114.493 116.625C114.413 116.512 114.328 116.407 114.237 116.316C114.15 116.216 114.106 116.119 114.082 116.025C114.092 115.875 114.12 115.714 114.12 115.615C114.102 115.498 114.079 115.415 114.052 115.345C114.037 115.279 114.013 115.214 113.964 115.148M112.525 114.447C112.953 114.544 113.653 114.72 113.964 115.148M112.525 114.447C112.224 114.368 111.917 114.314 111.607 114.268C111.662 114.266 111.719 114.264 111.773 114.263C111.898 114.261 112.019 114.262 112.136 114.272C112.399 114.3 112.571 114.393 112.728 114.498C112.659 114.481 112.585 114.461 112.525 114.447ZM113.964 115.148C113.94 115.115 113.914 115.084 113.886 115.054C114.002 115.125 114.075 115.251 114.12 115.576C114.12 115.675 114.085 115.858 114.081 116.021C114.007 115.712 114.172 115.43 113.964 115.148ZM62.7291 48.3292C62.4301 48.3346 62.1091 48.4331 61.8319 48.4769C61.5992 48.5259 61.3062 48.5266 61 48.5189C61.3252 48.8422 61.6085 49.1658 61.9487 49.4892C61.9876 49.606 62.4739 50.2484 62.5906 49.8785C62.8046 48.7495 63.2327 49.8783 63.8163 49.8199C64.2443 49.7031 64.6136 50.0923 64.9443 49.9755C65.2506 49.8775 65.3001 49.5861 65.3353 49.2916C65.199 49.4419 65.0672 49.5976 64.9443 49.7617C64.458 49.275 63.7576 48.4769 63.0184 48.3601C62.926 48.3357 62.8288 48.3273 62.7291 48.3292ZM69.088 48.4757C69.1249 48.578 69.1563 48.6879 69.185 48.8076C69.2104 48.9938 69.325 49.1167 69.4549 49.2274C69.3406 48.9891 69.2088 48.7004 69.088 48.4757ZM172.438 97.3753C171.193 97.8035 169.968 98.2902 168.839 98.9326C168.139 99.3608 167.439 99.7891 166.7 100.217C166 100.587 165.396 101.016 164.715 101.444C164.326 101.658 164.054 101.833 163.743 102.086C163.315 102.476 162.731 102.962 162.128 103.176C161.817 103.332 161.603 103.215 161.331 103.488C160.572 104.072 160.047 105.103 159.405 105.746C158.705 106.447 157.849 106.933 156.935 107.031C155.378 107.186 153.92 107.031 152.363 107.401C151.721 107.576 151.352 108.062 150.865 108.432C150.496 108.744 150.496 108.802 150.01 108.86C149.698 108.86 149.465 108.744 149.154 108.744C148.57 108.802 147.87 109.23 147.267 109.503C146.1 110.048 145.944 111.488 145.458 112.617C145.186 113.318 144.972 112.987 144.427 112.617C143.941 112.345 143.571 112.033 143.143 111.702C142.773 112.072 142.287 112.072 141.859 112.247C141.314 112.403 140.886 112.676 140.459 112.929C139.447 113.416 137.988 113.532 137.774 114.817C137.677 115.615 138.319 115.576 138.475 116.044C138.475 116.16 137.735 117.387 137.949 117.387C138.319 117.445 138.319 117.172 138.591 117.017C139.077 116.803 138.961 116.861 139.389 117.172C139.719 117.445 140.361 117.717 140.848 117.659C140.945 118.204 140.847 118.847 140.886 119.431C141.314 119.489 141.801 119.43 142.229 119.489C142.443 120.131 141.801 119.859 141.49 119.859C141.587 119.859 141.645 120.015 141.742 120.073C141.645 120.404 141.529 120.676 141.587 120.988C142.19 120.988 142.87 120.774 143.084 121.475C143.201 121.747 142.987 122.117 143.084 122.331C143.298 122.876 143.999 123.187 144.213 123.732C144.427 124.258 144.057 124.959 143.999 125.504C143.999 125.718 143.94 126.146 143.999 126.36C144.057 126.73 144.388 126.886 144.427 127.217C144.485 127.801 143.785 128.443 143.571 128.988C143.046 130.176 142.559 131.305 141.956 132.473C141.8 132.803 141.703 133.115 141.528 133.388C141.275 133.816 141.101 133.816 141.315 134.244C141.529 134.672 142.618 135.704 143.084 135.704C143.26 136.229 142.832 136.93 142.871 137.573C142.929 138.274 143.843 138.916 144.388 139.461C144.115 139.986 143.474 140.59 143.143 141.057C142.832 141.544 142.656 142.147 142.345 142.575C141.859 142.4 141.314 142.673 140.789 142.459C140.517 142.303 140.186 141.758 140.031 141.544C139.661 141.018 139.447 140.629 138.864 140.843C138.533 140.96 137.891 141.271 137.56 141.116C137.093 140.96 137.405 140.473 137.307 139.987C137.191 139.617 136.977 139.5 136.821 139.247C136.549 138.702 136.607 137.573 136.607 137.047C135.79 136.775 135.148 136.288 134.351 136.074C133.981 135.957 133.65 135.86 133.164 135.86C132.736 135.918 132.366 136.23 131.938 135.86C131.355 135.373 131.394 134.361 130.382 134.361C130.013 134.361 129.41 134.614 129.04 134.789C128.126 135.159 127.542 135.373 126.511 135.159C125.772 135.003 125.441 134.614 125.344 133.874C125.227 132.803 125.169 131.558 124.858 130.487C124.702 130 124.488 129.572 124.372 129.085C124.274 128.56 124.43 127.976 124.372 127.431C124.313 126.205 123.613 125.815 122.718 125.115C122.543 124.959 122.329 124.745 122.232 124.647C121.959 124.472 121.862 124.531 121.531 124.472C120.948 124.375 120.831 124.102 120.559 123.616C120.033 122.818 119.333 121.786 118.322 121.688C117.719 121.63 117.135 121.747 116.551 121.688C116.065 121.688 115.579 121.475 115.034 121.475C115.033 121.437 115.03 121.398 115.028 121.36C114.997 121.401 114.95 121.399 114.879 121.319C114.606 120.949 114.665 120.287 114.509 119.917C114.237 119.333 113.964 118.691 113.809 118.087C113.595 117.445 113.536 116.744 113.167 116.219C112.311 114.973 110.268 115.674 109.023 115.304C108.596 115.148 108.226 114.72 107.74 114.817C106.786 114.934 106.086 115.362 105.055 115.148C104.471 114.973 103.888 115.031 103.343 114.876C102.974 114.759 101.962 114.019 101.845 114.72C101.203 114.544 101.203 115.09 101.048 115.576C100.834 116.102 100.445 115.888 100.017 115.946C99.6473 116.005 99.0637 116.53 98.733 116.433C98.3634 116.277 98.0913 116.277 97.8773 115.887C97.5077 115.401 97.2935 115.304 96.6516 115.304C96.4376 115.304 96.2239 115.362 96.0488 115.459C95.8932 115.518 95.8348 115.79 95.6792 115.849C95.4652 115.946 95.1343 115.576 94.9787 115.518C94.8231 115.46 94.6093 115.459 94.3953 115.459C93.909 115.518 93.5784 115.576 93.3255 116.004C93.0532 115.732 92.8391 115.79 92.8391 115.362C92.8975 115.031 93.3644 114.661 92.9365 114.389C92.4696 114.019 91.808 113.688 91.3411 114.291C90.9132 114.72 90.7381 115.089 90.0378 114.973C89.8239 114.934 89.3571 115.148 89.2404 114.817C89.1431 114.603 89.1819 114.33 89.143 114.077C88.9679 113.474 87.9565 113.104 87.6842 113.863C87.5286 114.33 87.7428 115.459 87.1008 115.634C86.4589 115.79 85.8168 115.576 85.6028 114.973C85.3888 114.389 84.9415 114.175 84.2995 114.175C84.0856 113.474 83.4437 113.376 82.7434 113.26C82.3154 113.26 81.3621 112.89 81.2454 113.532C81.0897 114.233 82.1016 114.545 82.3155 115.148C82.4906 115.674 82.9183 115.635 82.646 116.219C82.3737 116.919 83.4438 116.803 83.8717 116.744C84.6304 116.744 84.9027 116.705 85.4279 117.289C85.603 117.445 85.9725 117.445 85.9725 117.659C85.9725 117.873 85.9139 118.146 85.9139 118.36C85.8166 118.905 85.6027 119.703 86.0307 120.131C86.4002 120.501 86.9257 119.703 87.3731 120.287C87.5287 120.462 87.5868 120.988 87.8397 120.949C88.0537 120.89 88.3263 120.832 88.5402 120.832C88.7542 120.891 88.8125 121.202 88.9681 121.319C89.1432 121.533 89.4544 121.747 89.7268 121.844C90.2131 122.058 90.6408 121.416 90.9521 121.844C91.4384 122.389 91.6525 123.032 92.1972 123.518C92.5668 123.83 93.5783 123.83 94.0063 123.616C94.2786 123.46 94.2202 123.149 94.3953 122.934C94.6093 122.72 95.0372 122.817 95.3095 122.759C95.7764 122.662 96.6519 122.604 96.8075 122.02C97.3328 121.961 98.1495 121.805 98.5774 122.175C99.0638 122.545 99.4917 123.09 99.7446 123.616C100.348 124.589 100.776 125.66 101.301 126.691C101.845 127.704 102.176 128.677 102.546 129.747C102.857 130.604 103.246 131.344 103.616 132.22C103.771 132.531 103.888 133.018 103.946 133.388C103.946 133.719 104.199 134.088 104.374 134.458C104.686 135.217 104.899 136.074 105.172 136.93C105.327 137.573 105.658 138.332 105.872 139.033C106.086 139.617 106.183 140.201 106.358 140.746C106.456 141.174 106.359 141.602 106.572 141.933C106.786 142.303 106.942 142.731 107.156 143.101C107.526 143.744 107.487 144.658 107.487 145.417C107.487 145.962 107.798 146.333 108.167 146.644C108.498 147.033 108.498 147.189 108.44 147.676C108.44 148.26 108.868 148.688 108.926 149.272C108.926 149.486 109.082 149.719 109.198 149.934C109.296 150.089 109.257 150.362 109.257 150.576C109.257 150.946 109.296 151.433 109.471 151.803C109.626 152.289 109.724 152.873 109.899 153.418C109.996 153.905 110.21 154.372 110.21 154.858C110.21 155.287 110.152 155.715 110.366 156.104C110.541 156.416 110.58 156.688 110.696 157.019C111.338 158.674 111.708 160.387 112.097 162.1L112.136 162.217V162.275C112.35 162.859 112.564 163.502 112.68 164.105C112.739 164.533 112.895 165 112.895 165.429C112.895 165.818 112.739 166.519 113.011 166.772C113.595 167.375 113.381 165.818 113.381 165.643C113.323 165.331 113.692 164.962 113.809 164.631C114.12 164.845 114.081 165.273 114.237 165.643C114.334 165.915 114.782 166.188 114.665 166.558C114.606 166.772 114.392 166.986 114.295 167.258C114.237 167.531 114.295 167.862 114.295 168.115C114.295 168.504 114.665 169.088 113.906 168.543C113.537 168.29 113.108 167.531 112.778 168.076C112.525 168.543 112.252 169.186 111.766 169.458C111.552 169.575 111.61 169.575 111.397 169.633C111.183 169.633 110.852 169.789 110.696 169.789C110.638 169.945 111.124 170.276 111.241 170.373C111.552 170.645 111.494 170.957 111.552 171.288C111.669 172.047 111.766 172.903 110.969 173.001C110.91 173.176 110.852 174.072 110.541 173.857C110.152 173.643 110.152 173.488 109.724 173.488C109.257 173.488 109.354 173.857 109.14 174.13C109.024 174.247 108.654 174.344 108.498 174.461C108.226 174.675 107.915 174.772 107.525 174.714C107.428 174.714 107 174.772 106.942 174.889C106.728 175.317 107.312 175.103 107.487 175.045C107.856 174.947 107.739 175.045 107.915 175.2C107.915 175.259 107.954 175.259 107.954 175.2C108.168 175.376 108.654 175.259 108.654 175.532C108.595 175.96 108.596 176.446 108.498 176.816C108.343 177.4 108.226 176.933 108.012 177.244C107.856 177.459 107.739 178.043 107.525 178.159C107.156 178.218 107.039 178.374 106.728 178.529C106.572 178.588 106.572 178.743 106.456 178.919C106.358 179.074 106.144 178.918 105.931 178.957C105.872 179.016 105.6 179.172 105.716 179.288C105.755 179.386 106.028 179.347 106.145 179.347C106.398 179.347 106.728 179.6 106.884 179.814C106.884 179.872 107.584 179.23 107.74 179.172C108.168 179.133 108.557 179.172 108.868 179.386C109.024 179.561 109.627 179.814 109.627 179.989C109.627 180.515 109.568 180.69 110.054 180.904C110.327 181.06 110.638 181.001 110.911 181.157C111.066 181.274 111.124 181.488 111.338 181.586C111.552 181.702 112.252 181.546 112.564 181.546C112.894 181.546 113.478 181.43 113.809 181.586C113.964 181.702 114.178 182.189 113.867 182.189C113.809 182.403 114.334 182.462 114.509 182.5H114.548C114.665 182.5 114.723 182.5 114.82 182.559H114.879C115.151 182.617 115.462 182.676 115.637 182.929C115.793 183.143 115.793 183.201 116.104 183.201C116.435 183.143 116.493 183.201 116.493 183.571C116.435 183.785 116.707 183.902 116.707 183.63C116.804 183.63 117.291 183.999 117.291 184.116C117.291 184.233 117.135 184.33 117.135 184.486C117.135 184.758 117.291 184.973 117.291 185.245C117.291 185.459 117.505 185.674 117.505 185.829C117.505 185.946 117.777 186.004 117.835 186.004C118.088 186.16 118.205 186.043 118.419 185.887C118.575 185.829 118.847 185.732 118.964 185.556C119.061 185.459 118.905 185.187 118.905 185.031C119.177 185.031 119.275 185.303 119.547 185.245C119.703 185.187 119.819 185.031 120.033 184.973C120.189 184.914 120.072 185.304 120.131 185.343C120.189 185.518 119.917 185.459 119.859 185.518C119.489 185.673 119.217 185.518 119.333 186.004C119.431 186.316 119.644 186.9 119.819 187.114C120.131 187.386 120.306 187.931 120.461 188.243C120.675 188.671 121.162 189.099 121.103 189.644C121.045 190.287 120.462 189.645 120.131 189.976C119.917 190.19 119.975 190.228 120.189 190.345C120.306 190.403 120.345 190.657 120.189 190.715C120.131 190.715 119.858 190.501 119.917 190.715C119.917 190.929 120.247 190.871 120.345 190.871C120.617 190.871 120.559 191.416 120.675 191.63C120.773 191.786 121.259 192.642 121.531 192.486C121.901 192.214 121.745 191.785 122.29 191.902C122.543 191.961 122.543 192.175 122.659 192.331C122.757 192.428 123.185 192.272 123.301 192.272C123.827 192.272 123.613 193.245 124.216 193.07C124.488 193.031 125.227 193.071 125.383 193.343C125.499 193.518 125.344 193.732 125.441 193.946C125.5 193.946 125.655 194.16 125.655 194.199C125.714 194.199 125.869 193.674 125.928 193.616C126.2 193.343 126.083 192.642 126.472 192.486C127.211 192.117 126.686 193.032 126.686 193.246C126.686 193.616 126.842 193.771 127.153 193.946C127.542 194.199 128.029 194.472 127.756 195.017C127.484 195.543 127.698 195.601 128.126 195.601C129.196 195.601 128.554 196.516 127.912 196.574C127.698 197.275 128.923 196.574 128.981 196.574C129.371 196.516 129.954 197.1 129.954 197.489C129.954 197.801 129.74 198.501 130.168 198.716C130.382 198.832 130.966 198.599 131.18 198.56C131.724 198.56 132.308 198.502 132.736 198.774C133.28 199.047 133.436 198.832 133.864 198.56C133.923 198.56 134.448 198.171 134.448 198.443C134.448 198.599 134.409 198.774 134.292 198.832C134.02 198.988 133.806 199.202 133.553 199.3C133.553 199.3 133.436 199.358 133.494 199.358C132.891 199.514 132.094 199.475 131.452 199.416C130.907 199.299 131.083 199.845 130.596 199.845C130.324 199.845 129.526 199.689 129.585 200.117C129.585 200.545 130.44 200.429 130.693 200.585C131.024 200.76 131.51 200.974 131.51 201.46C131.51 202.044 131.666 201.986 131.997 202.472C132.211 202.745 132.25 203.173 132.464 203.485C132.58 203.66 132.308 204.458 132.464 204.575C132.58 204.185 132.95 203.874 133.125 203.543C133.806 203.601 132.677 204.614 132.638 204.614C132.794 204.575 133.65 204.244 133.378 204.789C133.339 204.886 132.853 204.886 132.678 204.945C132.522 205.1 132.308 205.256 132.249 205.529C132.21 205.646 132.249 206.015 132.094 206.015C131.938 206.074 131.822 206.113 131.783 206.288C131.666 206.561 131.783 206.775 131.608 206.989C131.569 207.203 131.452 207.359 131.452 207.631C131.452 208.157 132.036 208.546 132.036 209.071C132.036 209.402 131.938 209.772 131.822 210.103C131.724 210.259 131.569 210.317 131.452 210.473C131.394 210.57 131.608 210.746 131.569 210.901C131.51 211.174 131.452 211.33 131.452 211.602C131.394 212.128 131.394 212.673 131.88 212.984L132.094 213.043C132.425 213.159 132.678 213.198 133.067 213.315C133.592 213.471 134.136 213.198 134.448 213.685C134.623 213.86 134.72 214.074 134.934 214.016C135.206 214.016 135.362 214.113 135.479 214.327C135.576 214.503 135.537 214.658 135.751 214.658C135.907 214.6 136.179 214.386 136.12 214.23C136.762 214.113 137.56 214.386 138.105 213.958C138.533 213.646 138.863 214.113 138.961 214.503C139.116 215.028 139.291 215.573 139.661 215.943C139.684 215.963 139.709 215.981 139.733 216C140.369 215.786 140.946 215.435 141.431 214.814C142.228 213.802 142.773 213.101 144.057 213.101C144.33 213.043 144.427 213.257 144.699 213.16C144.972 213.043 145.03 212.673 145.341 212.614C145.983 212.517 146.314 213.159 146.897 212.731C147.267 212.4 147.228 211.661 147.753 211.485C148.57 211.271 150.126 211.388 150.865 211.699C151.449 211.913 151.624 212.458 152.422 212.614C152.966 212.731 153.064 212.731 153.433 213.101C153.881 213.529 153.88 213.958 154.62 213.802C155.32 213.685 155.904 213.043 156.02 212.4C155.437 211.914 155.262 211.271 154.892 210.687C154.522 210.045 154.134 209.5 153.92 208.799C153.764 208.059 153.55 207.787 153.822 207.086C154.133 206.327 154.25 206.015 154.309 205.159C154.892 205.217 154.834 204.828 155.203 204.614C155.534 204.458 155.69 204.575 156.079 204.614C156.39 204.614 156.759 204.517 157.09 204.614C157.732 204.731 157.304 204.672 157.635 205.042C158.102 205.646 158.277 205.743 158.919 206.015C159.619 206.288 160.047 206.443 159.989 207.3C160.203 207.358 160.961 207.514 161.058 207.728C161.272 208.215 160.786 208.371 160.689 208.799C160.514 209.286 160.572 209.286 160.903 209.714C161.117 209.986 161.428 210.142 161.759 210.356C161.915 210.473 162.343 210.998 162.556 211.057C163.101 211.174 163.529 209.558 164.015 209.13C164.268 208.799 164.716 208.76 164.871 208.273C165.027 208.001 165.027 207.242 165.027 206.93C165.727 206.872 166.097 206.775 166.7 206.561C167.225 206.327 167.925 206.327 168.256 205.743C168.567 205.217 168.197 204.517 168.567 203.972C168.839 203.543 169.696 202.959 170.182 203.017C170.337 203.66 171.038 204.186 171.621 204.4C172.594 204.828 172.38 204.088 172.536 203.271C172.652 203.056 172.691 202.473 172.905 202.317C173.177 201.986 173.547 202.317 173.819 202.044C174.033 201.83 174.033 201.285 174.208 201.071C174.422 200.798 174.889 200.759 174.889 200.273C174.85 198.988 171.952 198.501 172.691 196.944C172.963 196.36 173.294 196.457 173.819 196.399C174.52 196.302 175.92 196.185 175.531 195.231C175.375 194.9 175.22 195.114 175.317 194.686C175.492 194.161 176.29 193.46 176.659 193.031C176.99 192.701 177.36 192.389 177.69 192.058C178.216 191.63 178.76 191.474 178.643 190.618C178.605 189.859 178.488 189.528 179.13 188.944C179.733 188.36 180.2 188.087 181.017 188.029C181.055 187.542 181.055 186.958 181.017 186.472C179.772 186.374 179.733 185.031 179.772 184.058C179.772 183.474 179.772 183.143 179.188 182.87C178.702 182.656 178.216 182.831 178.118 182.131C177.904 181.099 178.216 180.087 177.846 179.172C177.632 178.685 177.749 178.315 177.69 177.789C177.574 177.089 177.262 177.303 176.62 177.186C176.562 176.661 176.873 175.746 177.418 175.473C178.118 175.103 178.332 175.473 178.546 174.558C178.643 174.072 178.702 173.643 178.858 173.157C178.916 172.845 179.344 172.144 179.285 171.813C179.188 171.444 178.604 171.015 178.546 170.49C178.488 170.003 178.916 169.672 178.974 169.186C179.072 168.543 178.916 168.271 178.702 167.803C178.488 167.2 178.643 166.947 179.188 166.675C179.986 166.285 180.531 166.402 181.172 165.701C181.717 165.059 182.145 164.3 182.67 163.657C183.584 162.645 184.071 161.419 184.771 160.231C185.043 159.686 185.51 158.986 185.082 158.518C184.868 158.187 184.499 158.09 184.226 157.817C184.012 157.486 184.012 157.214 183.954 156.844C183.915 156.202 184.012 155.657 183.643 155.131C183.429 154.858 183.098 154.586 183.001 154.275C182.884 154.061 182.943 153.632 183.001 153.36C183.001 153.087 183.098 152.873 183.059 152.601C182.728 152.562 182.515 152.776 182.242 152.717C182.184 152.114 182.184 151.9 181.931 151.433C181.658 150.888 181.017 150.459 180.531 150.031C180.161 149.759 180.103 149.817 179.616 149.7C179.033 149.545 178.488 149.058 177.904 148.902C177.301 148.746 176.718 148.688 176.134 148.416C175.804 148.318 175.706 148.201 175.317 148.201C174.889 148.201 174.675 148.143 174.364 148.046C173.664 147.773 173.333 147.131 172.905 146.547C172.75 146.274 172.049 144.989 172.321 144.775C172.38 144.717 173.08 144.658 173.119 144.6C173.391 144.561 173.664 144.503 173.936 144.386C174.52 144.133 174.889 143.432 175.161 142.828C175.531 142.147 175.862 141.544 176.134 140.804C176.407 139.889 176.62 139.772 177.535 139.831C177.748 139.831 177.749 139.675 177.963 139.714C178.002 139.772 178.177 139.948 178.216 139.948C178.43 140.103 178.76 140.317 178.974 140.201C179.344 140.045 179.402 139.558 179.83 139.461C180.316 139.344 180.414 139.675 180.686 139.247C180.9 138.858 180.9 137.573 181.717 138.06C181.873 138.176 182.028 138.604 182.184 138.76C182.398 138.974 182.612 139.072 182.942 139.188C183.487 139.344 184.129 139.402 184.654 139.461C184.868 139.5 185.199 139.617 185.413 139.617C185.899 139.558 185.685 139.403 186.055 139.13C186.541 138.819 187.125 139.5 187.669 139.286C188.136 139.072 188.739 138.059 188.895 137.631C189.264 136.93 188.584 136.444 188.039 136.074C187.456 135.587 186.969 135.003 186.424 134.361C185.996 133.816 185.724 133.329 185.627 132.687C185.51 131.675 185.471 130.273 185.627 129.261C185.724 128.716 186.113 128.287 186.211 127.762C186.366 127.158 186.113 126.944 185.782 126.458C185.296 125.718 184.771 125.017 185.199 124.102C185.51 123.46 185.996 123.304 186.424 122.759C185.899 122.175 185.296 122.175 184.654 121.903C184.07 121.689 183.915 120.929 183.215 120.559C182.086 119.917 181.055 119.586 179.733 119.586C178.857 119.586 178.488 119.372 177.904 118.73C177.359 118.087 177.301 117.776 177.418 116.958C177.477 116.374 177.574 115.79 177.632 115.187C177.69 113.902 176.873 113.318 176.134 112.403C175.706 111.916 175.803 112.033 176.192 111.547C176.62 111.002 176.932 110.301 177.301 109.717C177.632 109.23 177.787 108.588 177.787 108.004C177.846 107.187 177.69 106.875 177.301 106.291C176.99 105.746 176.776 105.104 176.445 104.52C176.134 103.916 175.706 103.39 175.376 102.748C174.792 101.658 174.092 100.432 173.547 99.2443C173.178 98.4461 172.438 98.2318 172.438 97.3753ZM114.369 116.463C114.731 116.894 114.995 117.513 114.995 118.087C114.995 118.148 115 118.207 115.008 118.265C115.038 117.694 115.03 117.098 114.606 116.588C114.517 116.523 114.44 116.493 114.369 116.463Z" stroke="#233B77" stroke-width="2.01593"/>
</svg>
