<svg width="250" height="250" viewBox="0 0 250 250" fill="none" xmlns="http://www.w3.org/2000/svg">
<path d="M173.278 26L173.863 30.3125L175.3 31.5454L177.933 33.4701L179.787 34.5301L181.558 35.2498L183.083 35.6793L184.024 36.6556L183.529 38.0615L182.944 39.1271L183.278 41.5148L184.219 43.3503L184.882 45.3643L185.466 46.8594L186.658 47.752L187.521 47.8357L188.712 48.2708L188.545 50.5359H187.437L186.084 52.2933L184.976 53.7884L183.039 56.946L181.597 60.3659L180.327 63.0103L179.464 64.2488L178.028 65.4817L176.836 65.3088L175.806 65.4817L174.286 65.6491L172.594 65.9113L171.074 66.3353L170.133 67.9196L169.548 70.737L169.632 73.1248L169.548 74.9602L170.405 77.2308L170.901 80.7344L171.48 85.6493L172.337 88.4667L173.278 91.4514L173.529 93.9229L173.941 96.3999L175.049 98.0679L176.324 98.3245L178.178 99.9034L181.229 102.001L184.191 103.234L185.216 105.711L186.903 107.803L188.846 109.304L190.617 110.972L191.808 112.205L192.226 114.213L193.334 116.947L196.051 120.015L198.601 121.165L200.789 122.141L204.252 122.057L206.552 122.23L209.436 121.973L212.481 122.141L214.781 122.314L215.889 122.057L217.993 121.717L220.377 121.192L222.069 121.801L222.398 122.861L221.457 125.248L219.77 127.725L217.993 130.37L217.659 131.781L218.328 133.36L220.349 134.253L222.37 134.426L224.057 134.253L226 133.817L224.146 135.486L222.954 137.868L221.429 140.428L219.903 142.52L218.545 144.618L216.852 146.889L215.327 148.724L213.974 152.233L214.302 154.074L214.636 155.653L214.803 157.41L214.141 158.989L213.562 159.335L212.37 159.592L209.981 159.848L208.545 159.932L205.995 160.998L204.057 161.717L203.027 162.236L199.731 165.478L198.79 166.8L198.122 167.776L197.543 170.42L198.044 173.148L196.518 173.757L193.89 172.691L192.782 172.434L191.346 171.291L191.179 170.052L191.012 168.127L190.154 166.376L187.966 165.572L186.53 164.334L185.004 163.358L184.063 162.125L183.735 160.975L183.15 158.967L182.482 157.042L180.711 155.458L179.52 155.977L178.495 157.215L177.22 158.788L175.778 161.946L175.032 163.531L174.091 165.801L173.423 166.777L172.232 166.521L170.289 165.455L168.596 164.395L167.404 165.115L166.825 167.04L167.326 168.964L168.351 170.287L169.71 171.787L170.289 173.366L170.122 174.951L170.372 176.529L170.038 178.627L169.871 181.098L169.704 183.196L169.62 185.467L170.394 186.7L171.168 187.933L172.36 189.511L172.61 190.75L172.443 192.585L172.276 194.968L171.859 198.477L171.196 200.948L169.921 203.509L169.342 206.069L168.396 207.821L167.037 209.227L165.183 208.335L163.991 206.069L163.412 204.831L162.304 204.145L160.367 203.425L158.179 202.901L156.325 202.215L155.133 201.149L153.941 200.803L152.416 201.149L150.974 201.065L148.674 199.397L146.653 199.051L145.629 200.809L145.462 202.56V204.742L144.716 206.583L142.694 208.162L141.754 210.639L141.252 211.961L141.002 212.77L140.584 213.456L138.975 213.802L137.867 213.456L136.347 212.68L134.243 212.424L132.55 213.657V215.754L132.466 217.506L131.108 219.52L130 222.075L128.474 223.487L126.949 224L125.173 223.833L122.545 223.141L121.353 221.819L119.243 220.151L117.222 218.315L116.364 217.886L115.423 218.399L114.649 217.886L113.903 216.736L112.879 215.414L111.353 213.484L110.084 212.251L108.475 212.764L107.367 212.044L105.346 211.877H103.993L102.467 212.134L101.604 213.11H100.747L100.418 211.877L100.001 208.719L99.3324 206.443L99.0039 204.346L98.5084 201.534L98.2578 199.777L97.6732 198.717L96.2367 196.44L97.0942 195.721L97.5953 194.661L98.0964 193.941L99.6164 192.792L100.474 191.475L101.058 190.499L101.387 189.891L101.303 186.906L101.22 185.5L100.969 184.892L100.028 184.29L98.3414 182.621L96.4873 180.78L96.1532 179.196L97.0107 177.271L98.8647 175.006L100.14 172.619L101.248 171.469L102.523 169.801L101.665 169.199L99.3658 168.68L97.7568 168.512L95.9862 168.167L94.9561 167.107L94.6276 165.009L93.2691 164.033L91.994 163.056L91.0531 162.543L89.7781 162.37H89.1155L88.091 162.03L87.3115 161.857L86.4541 162.577L85.5966 163.268L85.1011 164.328L84.0711 166.08L83.8205 168.351L83.737 170.995L84.0655 171.798L83.1245 174.962L82.9631 176.97L82.2949 180.736L82.629 182.744L84.4831 185.561L84.9842 188.206L84.4831 189.785L82.629 191.369L81.4375 191.709L79.2438 192.518L76.7828 192.429L74.5891 191.91L72.9021 190.677L71.46 189.099L70.0179 189.439L68.4979 190.159L66.4768 191.654L65.5359 192.083L63.5982 192.803L60.5471 193.316L58.938 192.803L56.8334 190.878L55.8089 189.294L54.2833 188.317L53.5372 188.234L51.2377 188.317L49.8792 187.43L48.6097 186.454L47.0006 185.93L45.0574 185.589L43.7045 185.16L42.0954 184.987L41.3214 182.432L40.6533 179.955L39.6288 176.792L37.8527 174.32L36.4107 171.676L36.3271 169.204L36.9897 165.779L36.8282 163.77L37.7692 160.696L36.1601 157.795L34.4675 156.044L32.2793 155.151L30.5032 154.638L29.0667 154.286L27.2126 153.053L26.0211 152.54L25.0802 150.788L24.5791 149.555L24 148.317L26.4665 147.597L28.6547 144.953L30.0132 143.374L32.2069 140.038L33.4764 137.572L35.414 135.904L38.2146 133.711L39.8237 133.366L41.3437 132.847H42.2847L44.1387 133.193L45.9984 133.538L48.1866 133.366L50.2912 133.193L52.5907 133.025L54.6118 132.679L57.2398 133.025L58.9268 132.852L60.2854 131.619L60.3745 129.438L61.0371 126.186L59.6841 124.607L58.5761 122.515V118.464L58.7431 115.647L59.0772 113.176L59.4948 111.418L61.8778 105.27L61.4602 103.602L61.7107 101.326L62.0448 99.6579L62.3733 98.425L64.3165 97.1921L67.2785 95.0107L69.2162 93.5211L70.7417 92.9968L71.6883 90.8154L72.1838 89.1473L73.0412 86.966L74.0657 85.8167L76.0033 86.1626L78.6369 87.3955L80.9364 88.4555L83.2359 89.1473L84.5889 88.8014L86.3594 87.3955L87.8015 86.7875L89.9897 86.7038L93.8983 85.2923L97.1109 84.6898L99.4939 85.2923L102.539 86.5253L104.316 87.5016L107.194 88.1096L111.019 88.1933L113.402 86.8712L113.82 84.1375L113.324 81.4931L112.216 77.705L110.78 75.0606L110.117 72.2433L110.034 69.5989L110.446 67.4176L112.3 64.6002L113.241 63.6239L115.262 62.0396L120.44 60.4607H122.99L124.182 60.8011L126.286 60.4607L130.523 57.4704L132.377 55.9753L133.046 54.4801L133.38 52.2096L134.321 49.0519L135.512 47.6404L138.892 46.5804L141.442 46.0616L144.242 45.5428L145.762 45.2025L147.455 43.9696L149.142 42.2122L151.943 40.1201L154.242 39.9472L157.377 38.1954L159.147 37.3027L161.948 35.551L163.969 34.0503L165.662 34.1396L166.603 35.1996L166.764 36.4325L167.176 37.6654L168.952 36.9458L170.227 35.3669L171.669 33.0963L173.022 31.0042L173.278 26Z" fill="#233B77"/>
</svg>
