<svg width="250" height="250" viewBox="0 0 250 250" fill="none" xmlns="http://www.w3.org/2000/svg">
<path d="M125.724 39.5864L136.524 47.4142L148.959 51.2273L150.493 55.8675L152.824 62.1015L162.927 63.702L170.659 59.7882H182.289L186.255 68.4835L185.023 71.5703L184.822 73.8904V76.1096L185.223 76.8359L185.726 79.9226L187.354 83.8433L188.486 85.5379L186.952 86.4055L186.255 87.9993L183.924 90.4203L181.793 93.1574L181.298 96.345L180.36 98.8736L180.661 101.295L181.994 101.395H183.529L184.661 102.68L185.264 104.381L186.597 105.659L187.528 105.968L188.66 106.278L189.9 107.354L191.427 108.322L191.829 110.44L190.798 112.653L189.263 113.83L188.768 116.049V116.917L188.962 119.028L190.496 120.003L193.263 119.27L195.199 118.853L195.695 117.367L197.732 116.95L199.862 116.748L200.659 117.818L200.063 121.214L198.73 122.915L196.298 125.444L196.599 127.347L197.832 128.181L199.768 128.598L203.835 128.8L207.5 128.699L209.034 129.667L209.335 132.404L211.265 134.307L211.667 135.383L212.062 137.078L211.962 139.607L211.66 143.003L211.56 143.87L210.126 149.788L210.427 152.317L211.761 153.393L213 155.713L211.566 157.515L209.737 159.109L209.643 160.703L208.009 163.574L205.041 164.408L201.972 165.135L200.941 164.825L199.413 165.693L197.075 167.179L194.844 169.499L192.412 173.305L191.615 174.489L190.717 176.392L188.982 177.677L187.454 176.076L185.518 174.381L183.683 174.59L182.249 176.076L180.715 178.605L178.678 181.792L177.043 183.904L175.811 186.89L173.874 191.221L173.472 194.092L173.07 197.179L172.568 201.093L172.266 203.823L171.57 207.011L171.268 209.331L169.634 211.449L167.001 214.422L164.971 217.401L161.902 221.422L159.263 224.166L153.36 225L149.294 224.375L147.558 223.507L144.49 222.021L143.157 219.143L141.924 213.426L141.623 209.512L139.787 208.026H138.755L137.127 208.443L134.789 209.519L132.853 209.829L130.421 209.519L127.654 207.616L124.78 205.915L122.247 205.713L120.512 205.504L118.576 205.094L116.439 203.81L115.005 201.799L112.573 200.521L110.737 197.643L111.133 195.733L113.665 194.038L115.601 192.337L116.305 191.718L115.508 190.649L113.076 189.364H111.441L109.009 188.531L107.575 186.002L106.771 183.682L105.833 180.293L104.5 177.206L103.267 173.5L101.834 171.913L101.231 170.736L98.3633 168.41L96.0318 167.999L94.5981 167.69L92.5614 167.381L90.9267 167.172L90.23 166.096L90.632 165.027L91.6637 163.541L93.2984 162.256L94.1024 160.145L94.3034 158.45L92.2667 156.439L90.1362 155.054L87.8986 154.536L84.8301 153.568L83.7984 154.845L83.2959 156.13L82.6997 157.408H81.6679L80.6362 156.439L79.2025 154.637L77.5745 154.428L75.444 153.595L72.9049 153.904L71.3706 152.626L71.6721 150.407L72.3756 149.681L74.2046 149.163L75.444 147.051L75.645 145.35L73.9098 142.821L71.7793 142.613L70.2451 142.404L69.9436 141.779L68.5099 140.709L67.1767 140.286L66.7747 140.804L66.1718 141.981L65.7765 142.848L64.9792 143.924L63.9408 143.5H62.9091L60.3766 142.882L57.6097 140.871L55.0772 139.176L51.9083 136.964L49.7712 136.13L47.5402 136.022L44.9073 135.713L42.2676 136.13H40.6396L40.3382 134.22L38.9044 132.108L38.3015 129.788V125.767L38 123.238L38.7034 120.259L39.1054 117.273L41.2359 113.675L43.8688 110.588L45.2021 107.959L45.7983 104.563L46.5956 101.833L48.2303 101.214L51.0977 100.138L52.2299 98.961L50.5014 96.7417L48.3643 95.0403L47.031 94.2132L44.4986 91.3349L43.4669 89.1157L43.2659 86.3786V83.9576L44.6996 79.1762L47.768 76.4392L50.1999 74.3275L51.7342 73.6953L49.999 70.0975L48.4715 67.3605L46.3343 66.076L45.0011 65L44.6058 62.6798L45.2087 59.4922L45.805 55.2689L47.2387 51.2474L47.7412 48.9273L46.9373 46.6073L46.4348 46.1902L44.2038 43.8702L56.7388 35.1749L62.2391 41.308L69.9772 42.9086L84.6425 38.2683L97.8742 35.1815L106.436 25L108.667 31.234L110.302 45.2286L118.033 49.1425L125.724 39.5864Z" fill="#233B77"/>
</svg>
