<svg width="250" height="250" viewBox="0 0 250 250" fill="none" xmlns="http://www.w3.org/2000/svg">
<path d="M102.55 55.865L104.357 56.0582L105.882 56.5384L108.058 56.9187L109.865 57.4987L111.297 58.5899L112.823 59.5875L115.405 59.494L116.243 59.5875L117.956 60.6788L119.107 62.4496L121.47 64.6008L123.277 65.1808L126.704 64.6008L128.88 63.7965L129.936 63.3164L132.206 61.6452L133.913 60.8409L135.532 60.4543L137.146 62.2252L139.04 63.6032L141.504 64.1769L144.274 64.2767L146.731 63.3725L148.069 62.9859L150.151 61.215L150.708 59.4504L150.151 56.4947L148.069 53.3458L147.7 51.0948L148.444 46.8921L148.632 44.641L149.688 41.1117L149.319 40.2138L149.413 37.2581L149.695 34.7203L150.851 32.7624L151.408 31.5714L152.377 30.8044L153.34 30L154.209 30.0935L155.359 30.5799H156.11L157.542 30.7732L158.605 31.3531L160.03 32.4443L161.556 33.5356L161.931 35.8801L163.081 37.0649L165.07 37.4452L166.871 37.6385L169.453 38.2184L170.416 38.8981L168.99 40.7625L167.746 42.0471L166.314 44.7159L164.226 47.2474L163.263 49.3987L163.632 51.1696L165.714 53.221L167.615 55.0855L168.671 55.7589L168.953 56.4323L169.047 58.0037L169.14 61.3459L168.771 62.0194L168.115 63.1106L167.152 64.5884L165.439 65.8729L164.882 66.6773L164.326 67.8621L163.363 68.6664L164.976 71.2106L165.633 72.3952L165.914 74.3532L166.47 77.5022L166.846 79.8467L167.59 82.3783L168.059 85.9201L168.434 87.2981H169.397L170.36 86.2069L172.073 85.9201H173.598L175.868 86.1072L177.112 86.9115L176.362 87.3044L175.806 89.1688L175.062 90.6404L174.311 93.1782L172.786 93.5586L170.422 92.5609L169.459 93.147L169.178 94.7184L168.715 95.7161L167.752 96.003V96.9071L169.184 98.6717L170.147 100.243L167.283 102.014L167.189 103.392L168.152 104.39L169.959 104.776L171.86 105.157L172.042 106.348L170.985 107.152L169.647 108.05L169.184 109.721L168.528 111.299L167.971 112.976L167.227 114.454L165.514 115.133L163.901 115.034L162.094 115.227L161.037 115.514L160.287 117.571L160.005 118.756L159.167 120.908L158.423 121.905L157.867 122.678L157.398 123.059L157.023 125.21L156.929 126.588L156.835 128.933L158.361 129.319L160.168 130.311L161.975 132.275L162.938 133.46L164.745 134.651L167.421 137.313L168.484 138.08L170.566 140.044L173.148 143.287L175.912 148.774L176.012 150.925L176.756 152.503L176.381 154.467L176.193 156.232L176.656 158.576L177.312 159.349L179.019 159.73L180.358 159.923L181.008 160.303L181.658 160.69L183.559 161.495L184.522 161.875L186.423 164.026L187.761 165.797L189.474 167.948L192.988 171.478L193.863 172.251L195.57 174.308L197.752 179.316L199.466 182.371L202.048 185.707L203.855 188.376L205.005 191.238L206.343 194.674L206.437 196.052L206.719 198.203L207 200.547V202.125L206.719 204.463L206.35 205.461L204.543 207.706L203.111 208.897L202.054 209.377L200.347 210.275L199.009 211.56L197.765 212.938L196.058 214.895L195.308 215.8L193.97 215.893L192.725 216.28L191.481 216.754L188.899 217.24L186.129 218.238L182.796 219.136L179.094 221L175.112 220.813L172.248 220.62L169.978 219.335L166.089 218.655L162.019 218.076L159.836 218.175L157.942 218.269L154.709 217.465L151.008 216.791L148.144 216.691L145.474 216.404L143.204 214.733L141.122 213.062L139.228 212.769L136.858 212.096L136.114 210.425L133.438 204.545L130.855 199.244L129.611 196.095L129.236 195.098L127.71 192.759H125.91L123.046 193.564L121.245 194.144L119.344 194.948L117.819 196.133H115.962L114.155 194.368L112.91 192.597L111.103 191.6L109.859 192.597L108.702 191.699L107.864 190.795L106.995 190.122L106.245 190.608L104.907 190.988L103.663 190.795L102.7 190.022L101.949 188.064L101.08 186.106L99.8361 183.562L97.6601 182.284L93.771 180.226L90.7197 179.453L85.7739 176.915L83.4104 174.951L81.7909 173.766L78.0894 169.239L75.3195 164.619L72.7371 160.983L70.655 158.028L67.2286 153.114L64.7713 149.385L61.8138 147.521L57.8309 148.194L55.5612 148.581L55.0984 147.203L53.1101 145.432L54.1668 145.145L53.2039 144.465L51.3093 142.894L51.9596 140.936L52.7037 138.592L53.6728 135.829L54.048 134.358L51.8721 131.913L49.7899 131.333L47.3327 130.342L46.0884 128.958L45.3443 126.713L44.3752 124.368L44.1876 122.317L44 119.972L44.6503 117.017L46.3635 116.337L48.4457 115.664H50.6216L52.8913 116.655L54.0417 114.89L54.5045 112.932L54.5982 110.27L53.948 107.825L52.8913 106.834L52.6099 101.958L52.4223 99.8004L53.3852 98.6156L54.2231 97.0442L56.2177 96.5641L58.1122 96.4706L60.1068 97.9484L61.5324 98.8463L63.4332 100.611L64.2711 101.197L64.1773 104.34L62.8392 106.784L62.2765 108.642L63.4332 109.222L64.8588 108.642L67.2223 106.684L69.8046 105.013L72.1744 104.82L74.4441 104.047L76.7138 103.666L80.6905 102.189L83.4604 99.4262L86.693 96.2773H88.3125L91.0824 98.8213L94.0399 99.9126L96.3096 99.526L98.9857 97.6615L101.849 95.5103L104.025 92.1743L106.107 86.8742L106.295 83.1453L106.014 79.616L105.545 75.8872L105.451 71.7779L104.207 69.3399L102.212 67.3757L101.155 66.0974L102.493 61.982L102.212 60.7972L102.4 57.455L102.55 55.865Z" fill="#233B77"/>
</svg>
