<svg width="250" height="250" viewBox="0 0 250 250" fill="none" xmlns="http://www.w3.org/2000/svg">
<path d="M163.772 89.7135L176.694 94.6009L192.834 109.039L199.269 115.595L217.116 120.383L226.761 128.469L237 139.477L234.805 141.344L230.275 143.013L225.752 144.47L221.553 143.013L218.236 143.422L215.415 144.035L212.824 146.211L210.727 148.593L207.708 151.613L205.11 152.332L200.192 152.734L197.699 153.038L196.19 151.475L191.898 156.672L189.794 160.003L188.093 161.256L186.584 162.918L181.362 167.509L180.676 168.32L178.672 169.481L175.949 172.159L171.651 175.384L168.829 176.439L165.908 177.798L162.394 178.411L158.293 179.025L153.665 179.229L150.646 179.532L147.131 181.195L143.228 182.652L140.209 184.723L138.897 185.541L137.196 188.568L135.488 191.147L134.077 193.838L132.765 196.76L131.157 199.438L128.856 201.001L124.234 203.178L120.72 205.994L117.41 206.812L114.912 206.917L112.914 207.32L109.4 206.264L105.299 205.763L102.187 205.044L99.0688 204.193L98.6799 202.736L94.8757 206.264L93.1681 208.744L90.676 211.02L89.0673 212.28L86.9642 212.682L84.3732 212.069L82.0722 215.399L81.2811 216.962L79.8702 218.222L77.5758 219.172L74.8529 219.99L72.8487 220.94L70.2576 222.199L66.948 223.149L64.7525 224L62.5571 223.796L59.3397 222.846L57.2365 223.149L55.8257 221.078V219.409L55.529 218.46L55.0345 217.2L54.0192 215.742L53.4324 215.023L52.3116 212.748L51.1051 210.776L49.4964 208.401L47.9867 206.528L47.0702 204.457L46.7735 202.386L45.8571 199.26L44.8418 197.387L44.0572 194.056V192.189L43.2661 188.456L42.3827 185.633L42.2903 183.153L40.4839 177.244L41.275 173.3L41.9607 172.996L44.9803 171.024L45.9956 166.236L44.3869 163.413L41.9936 160.933L40.3916 158.961L37.6687 157.912L34.9458 156.956L35.0381 154.37L32.4471 152.913L30.6406 152.609L29.4275 152.913L27.1265 153.631L25.7156 153.526L25.2212 151.554L24.9245 147.715L24.8256 143.369L26.5332 140.684L29.4539 139.227L32.4734 137.868L33.7855 136.509L34.6689 135.896L35.3546 135.388L37.161 134.676L37.5566 131.648L38.473 128.014L38.9609 122.408L38.473 118.061L42.0794 116.802L44.6704 113.266L43.9781 110.345L42.0794 106.605L41.9805 103.584L40.6685 99.541L39.6466 95.6034L40.2333 93.7302L44.6638 89.2782L47.6834 87.1083L48.8965 87.9195L50.6964 91.2437L51.7117 94.779L52.8259 99.0265L55.8454 99.1254L58.4365 99.5344L60.1375 101.302L62.0428 102.351L65.0031 100.821V98.545L64.5086 95.2143L64.0141 92.9388L65.7217 91.4812L67.6204 90.7688H69.9214L71.0356 89.2057L72.2487 87.1346L72.7432 84.8591L71.8268 82.6826L71.1345 80.7105L68.7413 79.0484L65.036 75.7177L62.5439 73.8511L60.5396 74.1545L59.4189 74.6689L57.2234 74.8668L55.5224 74.6689L53.0303 72.7958L50.637 71.3382L47.7164 69.8806L44.6968 68.2119L41.486 65.9364L39.0928 63.7598L34.8931 61.181L32.4009 59.2088L31.0889 56.9334L30.0736 57.0323L30.7659 56.0825L29.2561 53.5037L29.4539 50.5818L27.2518 50.8918L23.6389 50.1729L20.3292 50.7863L17.2174 49.8365L14.2967 48.5767L14 47.4225L15.2131 45.3515L14.1978 43.8939L14.2967 41.0709L15.3186 40.3586H16.7295L18.6348 38.4921L19.9468 37.4368L22.1423 39.7122L24.7333 42.1922L27.7529 43.8543L31.0692 44.2566L35.6974 44.7645L37.7017 44.87L41.0113 45.5823L43.2068 45.0745L46.0285 45.6879L48.6262 47.561L50.6238 49.6321L52.8193 52.3165L54.6258 54.4864L56.2278 56.3596L58.3244 58.3317L59.7353 58.734L61.0473 58.3317L62.1615 56.874L62.656 53.2398L62.8538 49.6056L61.5418 47.7391L60.8561 44.8173L61.1528 42.4428L61.6472 39.4155L61.8451 36.0847L62.1417 32.9584L63.0252 29.7331L64.2449 27.761L67.7589 26.099L70.2511 26L73.9563 26.099H77.2725L78.7824 27.0487L78.5845 28.6119L78.8812 34.2181L77.5692 37.7468L77.0814 40.0223L76.3891 42.1988L76.2902 43.353L76.488 45.0151L78.4923 47.0862L79.7053 48.3459L83.9051 49.7046L86.3972 50.4169L88.8893 51.4722L91.2826 51.2678L94.8889 48.7878L97.6118 46.5123L99.8072 44.0324L102.827 41.9614L105.748 40.0948L108.042 39.4814L109.848 39.6859L112.762 41.3546L115.063 42.8122L117.977 44.4743L120.47 45.6285L122.962 45.3251L134.803 59.0506L147.725 50.9643L163.864 65.5011L157.337 73.5873L162.256 80.0378L163.772 89.7135Z" fill="#233B77"/>
</svg>
