<svg width="250" height="250" viewBox="0 0 250 250" fill="none" xmlns="http://www.w3.org/2000/svg">
<path d="M177.76 87.8407L177.837 99.1526H170.507L161.366 101.082L159.58 107.565L146.785 117.742L162.311 120.488L175.973 126.97L188.769 130.697L197.91 128.844L206.106 120.514L214.38 117.768L219.846 122.285V130.697L221.632 138.046V145.396L224.363 151.873L226 166.254L224.594 166.572L223.906 168.025L223.675 169.318L222.423 170.139L219.995 170.956L218.512 171.115L216.161 171.274L212.635 171.669H210.772L209.063 172.408L205.716 173.07L202.036 174.204L201.092 174.363L199.383 175.026L198.361 176.401L197.494 178.254L197.109 180.025L197.186 181.477L196.955 182.298L196.652 183.992L196.113 185.362L194.938 186.024H193.686L192.125 185.788L191.104 185.316L190.796 184.572L190.334 183.597L189.877 182.462L189.421 181.005L188.964 179.711L189.118 178.89L189.58 178.228L190.042 177.597L190.832 176.139L191.366 174.841L190.575 173.465L189.862 173.07L188.225 172.593L186.972 172.752L185.571 173.306L184.319 174.204L183.144 175.662L181.66 175.975L180.408 177.746L179.002 178.223L177.518 178.885L175.809 178.572L174.865 177.751L173.536 176.298L172.211 175.164L170.882 173.866L169.861 173.706L169.322 174.184L168.86 174.661L168.069 175.641L166.591 176.304L165.339 177.12L164.472 178.1L163.604 179.157L162.988 180.533L162.911 181.826L161.89 182.303L159.616 183.125L158.287 183.515L157.337 184.074L156.727 184.551L155.166 185.024L154.479 184.469L153.688 183.915L152.287 183.253L151.035 184.151L151.266 186.82L151.722 188.914L152.744 190.685L153.534 192.958L153.688 194.252L151.497 196.921L150.013 198.301L147.894 200.575L146.718 202.582L145.389 204.778L144.219 206.072L141.945 205.594L140.236 204.773L138.912 204.46L137.351 204.301L135.796 205.594L135.185 205.748L132.45 207.442L131.28 207.837L129.719 207.678L128.01 206.78L126.989 205.805L125.049 204.506L124.181 204.106L123.083 203.131L121.066 203.444L120.45 204.578L120.065 206.036V208.12L120.373 209.731L120.984 211.661L121.138 213.853L121.071 214.848L120.455 215.587L119.844 216.881L119.388 218.333L119.08 219.154L118.135 219.899L117.34 220.289L116.318 220.053L114.609 219.816L113.588 220.135L112.336 220.771L111.314 221.587L109.908 223.204L108.804 224.338L108.117 225.95L107.249 227.243L106.305 228.141L104.899 230.338L103.8 230.02L102.009 229.701L100.223 229.147L98.2058 228.09L97.0304 227.269L95.8551 225.575L94.7567 223.224L93.6584 221.033L92.791 219.103L91.4616 216.434L90.6661 214.504L89.3419 213.047L88.4745 212.149L88.1666 210.614L88.3205 209.48L88.7825 207.288L89.1674 205.6L89.6293 204.696V203.434L88.531 202.212L87.0477 200.205L85.8724 197.932L85.4925 195.74L85.3386 192.912V191.691L85.4925 189.417L85.6465 186.43V185.054L85.2667 182.545L84.5482 181.246L84.0862 180.697L83.3728 180.035L81.6637 177.838L80.2574 175.559L79.0051 173.476L77.6757 171.387L76.5004 169.036L75.633 166.839L74.5346 164.561L73.0513 159.803L72.2609 157.606L70.0642 156.307L68.6631 156.231L68.0472 156.621L66.7948 156.939L65.6965 156.78H63.1148L62.0165 155.322L61.7855 153.71L61.0669 151.781L60.1226 150.492L58.6393 149.671L56.6941 149.194L54.754 148.871L52.1723 148.794L50.1552 148.316L49.4367 148.157L47.009 147.757L45.2999 147.28L43.2828 146.145L41.3427 145.483L39.3975 144.349L38.4531 143.292L36.8928 141.916L35.8715 140.299L33.6748 138.529L31.6577 137.23L30.7903 137.076L29.384 137.23L29.7689 134.643L31.1752 130.045L30.7133 127.217L30.3335 125.446L29.615 123.013L28.9272 120.919L28.1368 117.937L27.9058 114.37L27.526 112.836L26.5047 111.219L25.0984 110.244L24 109.11L25.7091 107.18L27.7262 105.25L30.1539 103.874L31.786 103.638L33.2693 105.645L34.9784 107.021L36.5387 107.498L38.7354 108.478L40.6755 109.115L42.8774 108.95L44.4325 108.791H45.7567L43.7396 104.988L42.0305 101.842L40.9321 99.4862L40.3214 96.6582L41.2658 94.3846L42.903 92.4548L44.1554 91.3204L46.0184 91.4796L48.4461 93.0142L50.3092 94.3897L50.5402 93.5685L51.4846 93.2554L52.429 93.1733L53.6813 93.2554L54.2921 93.5685L55.0824 93.6506L56.0268 93.7276L56.8172 94.0407L57.6128 94.364L58.7111 94.7592L60.9848 95.0723L63.7153 95.3135L65.7324 95.9756L69.9462 96.1347L71.8863 96.9559L73.4414 97.5872L75.3815 95.6625L76.8597 92.7524L79.2873 91.7773L80.3087 89.4215L78.2916 88.046L75.941 86.5884L75.402 85.1359L76.0179 83.6783L77.0393 82.7031L79.159 81.7228L82.839 80.2703L85.3386 79.947L86.9758 77.5963L85.9545 75.7435L84.0144 74.1319L82.0743 72.9976L80.668 70.9036L80.0521 68.0756L78.8819 65.1655L77.8605 63.7951L76.1514 62.1836L74.6681 60.9672L73.1848 60.2281L71.1677 59.0939L69.9205 57.8775L69.9975 56.3429L70.8649 55.6808L73.0616 55.5268L75.1813 55.6808L76.9675 55.3677L77.3524 53.597L75.0017 51.3182L73.6724 49.7836L72.9846 48.9676L72.5278 46.6117L72.9846 44.3381L73.929 41.9053L75.7921 42.2184L78.2198 43.0396L80.0829 43.7017L81.5662 43.3835L82.7415 42.5674L83.9939 41.4331L84.5276 40.2886L85.78 40.2116L85.626 49.1728L91.5489 48.9367L91.7029 47.0069L91.5489 44.3381L91.4719 42.4083L91.7029 40.4785V38.5487L91.087 36.624L89.4548 34.6942L88.9159 33.2366L89.3727 30.8038L90.0605 28.2171L91.2358 26.3642L92.7191 23.6954L93.4325 21.9247L94.7618 21.5295L94.5309 20.3182H95.7832L97.8054 20L99.8225 20.2361L101.614 20.3182L103.169 20.9546L105.674 22.6432L107.537 23.9417L109.656 25.4763L111.596 25.9536H112.387L113.182 26.2718L113.793 25.4507L114.096 24.7885L114.558 23.8904L114.866 23.4952L115.887 23.7313L116.986 24.6295L117.217 25.1068L118.392 25.2659L120.024 25.425L121.348 27.3548L121.199 28.643L120.25 30.2598L118.844 30.655L118.31 31.2092L118.079 32.903L119.254 33.8782L121.194 33.6369L122.826 34.2734L124.079 34.4324L125.177 35.808L125.967 36.547H126.763L127.22 35.5718L127.677 34.5916L128.364 33.6164L130.792 34.3554L132.424 34.7506L134.056 35.808L135.617 37.3426L135.463 38.6359L134.852 40.2475L133.599 41.2278L132.809 42.3621L132.506 43.1781L133.04 43.9993L134.292 44.1585L135.853 44.3945L136.951 44.6306L138.737 44.9437L140.934 46.7144L141.396 47.6177L142.494 48.8341L143.439 51.6621L144.46 54.0179L145.173 56.6046L145.789 58.3753L146.888 60.3051L148.828 60.9415H150.003L151.866 61.9167L152.477 62.7379L151.938 63.2152L150.455 64.5086L148.515 65.8071L148.207 67.2647L149.613 69.4614L151.481 70.4366L152.656 71.9712L154.217 72.9463L155.7 73.2645L157.024 73.4236L158.964 73.5776L161.161 74.871L163.281 76.3286L165.149 76.5647L166.632 76.3286L168.418 75.5074L169.666 75.1943H170.461L171.867 76.3337L172.098 79.3157L173.043 83.6783L174.064 85.8749L176.415 87.0092L177.76 87.8407Z" fill="#233B77"/>
</svg>
