<svg width="250" height="250" viewBox="0 0 250 250" fill="none" xmlns="http://www.w3.org/2000/svg">
<path d="M71.6159 31.6164C74.4655 30.8562 79.0471 32.803 81.952 33.4519L85.0412 34.1256L87.3627 34.3109H89.0455L90.8142 34.1256L91.1827 33.6435L91.8214 31.9934L93.5042 28.5881L94.6342 26.4559L94.9106 24.5153L95.8564 22.1915L97.5392 22L98.5771 22.1915L100.991 23.749L103.625 25.8811L104.848 27.8217L106.715 29.478L107.845 30.7511L110.166 32.117L112.494 32.9142L114.907 34.2801L116.952 34.861L119.851 35.3307L120.711 35.5223L123.125 36.0908L126.208 36.1897L128.535 36.5667L130.857 37.1353L132.632 38.1242L133.762 39.6816L134.615 42.0053L134.892 43.9459L136.206 45.6887H139.197L140.603 45.8804L142.102 45.4971L142.833 45.0213L144.516 45.1139L147.144 46.6714L148.09 49.3165L149.865 55.0456L151.179 57.7834L152.223 60.4223L153.63 63.2591L155.22 65.7744L156.719 68.2897L158.401 71.0276L160.447 73.6727L161.3 74.4699L161.847 75.1375L162.701 76.7011L163.155 79.7293V81.3795L162.977 84.9825L162.793 87.7204V89.1789L162.977 92.5842L163.431 95.2293L164.838 97.9671L166.613 100.396L167.927 101.854V103.325L167.374 104.407L166.914 106.44L166.367 109.085L166.183 110.457L166.551 112.305L167.589 113.387L169.174 115.13L170.119 117.453L171.704 120.667L172.742 122.991L174.056 125.636L175.37 128.473L176.777 130.506L178.177 131.495L180.597 132.768L182.734 133.435L184.878 133.819L186.192 134.196L187.592 134.004L188.421 134.993L189.066 136.748V138.689L188.704 141.204L188.427 142.57L188.151 143.744L187.322 146.266L186.867 148.014L186.014 150.338L184.429 152.279L183.477 153.045L182.255 153.62L181.217 154.386L180.394 154.769L179.172 155.146L177.95 155.431L177.004 156.104L175.868 156.871L174.554 158.045L174.093 159.318L175.499 162.909L176.537 165.041L177.852 166.889L179.627 169.021L181.033 170.585L183.078 172.624L184.761 173.613L186.628 174.979L187.942 175.776L189.619 178.001L190.571 179.472L191.516 182.401L191.701 185.133L193.107 188.062L194.79 190.8L197.204 193.544L198.426 194.527L200.962 197.747L202 199.687L195.097 203.185L188.741 205.83H181.162L174.805 208.951L164.721 217.319L159.587 225.694L157.726 229L150.731 223.172L144.374 224.445L139.332 223.172L132.423 218.685L134.29 211.584L130.47 206.992L124.113 203.204H115.251L109.441 203.303L108.588 201.17L107.642 199.99C107.642 199.99 108.256 197.376 108.287 197.258C108.434 196.634 108.17 195.67 108.06 195.046C105.437 203.216 85.2807 190.936 79.8271 187.667C68.4714 180.862 59.1302 171.19 56.0349 157.909C52.915 144.547 52.8536 130.308 51.0173 116.712C49.2301 103.461 48.1737 89.1974 49.8197 75.8976C51.1217 65.3542 54.4074 54.1371 60.0268 45.0089C61.5315 42.5677 69.1286 32.5805 71.186 31.74C71.3088 31.7091 71.4623 31.6596 71.6159 31.6164Z" fill="#233B77"/>
</svg>
