<svg width="250" height="250" viewBox="0 0 250 250" fill="none" xmlns="http://www.w3.org/2000/svg">
<path d="M112.249 238.258C97.9766 233.137 94.2009 229.269 79.9186 205.135C75.8567 198.271 67.6214 186.561 61.618 179.111C55.3055 171.278 47.2607 158.651 42.5405 149.168C35.1098 134.239 34.458 132.065 35.2682 124.913C35.7576 120.592 37.7757 112.518 39.7528 106.971C42.9265 98.0673 44.2869 96.2915 51.3686 91.8088C56.5713 88.5155 60.7587 86.9628 63.286 87.3899C65.5379 87.7703 68.7393 86.8358 70.8713 85.1756C76.1707 81.049 78.5566 61.7526 75.2954 49.3949C73.0017 40.7032 73.0059 40.6751 76.8371 39.2338C79.8305 38.1076 80.6789 36.6425 80.6789 32.5998C80.6789 29.7462 79.5508 25.8175 78.1719 23.8695C74.2622 18.346 72.5091 11 75.1007 11C80.4999 11 91.7585 17.3735 94.0269 21.7141C96.7884 26.9984 99.34 28.2834 107.072 28.2834C110.13 28.2834 114.528 29.7203 116.997 31.5262C121.12 34.5426 121.808 34.6055 126.856 32.4265C129.841 31.1381 133.48 29.7215 134.942 29.2785C136.404 28.8356 138.815 25.9416 140.299 22.8476C142.452 18.3568 143.437 17.5841 145.182 19.017C146.384 20.0043 147.368 22.737 147.368 25.0898C147.368 27.4425 148.797 30.6473 150.543 32.2114C152.29 33.7755 153.719 35.8318 153.719 36.7808C153.719 37.7299 155.863 40.5085 158.483 42.9554C161.103 45.4023 163.246 48.4799 163.246 49.7946C163.246 51.1093 161.103 54.8631 158.483 58.1364C153.594 64.2438 152.373 69.6973 155.469 71.5908C156.431 72.1794 158.227 75.0493 159.46 77.9684C161.66 83.1789 165.644 84.8446 168.883 81.9082C169.713 81.1561 173.879 80.0964 178.141 79.5534L185.891 78.566L184.937 84.3841C184.273 88.4295 184.706 90.9932 186.357 92.7985C188.466 95.1042 188.46 95.6176 186.31 97.3838C183.118 100.005 183.224 106.656 186.516 110.256C187.961 111.836 188.433 113.129 187.565 113.129C183.285 113.129 178.712 132.606 178.988 149.66C179.071 154.751 178.439 158.694 177.542 158.694C176.666 158.694 175.949 156.926 175.949 154.766C175.949 152.606 175.234 150.838 174.361 150.838C173.488 150.838 172.773 151.572 172.773 152.469C172.773 153.366 170.808 153.896 168.407 153.647C164.533 153.246 164.026 153.727 163.92 157.908C163.853 160.501 163.236 163.871 162.549 165.398C161.636 167.423 162.42 169.048 165.448 171.404C167.73 173.181 169.597 175.411 169.597 176.361C169.597 177.31 170.764 179.362 172.189 180.92C174.612 183.57 174.519 183.852 170.755 185.268C165.494 187.247 164.301 189.366 166.963 192C168.782 193.8 168.744 194.484 166.726 196.35C164.664 198.255 162.653 198.217 152.277 196.077C141.945 193.946 139.89 193.905 137.892 195.788C135.971 197.6 135.896 198.864 137.467 202.983C139.896 209.35 139.186 209.937 133.252 206.468C128.618 203.76 128.324 203.763 125.208 206.553C123.251 208.306 122.501 210.131 123.31 211.175C124.044 212.124 125.512 216.083 126.572 219.971C128.113 225.627 128.082 228.299 126.42 233.327C124.057 240.473 121.198 241.468 112.249 238.258Z" fill="#233B77"/>
</svg>
