<svg width="250" height="250" viewBox="0 0 250 250" fill="none" xmlns="http://www.w3.org/2000/svg">
<g clip-path="url(#clip0_359_1067)">
<mask id="mask0_359_1067" style="mask-type:alpha" maskUnits="userSpaceOnUse" x="9" y="33" width="226" height="176">
<path d="M159.058 41.9185C158.082 41.5035 156.973 41.4804 155.921 41.3901L140.82 33.6789C136.05 35.0549 124.308 38.5236 115.501 41.3901C104.493 44.9734 82.2009 53.0682 74.7704 55.1447C67.34 57.2213 24.9595 84.7162 15.0512 92.1904C5.14281 99.6646 10.9231 118.716 10.9231 122.844C10.9231 126.147 20.2807 151.007 24.9595 163.024L72.293 198.525L108.346 208.983L165.994 192.195L203.409 180.362L232.462 142.384L234.389 101.546L226.133 88.8496L207.532 89.0292L203.409 88.8496C202.316 89.267 201.554 90.4444 200.92 91.2989C201.579 92.1144 200.919 92.7834 200.087 93.0605C199.354 93.7564 198.672 94.1377 197.722 94.5177C196.75 95.491 198.358 96.725 197.976 97.8502C197.269 98.6962 195.538 98.7441 194.751 97.9187C193.971 96.4904 192.767 98.2451 191.723 98.3799C190.951 99.1371 190.779 100.295 190.223 101.246C189.105 101.693 187.999 102.266 187.237 103.289C187.857 103.943 187.188 104.673 186.531 104.905C185.531 106.06 184.032 104.548 183.926 103.407C183.08 102.514 183.332 104.445 182.877 104.806C182.429 104.461 182.101 103.612 181.498 104.415C181.185 103.137 179.887 102.502 179.019 101.546C178.315 100.422 179.746 99.4902 180.016 98.4592C179.708 98.6347 179.421 98.839 179.133 99.0436L179.055 99.099C178.434 99.4976 177.675 99.6204 176.971 99.8138C176.15 99.8453 174.934 99.55 174.603 100.581C174.594 101.411 173.647 101.728 172.979 101.892C172.325 101.585 171.3 103.185 171.322 102.109C170.912 101.494 171.399 100.498 170.454 100.37C169.573 100.144 168.711 100.675 167.885 100.921C167.187 101.351 165.804 101.511 165.908 100.337C165.994 99.6161 165.572 98.7766 164.805 98.6739L164.756 98.6955C164.065 99.0026 163.213 99.3816 162.927 98.3742C163.362 97.6858 163.865 96.992 163.671 96.0908C163.865 95.2796 162.627 94.7032 162.695 94.2059C163.435 93.507 164.578 93.1782 164.991 92.1904C165.694 91.3213 164.838 90.2633 163.839 90.5136C163.505 89.6399 162.291 89.762 161.908 89.0292C161.163 88.1693 162.271 87.9157 162.933 87.6385C163.793 87.2977 164.694 88.1529 165.586 88.2346C166.628 88.4151 167.634 87.9254 168.599 87.5983C169.437 87.3796 170.209 86.9029 170.539 86.0637C170.449 85.126 171.398 85.171 172.104 85.1432C171.948 84.9979 171.79 84.8554 171.628 84.7162C170.905 84.4472 171 83.4535 170.381 83.1393C169.587 82.855 168.8 82.5412 167.99 82.2988C167.276 82.0747 166.338 82.1443 165.994 81.3269C165.715 80.5911 164.648 80.61 164.477 79.8125C164.161 78.9167 163.684 80.0054 163.507 80.3343C162.431 80.2392 163.763 78.9699 162.937 78.4707C162.444 77.9538 161.583 78.4708 161.281 78.9766C161.069 79.6277 160.551 80.2476 159.81 80.2281C159.16 80.0885 158.178 81.1939 158.039 80.1805C158.092 79.1635 159.662 78.7615 159.301 77.677C159.234 77.5668 159.079 77.4117 158.988 77.6839C157.725 78.8054 157.44 76.8156 156.356 76.6232C155.046 75.9239 157.341 75.4392 156.702 74.603C156.155 73.8102 155.009 74.0973 154.187 73.8262C153.134 73.892 152.601 72.904 151.719 72.5634C150.619 72.2244 149.46 71.5664 148.292 72.0309C147.26 71.7292 146.234 70.943 145.278 70.3314C144.228 69.3332 146.445 69.3469 147.051 69.6591C147.375 70.4984 148.627 70.9706 149.393 70.3778C149.717 69.4586 150.344 69.8735 150.993 70.0184C151.843 69.6213 152.266 70.5044 152.966 70.4257C153.704 70.4156 155.357 70.1463 154.323 69.1902C153.559 68.2787 152.73 69.7288 152.09 69.0543C151.821 68.138 150.417 69.1581 150.817 68.0287C150.725 67.3702 150.459 66.6886 151.044 66.0195C150.733 64.8856 149.536 65.5044 148.885 65.041C147.491 64.2379 149.151 63.5938 149.46 62.7841C148.793 61.9315 150.041 61.9357 150.651 61.5478C150.676 62.673 151.26 63.7118 151.74 64.7033C152.038 66.0953 153.171 64.1933 153.667 65.1666C153.982 66.3149 155.09 66.5075 156.136 66.5688C157.504 67.0684 156.62 65.2878 157.561 65.1356C158.533 65.3507 159.363 65.0014 160.003 64.216C160.426 64.2571 162.696 63.7337 161.713 64.395C162.396 65.0924 162.066 66.2782 162.224 67.1933C162.886 67.2971 164.203 68.3394 164.395 67.1879C164.295 65.8519 165.447 65.2998 166.47 64.8437C167.331 64.2292 168.094 63.0485 169.266 63.8661C169.498 62.8782 169.836 61.8405 169.442 60.8434C169.394 59.5745 168.285 59.7415 167.411 59.4235C167.952 58.8694 168.947 58.8818 169.645 58.4654C169.995 59.0145 170.749 59.0147 171.379 58.7956C172.192 58.4478 171.873 59.2278 171.335 59.3734C170.134 60.0512 171.673 60.2989 172.33 60.1984C173.137 61.1134 173.905 59.9587 174.611 59.4413C175.548 58.9198 175.903 57.8693 176.773 57.3175C177.156 56.513 176.861 55.4887 176.926 54.5726C176.486 53.442 176.685 52.3588 177.431 51.3967C176.783 51.4413 176.632 52.1611 176.171 52.4408C175.576 51.9628 174.927 52.5275 174.358 52.3485C174.134 51.4078 173.195 51.3008 172.611 52.0339C171.947 52.612 171.102 54.3708 172.628 54.3573C172.344 55.5804 170.968 55.283 170.273 54.6073C170.481 55.5304 169.493 55.9123 168.757 55.9864C168.542 55.4148 169.708 54.6182 169.606 53.7826C169.436 52.4677 167.864 53.7212 168.477 54.4943C168.578 55.3604 167.674 56.0348 166.932 56.2347C166.048 56.5255 165.697 57.6941 164.661 57.7033C163.639 58.1158 162.896 58.9924 161.834 59.3339C161.457 58.9827 162.508 58.0129 162.164 57.3694C161.53 56.4952 161.052 58.453 160.507 58.6306C158.93 58.3504 160.567 57.2013 161.003 56.5984C160.987 55.4903 161.964 54.8642 162.712 54.2015C163.807 53.6077 162.254 52.4793 161.698 53.3617C160.972 53.2409 159.949 54.1629 160.954 54.6014C161.11 55.3091 160.455 56.2452 159.966 56.8075C159.054 57.6309 159.646 55.8624 158.905 56.1948C157.947 56.6597 158.757 55.83 159.086 55.5546C159.01 54.7508 159.753 53.8172 159.431 53.0682C158.641 51.8641 160.435 52.2331 161.074 51.9984C162.21 51.6101 161.36 49.6759 160.503 50.5832C159.858 51.0946 158.908 51.3426 158.113 51.5915C157.673 50.9793 158.872 50.1895 158.268 49.4028C158.33 48.219 158.071 46.9563 158.558 45.8445C159.183 44.9854 158.523 44.1707 157.642 44.0547C158.184 43.4399 159.212 42.9365 159.058 41.9185Z" fill="#233B77"/>
</mask>
<g mask="url(#mask0_359_1067)">
<path d="M89.4596 184.592C87.0399 183.868 83.1273 180.804 80.7648 177.784C78.4023 174.764 71.9665 169.842 66.4629 166.847C60.9593 163.851 55.9204 159.711 55.2652 157.647C54.5152 155.284 52.1568 153.894 48.8968 153.894C44.5939 153.894 44.1332 153.396 46.1685 150.944C49.3727 147.083 46.9152 143.276 42.187 144.777C39.3298 145.684 38.6967 145.1 39.4429 142.247C40.0046 140.099 38.6549 136.947 36.2356 134.758C31.3334 130.321 30.9439 126.948 34.95 123.623C36.9039 122.001 37.475 118.964 36.7111 114.257C35.6901 107.965 36.0476 107.284 40.4048 107.226C45.7642 107.154 52.3209 102.961 52.3209 99.6052C52.3209 97.3849 59.8109 94.0699 63.4652 94.6728C64.5797 94.8566 67.7261 93.2977 70.4572 91.2086C74.8385 87.8572 75.086 87.0041 72.56 83.9604C70.0566 80.944 70.1814 80.1564 73.5537 77.6906C75.6749 76.1395 80.9433 74.8705 85.2613 74.8705C93.3912 74.8705 96.3901 73.6868 110.069 65.0788C116.313 61.1497 120.412 60.0956 127.918 60.4891C136.802 60.9547 138.279 60.3468 144.635 53.6072C148.47 49.5412 151.607 45.4781 151.607 44.5783C151.607 42.4637 160.62 39.0591 170.622 37.3952C176.238 36.4611 181.519 33.2239 189.054 26.0975C194.863 20.604 201.438 16.1092 203.665 16.1092C205.892 16.1092 209.402 14.2438 211.465 11.9639C213.529 9.68392 217.089 7.96123 219.378 8.13565C230.659 8.99544 237.126 4.96841 235.353 -1.81193C234.751 -4.11328 235.624 -6.10701 237.559 -6.84959C239.326 -7.52748 240.762 -10.4071 240.762 -13.2714C240.762 -16.1274 242.169 -19.0039 243.888 -19.6636C245.607 -20.3233 248.817 -24.3979 251.021 -28.7182C253.225 -33.0385 255.375 -36.5732 255.799 -36.5732C256.223 -36.5732 256.432 -31.0356 256.264 -24.2674C255.959 -11.9779 255.951 -11.963 250.387 -13.0723C243.365 -14.4723 243.409 -13.0527 250.737 -1.96787C253.994 2.95958 257.311 9.72652 258.108 13.0699C259.998 20.9976 262.666 24.2142 267.351 24.2142C269.444 24.2142 271.156 25.582 271.156 27.2536C271.156 28.9252 272.523 30.293 274.195 30.293C277.839 30.293 278.185 34.6107 274.811 37.9851C272.93 39.8661 273.27 41.0638 276.33 43.3326C279.727 45.8509 279.913 46.8463 277.672 50.5144C276.242 52.8565 275.552 55.5507 276.139 56.5014C277.649 58.9443 271.447 73.1831 267.074 77.3126C264.18 80.0456 263.197 80.1998 262.372 78.0503C261.62 76.0905 256.98 75.3607 245.732 75.4332C231.979 75.5218 229.739 75.0081 226.781 71.0861C224.863 68.5444 220.845 66.4487 217.404 66.1954C211.743 65.779 211.345 66.2395 210.771 73.8574C210.436 78.3151 208.749 83.0415 207.023 84.3603C203.042 87.4015 205.202 91.072 210.994 91.1081C213.436 91.1235 217.514 91.693 220.056 92.374C224.047 93.4432 224.545 94.6151 223.702 100.958C221.879 114.674 219.39 120.461 215.31 120.465C213.052 120.465 211.111 122.154 210.658 124.508C210.23 126.73 208.166 130.727 206.071 133.389C203.977 136.052 202.263 141.158 202.263 144.735C202.263 148.667 200.66 152.691 198.211 154.907C195.982 156.924 194.158 159.72 194.158 161.12C194.158 165.48 182.019 174.157 175.92 174.157C171.631 174.157 167.079 171.164 158.197 162.506C147.292 151.877 145.457 150.855 137.275 150.855C132.341 150.855 127.228 151.554 125.912 152.408C124.596 153.262 123.011 153.137 122.389 152.131C120.315 148.775 106.594 147.274 104.738 150.201C101.968 154.571 102.734 160.362 106.443 163.074C109.383 165.223 109.537 166.424 107.456 170.991C106.107 173.951 105.003 178.048 105.003 180.094C105.003 182.24 103.073 184.332 100.444 185.037C95.3443 186.404 95.5323 186.411 89.4596 184.592Z" fill="#233B77"/>
</g>
</g>
<defs>
<clipPath id="clip0_359_1067">
<rect width="250" height="250" fill="white"/>
</clipPath>
</defs>
</svg>
